<svg width="964" height="525" viewBox="0 0 964 525" fill="none" xmlns="http://www.w3.org/2000/svg">
<g clip-path="url(#clip0_46_26)">
<rect width="964" height="525" rx="45" fill="#313245"/>
<line x1="121.464" y1="362.464" x2="253.464" y2="230.464" stroke="#FFCD17" stroke-opacity="0.66" stroke-width="10"/>
<line x1="251.444" y1="229.703" x2="478.444" y2="94.7025" stroke="#FFCD17" stroke-opacity="0.66" stroke-width="10"/>
<line x1="705.319" y1="238.221" x2="472.319" y2="90.2206" stroke="#FFCD17" stroke-opacity="0.66" stroke-width="10"/>
<line y1="-5" x2="186.676" y2="-5" transform="matrix(-0.707107 -0.707107 -0.707107 0.707107 386 366)" stroke="#FFCD17" stroke-opacity="0.66" stroke-width="10"/>
<circle cx="482" cy="99" r="66" fill="#FFCD17"/>
<circle cx="254" cy="234" r="66" fill="#FFCD17"/>
<circle cx="386" cy="366" r="66" fill="#FFCD17"/>
<circle cx="122" cy="366" r="66" fill="#FFCD17"/>
<path d="M63.0661 466.818H67.8602L76.1954 487.17H76.5022L84.8374 466.818H89.6315V493H85.8729V474.054H85.63L77.9084 492.962H74.7891L67.0675 474.041H66.8246V493H63.0661V466.818ZM102.451 493.396C100.516 493.396 98.8501 492.983 97.4524 492.156C96.0632 491.321 94.9893 490.149 94.2308 488.641C93.4808 487.124 93.1058 485.347 93.1058 483.31C93.1058 481.298 93.4808 479.526 94.2308 477.991C94.9893 476.457 96.0461 475.26 97.4012 474.399C98.7649 473.538 100.359 473.108 102.182 473.108C103.29 473.108 104.364 473.291 105.404 473.658C106.444 474.024 107.377 474.599 108.204 475.384C109.031 476.168 109.682 477.186 110.16 478.439C110.637 479.683 110.876 481.196 110.876 482.977V484.332H95.2663V481.469H107.13C107.13 480.463 106.925 479.572 106.516 478.797C106.107 478.013 105.532 477.395 104.79 476.943C104.057 476.491 103.197 476.266 102.208 476.266C101.134 476.266 100.197 476.53 99.3956 477.058C98.603 477.578 97.9893 478.26 97.5547 479.104C97.1285 479.939 96.9155 480.847 96.9155 481.827V484.064C96.9155 485.376 97.1456 486.493 97.6058 487.413C98.0745 488.334 98.7265 489.037 99.5618 489.523C100.397 490 101.373 490.239 102.489 490.239C103.214 490.239 103.874 490.136 104.471 489.932C105.067 489.719 105.583 489.403 106.018 488.986C106.452 488.568 106.785 488.053 107.015 487.439L110.633 488.091C110.343 489.156 109.823 490.089 109.073 490.891C108.332 491.683 107.398 492.301 106.273 492.744C105.157 493.179 103.883 493.396 102.451 493.396ZM114.037 493V473.364H117.731V476.483H117.936C118.294 475.426 118.925 474.595 119.828 473.99C120.74 473.376 121.771 473.07 122.922 473.07C123.16 473.07 123.442 473.078 123.765 473.095C124.098 473.112 124.358 473.134 124.545 473.159V476.815C124.392 476.773 124.119 476.726 123.727 476.675C123.335 476.615 122.943 476.585 122.551 476.585C121.648 476.585 120.842 476.777 120.135 477.161C119.436 477.536 118.882 478.06 118.473 478.733C118.064 479.398 117.859 480.156 117.859 481.009V493H114.037ZM130.289 486.339L130.263 481.673H130.928L138.752 473.364H143.329L134.405 482.824H133.804L130.289 486.339ZM126.773 493V466.818H130.596V493H126.773ZM139.174 493L132.143 483.668L134.776 480.996L143.866 493H139.174ZM149.555 466.818V493H145.732V466.818H149.555ZM162.08 493.396C160.146 493.396 158.479 492.983 157.082 492.156C155.692 491.321 154.619 490.149 153.86 488.641C153.11 487.124 152.735 485.347 152.735 483.31C152.735 481.298 153.11 479.526 153.86 477.991C154.619 476.457 155.675 475.26 157.03 474.399C158.394 473.538 159.988 473.108 161.812 473.108C162.92 473.108 163.994 473.291 165.033 473.658C166.073 474.024 167.006 474.599 167.833 475.384C168.66 476.168 169.312 477.186 169.789 478.439C170.266 479.683 170.505 481.196 170.505 482.977V484.332H154.896V481.469H166.759C166.759 480.463 166.555 479.572 166.146 478.797C165.736 478.013 165.161 477.395 164.42 476.943C163.687 476.491 162.826 476.266 161.837 476.266C160.763 476.266 159.826 476.53 159.025 477.058C158.232 477.578 157.619 478.26 157.184 479.104C156.758 479.939 156.545 480.847 156.545 481.827V484.064C156.545 485.376 156.775 486.493 157.235 487.413C157.704 488.334 158.356 489.037 159.191 489.523C160.026 490 161.002 490.239 162.119 490.239C162.843 490.239 163.503 490.136 164.1 489.932C164.697 489.719 165.212 489.403 165.647 488.986C166.082 488.568 166.414 488.053 166.644 487.439L170.262 488.091C169.972 489.156 169.452 490.089 168.702 490.891C167.961 491.683 167.028 492.301 165.903 492.744C164.786 493.179 163.512 493.396 162.08 493.396ZM182.113 500.364V473.364H185.846V476.547H186.166C186.388 476.138 186.707 475.665 187.125 475.128C187.542 474.591 188.122 474.122 188.863 473.722C189.605 473.312 190.585 473.108 191.804 473.108C193.389 473.108 194.804 473.509 196.048 474.31C197.292 475.111 198.268 476.266 198.976 477.774C199.691 479.283 200.049 481.098 200.049 483.22C200.049 485.342 199.696 487.162 198.988 488.679C198.281 490.187 197.309 491.351 196.074 492.169C194.838 492.979 193.427 493.384 191.842 493.384C190.649 493.384 189.673 493.183 188.915 492.783C188.165 492.382 187.576 491.913 187.15 491.376C186.724 490.839 186.396 490.362 186.166 489.945H185.936V500.364H182.113ZM185.859 483.182C185.859 484.562 186.059 485.773 186.46 486.812C186.861 487.852 187.44 488.666 188.199 489.254C188.957 489.834 189.886 490.124 190.986 490.124C192.128 490.124 193.082 489.821 193.849 489.216C194.616 488.602 195.196 487.771 195.588 486.723C195.988 485.675 196.189 484.494 196.189 483.182C196.189 481.886 195.993 480.723 195.601 479.692C195.217 478.661 194.638 477.847 193.862 477.25C193.095 476.653 192.136 476.355 190.986 476.355C189.878 476.355 188.94 476.641 188.173 477.212C187.415 477.783 186.839 478.58 186.447 479.602C186.055 480.625 185.859 481.818 185.859 483.182ZM203.252 493V473.364H206.947V476.483H207.151C207.509 475.426 208.14 474.595 209.043 473.99C209.955 473.376 210.986 473.07 212.137 473.07C212.376 473.07 212.657 473.078 212.981 473.095C213.313 473.112 213.573 473.134 213.761 473.159V476.815C213.607 476.773 213.334 476.726 212.942 476.675C212.55 476.615 212.158 476.585 211.766 476.585C210.863 476.585 210.058 476.777 209.35 477.161C208.651 477.536 208.097 478.06 207.688 478.733C207.279 479.398 207.075 480.156 207.075 481.009V493H203.252ZM223.557 493.396C221.716 493.396 220.109 492.974 218.737 492.131C217.365 491.287 216.3 490.107 215.541 488.589C214.783 487.072 214.403 485.3 214.403 483.271C214.403 481.234 214.783 479.453 215.541 477.928C216.3 476.402 217.365 475.217 218.737 474.374C220.109 473.53 221.716 473.108 223.557 473.108C225.398 473.108 227.004 473.53 228.376 474.374C229.748 475.217 230.814 476.402 231.572 477.928C232.331 479.453 232.71 481.234 232.71 483.271C232.71 485.3 232.331 487.072 231.572 488.589C230.814 490.107 229.748 491.287 228.376 492.131C227.004 492.974 225.398 493.396 223.557 493.396ZM223.569 490.188C224.763 490.188 225.751 489.872 226.535 489.241C227.319 488.611 227.899 487.771 228.274 486.723C228.658 485.675 228.849 484.52 228.849 483.259C228.849 482.006 228.658 480.855 228.274 479.807C227.899 478.75 227.319 477.902 226.535 477.263C225.751 476.624 224.763 476.304 223.569 476.304C222.368 476.304 221.371 476.624 220.578 477.263C219.794 477.902 219.21 478.75 218.827 479.807C218.452 480.855 218.264 482.006 218.264 483.259C218.264 484.52 218.452 485.675 218.827 486.723C219.21 487.771 219.794 488.611 220.578 489.241C221.371 489.872 222.368 490.188 223.569 490.188ZM244.168 493.396C242.327 493.396 240.721 492.974 239.349 492.131C237.976 491.287 236.911 490.107 236.152 488.589C235.394 487.072 235.015 485.3 235.015 483.271C235.015 481.234 235.394 479.453 236.152 477.928C236.911 476.402 237.976 475.217 239.349 474.374C240.721 473.53 242.327 473.108 244.168 473.108C246.009 473.108 247.616 473.53 248.988 474.374C250.36 475.217 251.425 476.402 252.184 477.928C252.942 479.453 253.322 481.234 253.322 483.271C253.322 485.3 252.942 487.072 252.184 488.589C251.425 490.107 250.36 491.287 248.988 492.131C247.616 492.974 246.009 493.396 244.168 493.396ZM244.181 490.188C245.374 490.188 246.363 489.872 247.147 489.241C247.931 488.611 248.51 487.771 248.885 486.723C249.269 485.675 249.461 484.52 249.461 483.259C249.461 482.006 249.269 480.855 248.885 479.807C248.51 478.75 247.931 477.902 247.147 477.263C246.363 476.624 245.374 476.304 244.181 476.304C242.979 476.304 241.982 476.624 241.189 477.263C240.405 477.902 239.822 478.75 239.438 479.807C239.063 480.855 238.875 482.006 238.875 483.259C238.875 484.52 239.063 485.675 239.438 486.723C239.822 487.771 240.405 488.611 241.189 489.241C241.982 489.872 242.979 490.188 244.181 490.188ZM265.853 473.364V476.432H254.757V473.364H265.853ZM257.799 493V471.088C257.799 469.861 258.068 468.842 258.605 468.033C259.142 467.214 259.853 466.605 260.74 466.205C261.626 465.795 262.589 465.591 263.629 465.591C264.396 465.591 265.052 465.655 265.598 465.783C266.143 465.902 266.548 466.013 266.812 466.115L265.917 469.209C265.738 469.158 265.508 469.098 265.227 469.03C264.946 468.953 264.605 468.915 264.204 468.915C263.275 468.915 262.61 469.145 262.21 469.605C261.818 470.065 261.622 470.73 261.622 471.599V493H257.799ZM293.477 493.473L291.176 491.197L299.166 483.207H279.095V479.884H299.166L291.176 471.906L293.477 469.618L305.405 481.545L293.477 493.473ZM321.296 500.364C320.725 500.364 320.205 500.317 319.736 500.223C319.267 500.138 318.918 500.044 318.688 499.942L319.608 496.81C320.307 496.997 320.929 497.078 321.475 497.053C322.02 497.027 322.502 496.822 322.919 496.439C323.346 496.055 323.721 495.429 324.044 494.56L324.517 493.256L317.333 473.364H321.424L326.397 488.602H326.601L331.574 473.364H335.678L327.586 495.621C327.211 496.643 326.733 497.509 326.154 498.216C325.574 498.932 324.884 499.469 324.083 499.827C323.282 500.185 322.353 500.364 321.296 500.364ZM351.498 481.533V484.844H340.862V481.533H351.498ZM341.936 473.364V493H338.19V473.364H341.936ZM354.17 473.364V493H350.437V473.364H354.17ZM361.95 487.643L370.605 473.364H374.721V493H370.975V478.707L362.359 493H358.204V473.364H361.95V487.643ZM378.78 493V473.364H382.603V481.597H384.444L390.925 473.364H395.655L388.049 482.913L395.745 493H391.002L385.083 485.151H382.603V493H378.78ZM403.348 493.435C402.104 493.435 400.979 493.205 399.973 492.744C398.968 492.276 398.171 491.598 397.583 490.712C397.003 489.825 396.713 488.739 396.713 487.452C396.713 486.344 396.926 485.432 397.353 484.716C397.779 484 398.354 483.433 399.078 483.016C399.803 482.598 400.613 482.283 401.507 482.07C402.402 481.857 403.314 481.695 404.243 481.584C405.419 481.447 406.374 481.337 407.107 481.251C407.84 481.158 408.372 481.009 408.705 480.804C409.037 480.599 409.203 480.267 409.203 479.807V479.717C409.203 478.601 408.888 477.736 408.257 477.122C407.635 476.509 406.706 476.202 405.47 476.202C404.184 476.202 403.169 476.487 402.428 477.058C401.695 477.621 401.188 478.247 400.907 478.938L397.314 478.119C397.74 476.926 398.363 475.963 399.181 475.23C400.007 474.489 400.958 473.952 402.032 473.619C403.105 473.278 404.235 473.108 405.419 473.108C406.203 473.108 407.034 473.202 407.912 473.389C408.799 473.568 409.625 473.901 410.392 474.386C411.168 474.872 411.803 475.567 412.297 476.47C412.792 477.365 413.039 478.528 413.039 479.96V493H409.306V490.315H409.152C408.905 490.81 408.534 491.295 408.04 491.773C407.546 492.25 406.911 492.646 406.135 492.962C405.36 493.277 404.431 493.435 403.348 493.435ZM404.179 490.366C405.236 490.366 406.14 490.158 406.89 489.74C407.648 489.322 408.223 488.777 408.615 488.104C409.016 487.422 409.216 486.693 409.216 485.918V483.386C409.08 483.523 408.816 483.651 408.424 483.77C408.04 483.881 407.601 483.979 407.107 484.064C406.613 484.141 406.131 484.213 405.662 484.281C405.194 484.341 404.801 484.392 404.486 484.435C403.745 484.528 403.067 484.686 402.453 484.908C401.848 485.129 401.363 485.449 400.996 485.866C400.638 486.276 400.459 486.821 400.459 487.503C400.459 488.449 400.809 489.165 401.507 489.651C402.206 490.128 403.097 490.366 404.179 490.366ZM415.503 493L415.49 489.689H416.193C416.739 489.689 417.195 489.574 417.561 489.344C417.936 489.105 418.243 488.705 418.482 488.142C418.72 487.58 418.904 486.804 419.031 485.815C419.159 484.818 419.253 483.565 419.313 482.057L419.658 473.364H433.362V493H429.617V476.662H423.199L422.892 483.335C422.816 484.955 422.649 486.369 422.394 487.58C422.147 488.79 421.784 489.8 421.307 490.609C420.83 491.411 420.216 492.011 419.466 492.412C418.716 492.804 417.804 493 416.73 493H415.503ZM440.257 480.114H445.958C448.362 480.114 450.211 480.71 451.507 481.903C452.802 483.097 453.45 484.635 453.45 486.518C453.45 487.746 453.16 488.849 452.58 489.83C452.001 490.81 451.153 491.585 450.036 492.156C448.92 492.719 447.56 493 445.958 493H437.38V473.364H441.126V489.702H445.958C447.058 489.702 447.961 489.416 448.668 488.845C449.376 488.266 449.73 487.528 449.73 486.634C449.73 485.687 449.376 484.916 448.668 484.32C447.961 483.714 447.058 483.412 445.958 483.412H440.257V480.114ZM469.964 481.533V484.844H459.327V481.533H469.964ZM460.401 473.364V493H456.656V473.364H460.401ZM472.636 473.364V493H468.903V473.364H472.636ZM482.384 493.435C481.139 493.435 480.014 493.205 479.009 492.744C478.003 492.276 477.206 491.598 476.618 490.712C476.039 489.825 475.749 488.739 475.749 487.452C475.749 486.344 475.962 485.432 476.388 484.716C476.814 484 477.389 483.433 478.114 483.016C478.838 482.598 479.648 482.283 480.543 482.07C481.438 481.857 482.35 481.695 483.279 481.584C484.455 481.447 485.409 481.337 486.142 481.251C486.875 481.158 487.408 481.009 487.74 480.804C488.073 480.599 488.239 480.267 488.239 479.807V479.717C488.239 478.601 487.924 477.736 487.293 477.122C486.671 476.509 485.742 476.202 484.506 476.202C483.219 476.202 482.205 476.487 481.463 477.058C480.73 477.621 480.223 478.247 479.942 478.938L476.35 478.119C476.776 476.926 477.398 475.963 478.216 475.23C479.043 474.489 479.993 473.952 481.067 473.619C482.141 473.278 483.27 473.108 484.455 473.108C485.239 473.108 486.07 473.202 486.948 473.389C487.834 473.568 488.661 473.901 489.428 474.386C490.203 474.872 490.838 475.567 491.333 476.47C491.827 477.365 492.074 478.528 492.074 479.96V493H488.341V490.315H488.188C487.941 490.81 487.57 491.295 487.076 491.773C486.581 492.25 485.946 492.646 485.171 492.962C484.395 493.277 483.466 493.435 482.384 493.435ZM483.215 490.366C484.272 490.366 485.175 490.158 485.925 489.74C486.684 489.322 487.259 488.777 487.651 488.104C488.051 487.422 488.252 486.693 488.252 485.918V483.386C488.115 483.523 487.851 483.651 487.459 483.77C487.076 483.881 486.637 483.979 486.142 484.064C485.648 484.141 485.166 484.213 484.698 484.281C484.229 484.341 483.837 484.392 483.522 484.435C482.78 484.528 482.103 484.686 481.489 484.908C480.884 485.129 480.398 485.449 480.032 485.866C479.674 486.276 479.495 486.821 479.495 487.503C479.495 488.449 479.844 489.165 480.543 489.651C481.242 490.128 482.132 490.366 483.215 490.366ZM507.796 493V476.624H503.091C501.975 476.624 501.105 476.884 500.483 477.403C499.861 477.923 499.55 478.605 499.55 479.449C499.55 480.284 499.835 480.957 500.406 481.469C500.986 481.972 501.796 482.223 502.835 482.223H508.908V485.317H502.835C501.387 485.317 500.134 485.078 499.077 484.601C498.029 484.115 497.219 483.429 496.648 482.543C496.085 481.656 495.804 480.608 495.804 479.398C495.804 478.162 496.094 477.097 496.673 476.202C497.262 475.298 498.101 474.599 499.192 474.105C500.291 473.611 501.591 473.364 503.091 473.364H511.388V493H507.796ZM494.909 493L500.445 483.08H504.357L498.821 493H494.909ZM523.843 493V473.364H539.862V493H536.116V476.662H527.564V493H523.843ZM543.892 500.364V473.364H547.625V476.547H547.945C548.166 476.138 548.486 475.665 548.904 475.128C549.321 474.591 549.901 474.122 550.642 473.722C551.384 473.312 552.364 473.108 553.583 473.108C555.168 473.108 556.583 473.509 557.827 474.31C559.071 475.111 560.047 476.266 560.754 477.774C561.47 479.283 561.828 481.098 561.828 483.22C561.828 485.342 561.475 487.162 560.767 488.679C560.06 490.187 559.088 491.351 557.852 492.169C556.617 492.979 555.206 493.384 553.621 493.384C552.428 493.384 551.452 493.183 550.693 492.783C549.943 492.382 549.355 491.913 548.929 491.376C548.503 490.839 548.175 490.362 547.945 489.945H547.715V500.364H543.892ZM547.638 483.182C547.638 484.562 547.838 485.773 548.239 486.812C548.639 487.852 549.219 488.666 549.977 489.254C550.736 489.834 551.665 490.124 552.764 490.124C553.906 490.124 554.861 489.821 555.628 489.216C556.395 488.602 556.975 487.771 557.367 486.723C557.767 485.675 557.968 484.494 557.968 483.182C557.968 481.886 557.772 480.723 557.379 479.692C556.996 478.661 556.416 477.847 555.641 477.25C554.874 476.653 553.915 476.355 552.764 476.355C551.656 476.355 550.719 476.641 549.952 477.212C549.193 477.783 548.618 478.58 548.226 479.602C547.834 480.625 547.638 481.818 547.638 483.182ZM573.302 493.396C571.461 493.396 569.855 492.974 568.483 492.131C567.111 491.287 566.045 490.107 565.287 488.589C564.528 487.072 564.149 485.3 564.149 483.271C564.149 481.234 564.528 479.453 565.287 477.928C566.045 476.402 567.111 475.217 568.483 474.374C569.855 473.53 571.461 473.108 573.302 473.108C575.143 473.108 576.75 473.53 578.122 474.374C579.494 475.217 580.559 476.402 581.318 477.928C582.076 479.453 582.456 481.234 582.456 483.271C582.456 485.3 582.076 487.072 581.318 488.589C580.559 490.107 579.494 491.287 578.122 492.131C576.75 492.974 575.143 493.396 573.302 493.396ZM573.315 490.188C574.508 490.188 575.497 489.872 576.281 489.241C577.065 488.611 577.645 487.771 578.02 486.723C578.403 485.675 578.595 484.52 578.595 483.259C578.595 482.006 578.403 480.855 578.02 479.807C577.645 478.75 577.065 477.902 576.281 477.263C575.497 476.624 574.508 476.304 573.315 476.304C572.113 476.304 571.116 476.624 570.324 477.263C569.54 477.902 568.956 478.75 568.572 479.807C568.197 480.855 568.01 482.006 568.01 483.259C568.01 484.52 568.197 485.675 568.572 486.723C568.956 487.771 569.54 488.611 570.324 489.241C571.116 489.872 572.113 490.188 573.315 490.188ZM585.642 493V473.364H593.786C596.002 473.364 597.757 473.837 599.053 474.783C600.348 475.72 600.996 476.994 600.996 478.605C600.996 479.756 600.63 480.668 599.897 481.341C599.164 482.014 598.192 482.466 596.982 482.696C597.86 482.798 598.665 483.062 599.398 483.489C600.131 483.906 600.719 484.469 601.162 485.176C601.614 485.884 601.84 486.727 601.84 487.707C601.84 488.747 601.571 489.668 601.034 490.469C600.498 491.261 599.718 491.884 598.695 492.335C597.681 492.778 596.458 493 595.026 493H585.642ZM589.235 489.804H595.026C595.972 489.804 596.713 489.578 597.25 489.126C597.787 488.675 598.056 488.061 598.056 487.286C598.056 486.374 597.787 485.658 597.25 485.138C596.713 484.609 595.972 484.345 595.026 484.345H589.235V489.804ZM589.235 481.545H593.824C594.54 481.545 595.154 481.443 595.665 481.239C596.185 481.034 596.581 480.744 596.854 480.369C597.135 479.986 597.276 479.534 597.276 479.014C597.276 478.256 596.965 477.663 596.343 477.237C595.721 476.811 594.868 476.598 593.786 476.598H589.235V481.545ZM613.416 493.396C611.481 493.396 609.815 492.983 608.418 492.156C607.028 491.321 605.954 490.149 605.196 488.641C604.446 487.124 604.071 485.347 604.071 483.31C604.071 481.298 604.446 479.526 605.196 477.991C605.954 476.457 607.011 475.26 608.366 474.399C609.73 473.538 611.324 473.108 613.148 473.108C614.256 473.108 615.329 473.291 616.369 473.658C617.409 474.024 618.342 474.599 619.169 475.384C619.996 476.168 620.648 477.186 621.125 478.439C621.602 479.683 621.841 481.196 621.841 482.977V484.332H606.231V481.469H618.095C618.095 480.463 617.891 479.572 617.481 478.797C617.072 478.013 616.497 477.395 615.756 476.943C615.023 476.491 614.162 476.266 613.173 476.266C612.099 476.266 611.162 476.53 610.361 477.058C609.568 477.578 608.954 478.26 608.52 479.104C608.094 479.939 607.881 480.847 607.881 481.827V484.064C607.881 485.376 608.111 486.493 608.571 487.413C609.04 488.334 609.692 489.037 610.527 489.523C611.362 490 612.338 490.239 613.454 490.239C614.179 490.239 614.839 490.136 615.436 489.932C616.033 489.719 616.548 489.403 616.983 488.986C617.418 488.568 617.75 488.053 617.98 487.439L621.598 488.091C621.308 489.156 620.788 490.089 620.038 490.891C619.297 491.683 618.364 492.301 617.239 492.744C616.122 493.179 614.848 493.396 613.416 493.396ZM625.002 500.364V473.364H628.735V476.547H629.055C629.276 476.138 629.596 475.665 630.013 475.128C630.431 474.591 631.01 474.122 631.752 473.722C632.493 473.312 633.474 473.108 634.692 473.108C636.278 473.108 637.692 473.509 638.937 474.31C640.181 475.111 641.157 476.266 641.864 477.774C642.58 479.283 642.938 481.098 642.938 483.22C642.938 485.342 642.584 487.162 641.877 488.679C641.17 490.187 640.198 491.351 638.962 492.169C637.726 492.979 636.316 493.384 634.731 493.384C633.537 493.384 632.562 493.183 631.803 492.783C631.053 492.382 630.465 491.913 630.039 491.376C629.613 490.839 629.285 490.362 629.055 489.945H628.824V500.364H625.002ZM628.748 483.182C628.748 484.562 628.948 485.773 629.349 486.812C629.749 487.852 630.329 488.666 631.087 489.254C631.846 489.834 632.775 490.124 633.874 490.124C635.016 490.124 635.971 489.821 636.738 489.216C637.505 488.602 638.084 487.771 638.476 486.723C638.877 485.675 639.077 484.494 639.077 483.182C639.077 481.886 638.881 480.723 638.489 479.692C638.106 478.661 637.526 477.847 636.751 477.25C635.984 476.653 635.025 476.355 633.874 476.355C632.766 476.355 631.829 476.641 631.062 477.212C630.303 477.783 629.728 478.58 629.336 479.602C628.944 480.625 628.748 481.818 628.748 483.182ZM657.851 493V476.624H653.146C652.03 476.624 651.161 476.884 650.538 477.403C649.916 477.923 649.605 478.605 649.605 479.449C649.605 480.284 649.891 480.957 650.462 481.469C651.041 481.972 651.851 482.223 652.891 482.223H658.963V485.317H652.891C651.442 485.317 650.189 485.078 649.132 484.601C648.084 484.115 647.274 483.429 646.703 482.543C646.141 481.656 645.859 480.608 645.859 479.398C645.859 478.162 646.149 477.097 646.729 476.202C647.317 475.298 648.156 474.599 649.247 474.105C650.347 473.611 651.646 473.364 653.146 473.364H661.443V493H657.851ZM644.965 493L650.5 483.08H654.412L648.877 493H644.965ZM673.914 493.396C671.98 493.396 670.314 492.983 668.916 492.156C667.527 491.321 666.453 490.149 665.694 488.641C664.944 487.124 664.569 485.347 664.569 483.31C664.569 481.298 664.944 479.526 665.694 477.991C666.453 476.457 667.51 475.26 668.865 474.399C670.228 473.538 671.822 473.108 673.646 473.108C674.754 473.108 675.828 473.291 676.868 473.658C677.907 474.024 678.841 474.599 679.667 475.384C680.494 476.168 681.146 477.186 681.623 478.439C682.1 479.683 682.339 481.196 682.339 482.977V484.332H666.73V481.469H678.593C678.593 480.463 678.389 479.572 677.98 478.797C677.571 478.013 676.995 477.395 676.254 476.943C675.521 476.491 674.66 476.266 673.671 476.266C672.598 476.266 671.66 476.53 670.859 477.058C670.066 477.578 669.453 478.26 669.018 479.104C668.592 479.939 668.379 480.847 668.379 481.827V484.064C668.379 485.376 668.609 486.493 669.069 487.413C669.538 488.334 670.19 489.037 671.025 489.523C671.86 490 672.836 490.239 673.953 490.239C674.677 490.239 675.338 490.136 675.934 489.932C676.531 489.719 677.046 489.403 677.481 488.986C677.916 488.568 678.248 488.053 678.478 487.439L682.096 488.091C681.806 489.156 681.287 490.089 680.537 490.891C679.795 491.683 678.862 492.301 677.737 492.744C676.62 493.179 675.346 493.396 673.914 493.396ZM696.52 488.27L702.861 473.364H706.159L697.939 493H695.101L687.047 473.364H690.307L696.52 488.27ZM689.246 473.364V493H685.5V473.364H689.246ZM703.897 493V473.364H707.617V493H703.897ZM717.346 493.435C716.101 493.435 714.976 493.205 713.971 492.744C712.965 492.276 712.168 491.598 711.58 490.712C711.001 489.825 710.711 488.739 710.711 487.452C710.711 486.344 710.924 485.432 711.35 484.716C711.776 484 712.351 483.433 713.076 483.016C713.8 482.598 714.61 482.283 715.505 482.07C716.4 481.857 717.312 481.695 718.241 481.584C719.417 481.447 720.371 481.337 721.104 481.251C721.837 481.158 722.37 481.009 722.702 480.804C723.035 480.599 723.201 480.267 723.201 479.807V479.717C723.201 478.601 722.885 477.736 722.255 477.122C721.633 476.509 720.704 476.202 719.468 476.202C718.181 476.202 717.167 476.487 716.425 477.058C715.692 477.621 715.185 478.247 714.904 478.938L711.312 478.119C711.738 476.926 712.36 475.963 713.178 475.23C714.005 474.489 714.955 473.952 716.029 473.619C717.103 473.278 718.232 473.108 719.417 473.108C720.201 473.108 721.032 473.202 721.91 473.389C722.796 473.568 723.623 473.901 724.39 474.386C725.165 474.872 725.8 475.567 726.295 476.47C726.789 477.365 727.036 478.528 727.036 479.96V493H723.303V490.315H723.15C722.902 490.81 722.532 491.295 722.037 491.773C721.543 492.25 720.908 492.646 720.133 492.962C719.357 493.277 718.428 493.435 717.346 493.435ZM718.177 490.366C719.233 490.366 720.137 490.158 720.887 489.74C721.645 489.322 722.221 488.777 722.613 488.104C723.013 487.422 723.214 486.693 723.214 485.918V483.386C723.077 483.523 722.813 483.651 722.421 483.77C722.037 483.881 721.599 483.979 721.104 484.064C720.61 484.141 720.128 484.213 719.66 484.281C719.191 484.341 718.799 484.392 718.483 484.435C717.742 484.528 717.064 484.686 716.451 484.908C715.846 485.129 715.36 485.449 714.993 485.866C714.635 486.276 714.456 486.821 714.456 487.503C714.456 488.449 714.806 489.165 715.505 489.651C716.204 490.128 717.094 490.366 718.177 490.366ZM742.757 493V476.624H738.053C736.936 476.624 736.067 476.884 735.445 477.403C734.823 477.923 734.512 478.605 734.512 479.449C734.512 480.284 734.797 480.957 735.368 481.469C735.948 481.972 736.757 482.223 737.797 482.223H743.87V485.317H737.797C736.348 485.317 735.096 485.078 734.039 484.601C732.99 484.115 732.181 483.429 731.61 482.543C731.047 481.656 730.766 480.608 730.766 479.398C730.766 478.162 731.056 477.097 731.635 476.202C732.223 475.298 733.063 474.599 734.154 474.105C735.253 473.611 736.553 473.364 738.053 473.364H746.35V493H742.757ZM729.871 493L735.407 483.08H739.319L733.783 493H729.871ZM758.805 493V473.364H766.949C769.165 473.364 770.92 473.837 772.216 474.783C773.511 475.72 774.159 476.994 774.159 478.605C774.159 479.756 773.792 480.668 773.06 481.341C772.327 482.014 771.355 482.466 770.145 482.696C771.023 482.798 771.828 483.062 772.561 483.489C773.294 483.906 773.882 484.469 774.325 485.176C774.777 485.884 775.003 486.727 775.003 487.707C775.003 488.747 774.734 489.668 774.197 490.469C773.66 491.261 772.881 491.884 771.858 492.335C770.844 492.778 769.621 493 768.189 493H758.805ZM762.398 489.804H768.189C769.135 489.804 769.876 489.578 770.413 489.126C770.95 488.675 771.219 488.061 771.219 487.286C771.219 486.374 770.95 485.658 770.413 485.138C769.876 484.609 769.135 484.345 768.189 484.345H762.398V489.804ZM762.398 481.545H766.987C767.703 481.545 768.317 481.443 768.828 481.239C769.348 481.034 769.744 480.744 770.017 480.369C770.298 479.986 770.439 479.534 770.439 479.014C770.439 478.256 770.128 477.663 769.506 477.237C768.883 476.811 768.031 476.598 766.949 476.598H762.398V481.545ZM780.992 480.114H786.694C789.097 480.114 790.947 480.71 792.242 481.903C793.538 483.097 794.185 484.635 794.185 486.518C794.185 487.746 793.896 488.849 793.316 489.83C792.737 490.81 791.889 491.585 790.772 492.156C789.656 492.719 788.296 493 786.694 493H778.116V473.364H781.862V489.702H786.694C787.793 489.702 788.697 489.416 789.404 488.845C790.112 488.266 790.465 487.528 790.465 486.634C790.465 485.687 790.112 484.916 789.404 484.32C788.697 483.714 787.793 483.412 786.694 483.412H780.992V480.114ZM796.972 493V473.364H800.795V493H796.972ZM819.994 466.051L821.579 468.467C820.991 469.004 820.322 469.388 819.572 469.618C818.83 469.839 817.974 469.98 817.002 470.04C816.031 470.091 814.918 470.138 813.665 470.18C812.251 470.223 811.087 470.53 810.175 471.101C809.263 471.663 808.56 472.499 808.066 473.607C807.58 474.706 807.265 476.087 807.12 477.749H807.363C808.002 476.53 808.888 475.618 810.022 475.013C811.164 474.408 812.447 474.105 813.87 474.105C815.455 474.105 816.866 474.467 818.102 475.192C819.337 475.916 820.309 476.977 821.016 478.375C821.732 479.764 822.09 481.464 822.09 483.476C822.09 485.513 821.715 487.273 820.965 488.756C820.224 490.239 819.175 491.385 817.82 492.195C816.474 492.996 814.884 493.396 813.052 493.396C811.219 493.396 809.621 492.983 808.258 492.156C806.903 491.321 805.85 490.085 805.1 488.449C804.359 486.812 803.988 484.793 803.988 482.389V480.446C803.988 475.955 804.789 472.575 806.391 470.308C807.994 468.041 810.388 466.878 813.576 466.818C814.607 466.793 815.528 466.788 816.337 466.805C817.147 466.814 817.854 466.776 818.46 466.69C819.073 466.597 819.585 466.384 819.994 466.051ZM813.065 490.188C814.13 490.188 815.046 489.919 815.813 489.382C816.589 488.837 817.185 488.065 817.603 487.068C818.021 486.071 818.229 484.895 818.229 483.54C818.229 482.21 818.021 481.081 817.603 480.152C817.185 479.223 816.589 478.516 815.813 478.03C815.038 477.536 814.109 477.288 813.026 477.288C812.225 477.288 811.509 477.429 810.879 477.71C810.248 477.983 809.707 478.388 809.255 478.925C808.812 479.462 808.467 480.118 808.219 480.893C807.981 481.661 807.853 482.543 807.836 483.54C807.836 485.568 808.3 487.183 809.229 488.385C810.167 489.587 811.445 490.188 813.065 490.188ZM833.551 493.396C831.71 493.396 830.104 492.974 828.732 492.131C827.36 491.287 826.294 490.107 825.536 488.589C824.777 487.072 824.398 485.3 824.398 483.271C824.398 481.234 824.777 479.453 825.536 477.928C826.294 476.402 827.36 475.217 828.732 474.374C830.104 473.53 831.71 473.108 833.551 473.108C835.392 473.108 836.999 473.53 838.371 474.374C839.743 475.217 840.808 476.402 841.567 477.928C842.326 479.453 842.705 481.234 842.705 483.271C842.705 485.3 842.326 487.072 841.567 488.589C840.808 490.107 839.743 491.287 838.371 492.131C836.999 492.974 835.392 493.396 833.551 493.396ZM833.564 490.188C834.757 490.188 835.746 489.872 836.53 489.241C837.314 488.611 837.894 487.771 838.269 486.723C838.652 485.675 838.844 484.52 838.844 483.259C838.844 482.006 838.652 480.855 838.269 479.807C837.894 478.75 837.314 477.902 836.53 477.263C835.746 476.624 834.757 476.304 833.564 476.304C832.362 476.304 831.365 476.624 830.573 477.263C829.789 477.902 829.205 478.75 828.821 479.807C828.446 480.855 828.259 482.006 828.259 483.259C828.259 484.52 828.446 485.675 828.821 486.723C829.205 487.771 829.789 488.611 830.573 489.241C831.365 489.872 832.362 490.188 833.564 490.188ZM845.892 500.364V473.364H849.624V476.547H849.944C850.166 476.138 850.485 475.665 850.903 475.128C851.32 474.591 851.9 474.122 852.642 473.722C853.383 473.312 854.363 473.108 855.582 473.108C857.167 473.108 858.582 473.509 859.826 474.31C861.07 475.111 862.046 476.266 862.754 477.774C863.47 479.283 863.828 481.098 863.828 483.22C863.828 485.342 863.474 487.162 862.767 488.679C862.059 490.187 861.088 491.351 859.852 492.169C858.616 492.979 857.205 493.384 855.62 493.384C854.427 493.384 853.451 493.183 852.693 492.783C851.943 492.382 851.355 491.913 850.928 491.376C850.502 490.839 850.174 490.362 849.944 489.945H849.714V500.364H845.892ZM849.637 483.182C849.637 484.562 849.838 485.773 850.238 486.812C850.639 487.852 851.218 488.666 851.977 489.254C852.735 489.834 853.664 490.124 854.764 490.124C855.906 490.124 856.86 489.821 857.627 489.216C858.394 488.602 858.974 487.771 859.366 486.723C859.767 485.675 859.967 484.494 859.967 483.182C859.967 481.886 859.771 480.723 859.379 479.692C858.995 478.661 858.416 477.847 857.64 477.25C856.873 476.653 855.914 476.355 854.764 476.355C853.656 476.355 852.718 476.641 851.951 477.212C851.193 477.783 850.617 478.58 850.225 479.602C849.833 480.625 849.637 481.818 849.637 483.182ZM867.03 493V473.364H870.853V481.597H872.694L879.175 473.364H883.905L876.299 482.913L883.995 493H879.252L873.333 485.151H870.853V493H867.03ZM891.598 493.435C890.354 493.435 889.229 493.205 888.223 492.744C887.218 492.276 886.421 491.598 885.833 490.712C885.253 489.825 884.963 488.739 884.963 487.452C884.963 486.344 885.176 485.432 885.603 484.716C886.029 484 886.604 483.433 887.328 483.016C888.053 482.598 888.863 482.283 889.757 482.07C890.652 481.857 891.564 481.695 892.493 481.584C893.669 481.447 894.624 481.337 895.357 481.251C896.09 481.158 896.622 481.009 896.955 480.804C897.287 480.599 897.453 480.267 897.453 479.807V479.717C897.453 478.601 897.138 477.736 896.507 477.122C895.885 476.509 894.956 476.202 893.72 476.202C892.434 476.202 891.419 476.487 890.678 477.058C889.945 477.621 889.438 478.247 889.157 478.938L885.564 478.119C885.99 476.926 886.613 475.963 887.431 475.23C888.257 474.489 889.208 473.952 890.282 473.619C891.355 473.278 892.485 473.108 893.669 473.108C894.453 473.108 895.284 473.202 896.162 473.389C897.049 473.568 897.875 473.901 898.642 474.386C899.418 474.872 900.053 475.567 900.547 476.47C901.041 477.365 901.289 478.528 901.289 479.96V493H897.556V490.315H897.402C897.155 490.81 896.784 491.295 896.29 491.773C895.796 492.25 895.161 492.646 894.385 492.962C893.61 493.277 892.681 493.435 891.598 493.435ZM892.429 490.366C893.486 490.366 894.389 490.158 895.139 489.74C895.898 489.322 896.473 488.777 896.865 488.104C897.266 487.422 897.466 486.693 897.466 485.918V483.386C897.33 483.523 897.066 483.651 896.674 483.77C896.29 483.881 895.851 483.979 895.357 484.064C894.863 484.141 894.381 484.213 893.912 484.281C893.443 484.341 893.051 484.392 892.736 484.435C891.995 484.528 891.317 484.686 890.703 484.908C890.098 485.129 889.613 485.449 889.246 485.866C888.888 486.276 888.709 486.821 888.709 487.503C888.709 488.449 889.059 489.165 889.757 489.651C890.456 490.128 891.347 490.366 892.429 490.366Z" fill="white"/>
<path d="M362.573 352.818V379H358.75V352.818H362.573ZM375.098 379.396C373.163 379.396 371.497 378.983 370.099 378.156C368.71 377.321 367.636 376.149 366.878 374.641C366.128 373.124 365.753 371.347 365.753 369.31C365.753 367.298 366.128 365.526 366.878 363.991C367.636 362.457 368.693 361.26 370.048 360.399C371.412 359.538 373.006 359.108 374.83 359.108C375.938 359.108 377.011 359.291 378.051 359.658C379.091 360.024 380.024 360.599 380.851 361.384C381.678 362.168 382.33 363.186 382.807 364.439C383.284 365.683 383.523 367.196 383.523 368.977V370.332H367.913V367.469H379.777C379.777 366.463 379.572 365.572 379.163 364.797C378.754 364.013 378.179 363.395 377.438 362.943C376.705 362.491 375.844 362.266 374.855 362.266C373.781 362.266 372.844 362.53 372.043 363.058C371.25 363.578 370.636 364.26 370.202 365.104C369.776 365.939 369.563 366.847 369.563 367.827V370.064C369.563 371.376 369.793 372.493 370.253 373.413C370.722 374.334 371.374 375.037 372.209 375.523C373.044 376 374.02 376.239 375.136 376.239C375.861 376.239 376.521 376.136 377.118 375.932C377.715 375.719 378.23 375.403 378.665 374.986C379.099 374.568 379.432 374.053 379.662 373.439L383.28 374.091C382.99 375.156 382.47 376.089 381.72 376.891C380.979 377.683 380.046 378.301 378.921 378.744C377.804 379.179 376.53 379.396 375.098 379.396ZM392.398 379.435C391.154 379.435 390.029 379.205 389.023 378.744C388.018 378.276 387.221 377.598 386.633 376.712C386.053 375.825 385.763 374.739 385.763 373.452C385.763 372.344 385.977 371.432 386.403 370.716C386.829 370 387.404 369.433 388.129 369.016C388.853 368.598 389.663 368.283 390.557 368.07C391.452 367.857 392.364 367.695 393.293 367.584C394.469 367.447 395.424 367.337 396.157 367.251C396.89 367.158 397.423 367.009 397.755 366.804C398.087 366.599 398.254 366.267 398.254 365.807V365.717C398.254 364.601 397.938 363.736 397.307 363.122C396.685 362.509 395.756 362.202 394.521 362.202C393.234 362.202 392.219 362.487 391.478 363.058C390.745 363.621 390.238 364.247 389.957 364.938L386.364 364.119C386.79 362.926 387.413 361.963 388.231 361.23C389.057 360.489 390.008 359.952 391.082 359.619C392.155 359.278 393.285 359.108 394.469 359.108C395.254 359.108 396.084 359.202 396.962 359.389C397.849 359.568 398.675 359.901 399.442 360.386C400.218 360.872 400.853 361.567 401.347 362.47C401.842 363.365 402.089 364.528 402.089 365.96V379H398.356V376.315H398.202C397.955 376.81 397.584 377.295 397.09 377.773C396.596 378.25 395.961 378.646 395.185 378.962C394.41 379.277 393.481 379.435 392.398 379.435ZM393.229 376.366C394.286 376.366 395.19 376.158 395.94 375.74C396.698 375.322 397.273 374.777 397.665 374.104C398.066 373.422 398.266 372.693 398.266 371.918V369.386C398.13 369.523 397.866 369.651 397.474 369.77C397.09 369.881 396.651 369.979 396.157 370.064C395.663 370.141 395.181 370.213 394.712 370.281C394.244 370.341 393.852 370.392 393.536 370.435C392.795 370.528 392.117 370.686 391.504 370.908C390.898 371.129 390.413 371.449 390.046 371.866C389.688 372.276 389.509 372.821 389.509 373.503C389.509 374.449 389.859 375.165 390.557 375.651C391.256 376.128 392.147 376.366 393.229 376.366ZM415.445 359.364V362.432H404.349V359.364H415.445ZM407.391 379V357.088C407.391 355.861 407.66 354.842 408.197 354.033C408.734 353.214 409.445 352.605 410.332 352.205C411.218 351.795 412.181 351.591 413.221 351.591C413.988 351.591 414.644 351.655 415.189 351.783C415.735 351.902 416.14 352.013 416.404 352.115L415.509 355.209C415.33 355.158 415.1 355.098 414.819 355.03C414.537 354.953 414.197 354.915 413.796 354.915C412.867 354.915 412.202 355.145 411.802 355.605C411.41 356.065 411.214 356.73 411.214 357.599V379H407.391Z" fill="black"/>
<path d="M220.457 235.341V247H216.635V220.818H220.406V230.56H220.649C221.109 229.503 221.812 228.663 222.758 228.041C223.705 227.419 224.94 227.108 226.466 227.108C227.812 227.108 228.989 227.385 229.994 227.939C231.008 228.493 231.793 229.32 232.347 230.419C232.909 231.51 233.19 232.874 233.19 234.51V247H229.368V234.97C229.368 233.53 228.997 232.413 228.256 231.621C227.514 230.82 226.483 230.419 225.162 230.419C224.258 230.419 223.449 230.611 222.733 230.994C222.026 231.378 221.467 231.94 221.058 232.682C220.658 233.415 220.457 234.301 220.457 235.341ZM242.926 247.435C241.681 247.435 240.556 247.205 239.551 246.744C238.545 246.276 237.748 245.598 237.16 244.712C236.58 243.825 236.291 242.739 236.291 241.452C236.291 240.344 236.504 239.432 236.93 238.716C237.356 238 237.931 237.433 238.656 237.016C239.38 236.598 240.19 236.283 241.085 236.07C241.98 235.857 242.892 235.695 243.821 235.584C244.997 235.447 245.951 235.337 246.684 235.251C247.417 235.158 247.95 235.009 248.282 234.804C248.615 234.599 248.781 234.267 248.781 233.807V233.717C248.781 232.601 248.465 231.736 247.835 231.122C247.213 230.509 246.284 230.202 245.048 230.202C243.761 230.202 242.747 230.487 242.005 231.058C241.272 231.621 240.765 232.247 240.484 232.938L236.892 232.119C237.318 230.926 237.94 229.963 238.758 229.23C239.585 228.489 240.535 227.952 241.609 227.619C242.683 227.278 243.812 227.108 244.997 227.108C245.781 227.108 246.612 227.202 247.49 227.389C248.376 227.568 249.203 227.901 249.97 228.386C250.745 228.872 251.38 229.567 251.875 230.47C252.369 231.365 252.616 232.528 252.616 233.96V247H248.883V244.315H248.73C248.482 244.81 248.112 245.295 247.617 245.773C247.123 246.25 246.488 246.646 245.713 246.962C244.937 247.277 244.008 247.435 242.926 247.435ZM243.757 244.366C244.813 244.366 245.717 244.158 246.467 243.74C247.225 243.322 247.801 242.777 248.193 242.104C248.593 241.422 248.794 240.693 248.794 239.918V237.386C248.657 237.523 248.393 237.651 248.001 237.77C247.617 237.881 247.178 237.979 246.684 238.064C246.19 238.141 245.708 238.213 245.24 238.281C244.771 238.341 244.379 238.392 244.063 238.435C243.322 238.528 242.644 238.686 242.031 238.908C241.426 239.129 240.94 239.449 240.573 239.866C240.215 240.276 240.036 240.821 240.036 241.503C240.036 242.449 240.386 243.165 241.085 243.651C241.784 244.128 242.674 244.366 243.757 244.366ZM271.342 232.158L267.877 232.771C267.732 232.328 267.502 231.906 267.187 231.506C266.88 231.105 266.462 230.777 265.934 230.521C265.406 230.266 264.745 230.138 263.953 230.138C262.87 230.138 261.967 230.381 261.242 230.866C260.518 231.344 260.156 231.962 260.156 232.72C260.156 233.376 260.399 233.905 260.884 234.305C261.37 234.706 262.154 235.034 263.237 235.29L266.356 236.006C268.163 236.423 269.509 237.067 270.396 237.936C271.282 238.805 271.725 239.935 271.725 241.324C271.725 242.5 271.384 243.548 270.703 244.469C270.029 245.381 269.087 246.097 267.877 246.616C266.676 247.136 265.282 247.396 263.697 247.396C261.498 247.396 259.704 246.928 258.315 245.99C256.926 245.044 256.073 243.702 255.758 241.963L259.453 241.401C259.683 242.364 260.156 243.092 260.872 243.587C261.587 244.072 262.521 244.315 263.671 244.315C264.924 244.315 265.926 244.055 266.676 243.536C267.426 243.007 267.801 242.364 267.801 241.605C267.801 240.991 267.57 240.476 267.11 240.058C266.659 239.641 265.964 239.325 265.026 239.112L261.703 238.384C259.87 237.966 258.515 237.301 257.637 236.389C256.768 235.477 256.333 234.322 256.333 232.925C256.333 231.766 256.657 230.751 257.305 229.882C257.953 229.013 258.847 228.335 259.989 227.849C261.132 227.355 262.44 227.108 263.914 227.108C266.036 227.108 267.707 227.568 268.926 228.489C270.144 229.401 270.95 230.624 271.342 232.158ZM278.67 235.341V247H274.848V220.818H278.619V230.56H278.862C279.322 229.503 280.026 228.663 280.972 228.041C281.918 227.419 283.153 227.108 284.679 227.108C286.026 227.108 287.202 227.385 288.207 227.939C289.222 228.493 290.006 229.32 290.56 230.419C291.122 231.51 291.403 232.874 291.403 234.51V247H287.581V234.97C287.581 233.53 287.21 232.413 286.469 231.621C285.727 230.82 284.696 230.419 283.375 230.419C282.472 230.419 281.662 230.611 280.946 230.994C280.239 231.378 279.68 231.94 279.271 232.682C278.871 233.415 278.67 234.301 278.67 235.341Z" fill="black"/>
<path d="M449.311 112V92.3636H454.591V95.7898H454.795C455.153 94.571 455.754 93.6506 456.598 93.0284C457.442 92.3977 458.413 92.0824 459.513 92.0824C459.785 92.0824 460.079 92.0994 460.395 92.1335C460.71 92.1676 460.987 92.2145 461.226 92.2741V97.1065C460.97 97.0298 460.616 96.9616 460.165 96.902C459.713 96.8423 459.3 96.8125 458.925 96.8125C458.123 96.8125 457.407 96.9872 456.777 97.3366C456.155 97.6776 455.66 98.1548 455.294 98.7685C454.936 99.3821 454.757 100.089 454.757 100.891V112H449.311ZM470.919 112.384C468.934 112.384 467.216 111.962 465.767 111.118C464.327 110.266 463.215 109.081 462.431 107.564C461.647 106.038 461.255 104.27 461.255 102.259C461.255 100.23 461.647 98.4574 462.431 96.9403C463.215 95.4148 464.327 94.2301 465.767 93.3864C467.216 92.5341 468.934 92.108 470.919 92.108C472.905 92.108 474.618 92.5341 476.059 93.3864C477.508 94.2301 478.624 95.4148 479.408 96.9403C480.192 98.4574 480.584 100.23 480.584 102.259C480.584 104.27 480.192 106.038 479.408 107.564C478.624 109.081 477.508 110.266 476.059 111.118C474.618 111.962 472.905 112.384 470.919 112.384ZM470.945 108.165C471.848 108.165 472.603 107.909 473.208 107.398C473.813 106.878 474.269 106.17 474.576 105.276C474.891 104.381 475.049 103.362 475.049 102.22C475.049 101.078 474.891 100.06 474.576 99.1648C474.269 98.2699 473.813 97.5625 473.208 97.0426C472.603 96.5227 471.848 96.2628 470.945 96.2628C470.033 96.2628 469.266 96.5227 468.644 97.0426C468.03 97.5625 467.566 98.2699 467.25 99.1648C466.944 100.06 466.79 101.078 466.79 102.22C466.79 103.362 466.944 104.381 467.25 105.276C467.566 106.17 468.03 106.878 468.644 107.398C469.266 107.909 470.033 108.165 470.945 108.165ZM491.918 112.384C489.932 112.384 488.214 111.962 486.766 111.118C485.325 110.266 484.213 109.081 483.429 107.564C482.645 106.038 482.253 104.27 482.253 102.259C482.253 100.23 482.645 98.4574 483.429 96.9403C484.213 95.4148 485.325 94.2301 486.766 93.3864C488.214 92.5341 489.932 92.108 491.918 92.108C493.903 92.108 495.616 92.5341 497.057 93.3864C498.506 94.2301 499.622 95.4148 500.406 96.9403C501.19 98.4574 501.582 100.23 501.582 102.259C501.582 104.27 501.19 106.038 500.406 107.564C499.622 109.081 498.506 110.266 497.057 111.118C495.616 111.962 493.903 112.384 491.918 112.384ZM491.943 108.165C492.847 108.165 493.601 107.909 494.206 107.398C494.811 106.878 495.267 106.17 495.574 105.276C495.889 104.381 496.047 103.362 496.047 102.22C496.047 101.078 495.889 100.06 495.574 99.1648C495.267 98.2699 494.811 97.5625 494.206 97.0426C493.601 96.5227 492.847 96.2628 491.943 96.2628C491.031 96.2628 490.264 96.5227 489.642 97.0426C489.028 97.5625 488.564 98.2699 488.249 99.1648C487.942 100.06 487.788 101.078 487.788 102.22C487.788 103.362 487.942 104.381 488.249 105.276C488.564 106.17 489.028 106.878 489.642 107.398C490.264 107.909 491.031 108.165 491.943 108.165ZM514.488 92.3636V96.4545H502.663V92.3636H514.488ZM505.348 87.6591H510.794V105.966C510.794 106.469 510.87 106.861 511.024 107.142C511.177 107.415 511.39 107.607 511.663 107.717C511.944 107.828 512.268 107.884 512.634 107.884C512.89 107.884 513.146 107.862 513.401 107.82C513.657 107.768 513.853 107.73 513.99 107.705L514.846 111.757C514.573 111.842 514.19 111.94 513.696 112.051C513.201 112.17 512.6 112.243 511.893 112.268C510.58 112.32 509.43 112.145 508.441 111.744C507.461 111.344 506.698 110.722 506.153 109.878C505.607 109.034 505.339 107.969 505.348 106.682V87.6591Z" fill="black"/>
<path d="M98.5726 352.818V379H94.7502V352.818H98.5726ZM111.098 379.396C109.163 379.396 107.497 378.983 106.099 378.156C104.71 377.321 103.636 376.149 102.878 374.641C102.128 373.124 101.753 371.347 101.753 369.31C101.753 367.298 102.128 365.526 102.878 363.991C103.636 362.457 104.693 361.26 106.048 360.399C107.412 359.538 109.006 359.108 110.83 359.108C111.938 359.108 113.011 359.291 114.051 359.658C115.091 360.024 116.024 360.599 116.851 361.384C117.678 362.168 118.33 363.186 118.807 364.439C119.284 365.683 119.523 367.196 119.523 368.977V370.332H103.913V367.469H115.777C115.777 366.463 115.572 365.572 115.163 364.797C114.754 364.013 114.179 363.395 113.438 362.943C112.705 362.491 111.844 362.266 110.855 362.266C109.781 362.266 108.844 362.53 108.043 363.058C107.25 363.578 106.636 364.26 106.202 365.104C105.776 365.939 105.563 366.847 105.563 367.827V370.064C105.563 371.376 105.793 372.493 106.253 373.413C106.722 374.334 107.374 375.037 108.209 375.523C109.044 376 110.02 376.239 111.136 376.239C111.861 376.239 112.521 376.136 113.118 375.932C113.715 375.719 114.23 375.403 114.665 374.986C115.099 374.568 115.432 374.053 115.662 373.439L119.28 374.091C118.99 375.156 118.47 376.089 117.72 376.891C116.979 377.683 116.046 378.301 114.921 378.744C113.804 379.179 112.53 379.396 111.098 379.396ZM128.398 379.435C127.154 379.435 126.029 379.205 125.023 378.744C124.018 378.276 123.221 377.598 122.633 376.712C122.053 375.825 121.763 374.739 121.763 373.452C121.763 372.344 121.977 371.432 122.403 370.716C122.829 370 123.404 369.433 124.129 369.016C124.853 368.598 125.663 368.283 126.557 368.07C127.452 367.857 128.364 367.695 129.293 367.584C130.469 367.447 131.424 367.337 132.157 367.251C132.89 367.158 133.423 367.009 133.755 366.804C134.087 366.599 134.254 366.267 134.254 365.807V365.717C134.254 364.601 133.938 363.736 133.307 363.122C132.685 362.509 131.756 362.202 130.521 362.202C129.234 362.202 128.219 362.487 127.478 363.058C126.745 363.621 126.238 364.247 125.957 364.938L122.364 364.119C122.79 362.926 123.413 361.963 124.231 361.23C125.057 360.489 126.008 359.952 127.082 359.619C128.155 359.278 129.285 359.108 130.469 359.108C131.254 359.108 132.084 359.202 132.962 359.389C133.849 359.568 134.675 359.901 135.442 360.386C136.218 360.872 136.853 361.567 137.347 362.47C137.842 363.365 138.089 364.528 138.089 365.96V379H134.356V376.315H134.202C133.955 376.81 133.584 377.295 133.09 377.773C132.596 378.25 131.961 378.646 131.185 378.962C130.41 379.277 129.481 379.435 128.398 379.435ZM129.229 376.366C130.286 376.366 131.19 376.158 131.94 375.74C132.698 375.322 133.273 374.777 133.665 374.104C134.066 373.422 134.266 372.693 134.266 371.918V369.386C134.13 369.523 133.866 369.651 133.474 369.77C133.09 369.881 132.651 369.979 132.157 370.064C131.663 370.141 131.181 370.213 130.712 370.281C130.244 370.341 129.852 370.392 129.536 370.435C128.795 370.528 128.117 370.686 127.504 370.908C126.898 371.129 126.413 371.449 126.046 371.866C125.688 372.276 125.509 372.821 125.509 373.503C125.509 374.449 125.859 375.165 126.557 375.651C127.256 376.128 128.147 376.366 129.229 376.366ZM151.445 359.364V362.432H140.349V359.364H151.445ZM143.391 379V357.088C143.391 355.861 143.66 354.842 144.197 354.033C144.734 353.214 145.445 352.605 146.332 352.205C147.218 351.795 148.181 351.591 149.221 351.591C149.988 351.591 150.644 351.655 151.189 351.783C151.735 351.902 152.14 352.013 152.404 352.115L151.509 355.209C151.33 355.158 151.1 355.098 150.819 355.03C150.537 354.953 150.197 354.915 149.796 354.915C148.867 354.915 148.202 355.145 147.802 355.605C147.41 356.065 147.214 356.73 147.214 357.599V379H143.391Z" fill="black"/>
<line x1="575.464" y1="362.464" x2="707.464" y2="230.464" stroke="#FFCD17" stroke-opacity="0.66" stroke-width="10"/>
<line y1="-5" x2="186.676" y2="-5" transform="matrix(-0.707107 -0.707107 -0.707107 0.707107 840 366)" stroke="#FFCD17" stroke-opacity="0.66" stroke-width="10"/>
<circle cx="708" cy="234" r="66" fill="#FFCD17"/>
<circle cx="840" cy="366" r="66" fill="#FFCD17"/>
<circle cx="576" cy="366" r="66" fill="#FFCD17"/>
<path d="M816.573 352.818V379H812.75V352.818H816.573ZM829.098 379.396C827.163 379.396 825.497 378.983 824.099 378.156C822.71 377.321 821.636 376.149 820.878 374.641C820.128 373.124 819.753 371.347 819.753 369.31C819.753 367.298 820.128 365.526 820.878 363.991C821.636 362.457 822.693 361.26 824.048 360.399C825.412 359.538 827.006 359.108 828.83 359.108C829.938 359.108 831.011 359.291 832.051 359.658C833.091 360.024 834.024 360.599 834.851 361.384C835.678 362.168 836.33 363.186 836.807 364.439C837.284 365.683 837.523 367.196 837.523 368.977V370.332H821.913V367.469H833.777C833.777 366.463 833.572 365.572 833.163 364.797C832.754 364.013 832.179 363.395 831.438 362.943C830.705 362.491 829.844 362.266 828.855 362.266C827.781 362.266 826.844 362.53 826.043 363.058C825.25 363.578 824.636 364.26 824.202 365.104C823.776 365.939 823.563 366.847 823.563 367.827V370.064C823.563 371.376 823.793 372.493 824.253 373.413C824.722 374.334 825.374 375.037 826.209 375.523C827.044 376 828.02 376.239 829.136 376.239C829.861 376.239 830.521 376.136 831.118 375.932C831.715 375.719 832.23 375.403 832.665 374.986C833.099 374.568 833.432 374.053 833.662 373.439L837.28 374.091C836.99 375.156 836.47 376.089 835.72 376.891C834.979 377.683 834.046 378.301 832.921 378.744C831.804 379.179 830.53 379.396 829.098 379.396ZM846.398 379.435C845.154 379.435 844.029 379.205 843.023 378.744C842.018 378.276 841.221 377.598 840.633 376.712C840.053 375.825 839.763 374.739 839.763 373.452C839.763 372.344 839.977 371.432 840.403 370.716C840.829 370 841.404 369.433 842.129 369.016C842.853 368.598 843.663 368.283 844.557 368.07C845.452 367.857 846.364 367.695 847.293 367.584C848.469 367.447 849.424 367.337 850.157 367.251C850.89 367.158 851.423 367.009 851.755 366.804C852.087 366.599 852.254 366.267 852.254 365.807V365.717C852.254 364.601 851.938 363.736 851.307 363.122C850.685 362.509 849.756 362.202 848.521 362.202C847.234 362.202 846.219 362.487 845.478 363.058C844.745 363.621 844.238 364.247 843.957 364.938L840.364 364.119C840.79 362.926 841.413 361.963 842.231 361.23C843.057 360.489 844.008 359.952 845.082 359.619C846.155 359.278 847.285 359.108 848.469 359.108C849.254 359.108 850.084 359.202 850.962 359.389C851.849 359.568 852.675 359.901 853.442 360.386C854.218 360.872 854.853 361.567 855.347 362.47C855.842 363.365 856.089 364.528 856.089 365.96V379H852.356V376.315H852.202C851.955 376.81 851.584 377.295 851.09 377.773C850.596 378.25 849.961 378.646 849.185 378.962C848.41 379.277 847.481 379.435 846.398 379.435ZM847.229 376.366C848.286 376.366 849.19 376.158 849.94 375.74C850.698 375.322 851.273 374.777 851.665 374.104C852.066 373.422 852.266 372.693 852.266 371.918V369.386C852.13 369.523 851.866 369.651 851.474 369.77C851.09 369.881 850.651 369.979 850.157 370.064C849.663 370.141 849.181 370.213 848.712 370.281C848.244 370.341 847.852 370.392 847.536 370.435C846.795 370.528 846.117 370.686 845.504 370.908C844.898 371.129 844.413 371.449 844.046 371.866C843.688 372.276 843.509 372.821 843.509 373.503C843.509 374.449 843.859 375.165 844.557 375.651C845.256 376.128 846.147 376.366 847.229 376.366ZM869.445 359.364V362.432H858.349V359.364H869.445ZM861.391 379V357.088C861.391 355.861 861.66 354.842 862.197 354.033C862.734 353.214 863.445 352.605 864.332 352.205C865.218 351.795 866.181 351.591 867.221 351.591C867.988 351.591 868.644 351.655 869.189 351.783C869.735 351.902 870.14 352.013 870.404 352.115L869.509 355.209C869.33 355.158 869.1 355.098 868.819 355.03C868.537 354.953 868.197 354.915 867.796 354.915C866.867 354.915 866.202 355.145 865.802 355.605C865.41 356.065 865.214 356.73 865.214 357.599V379H861.391Z" fill="black"/>
<path d="M674.457 235.341V247H670.635V220.818H674.406V230.56H674.649C675.109 229.503 675.812 228.663 676.758 228.041C677.705 227.419 678.94 227.108 680.466 227.108C681.812 227.108 682.989 227.385 683.994 227.939C685.008 228.493 685.793 229.32 686.347 230.419C686.909 231.51 687.19 232.874 687.19 234.51V247H683.368V234.97C683.368 233.53 682.997 232.413 682.256 231.621C681.514 230.82 680.483 230.419 679.162 230.419C678.258 230.419 677.449 230.611 676.733 230.994C676.026 231.378 675.467 231.94 675.058 232.682C674.658 233.415 674.457 234.301 674.457 235.341ZM696.926 247.435C695.681 247.435 694.556 247.205 693.551 246.744C692.545 246.276 691.748 245.598 691.16 244.712C690.58 243.825 690.291 242.739 690.291 241.452C690.291 240.344 690.504 239.432 690.93 238.716C691.356 238 691.931 237.433 692.656 237.016C693.38 236.598 694.19 236.283 695.085 236.07C695.98 235.857 696.892 235.695 697.821 235.584C698.997 235.447 699.951 235.337 700.684 235.251C701.417 235.158 701.95 235.009 702.282 234.804C702.615 234.599 702.781 234.267 702.781 233.807V233.717C702.781 232.601 702.465 231.736 701.835 231.122C701.213 230.509 700.284 230.202 699.048 230.202C697.761 230.202 696.747 230.487 696.005 231.058C695.272 231.621 694.765 232.247 694.484 232.938L690.892 232.119C691.318 230.926 691.94 229.963 692.758 229.23C693.585 228.489 694.535 227.952 695.609 227.619C696.683 227.278 697.812 227.108 698.997 227.108C699.781 227.108 700.612 227.202 701.49 227.389C702.376 227.568 703.203 227.901 703.97 228.386C704.745 228.872 705.38 229.567 705.875 230.47C706.369 231.365 706.616 232.528 706.616 233.96V247H702.883V244.315H702.73C702.482 244.81 702.112 245.295 701.617 245.773C701.123 246.25 700.488 246.646 699.713 246.962C698.937 247.277 698.008 247.435 696.926 247.435ZM697.757 244.366C698.813 244.366 699.717 244.158 700.467 243.74C701.225 243.322 701.801 242.777 702.193 242.104C702.593 241.422 702.794 240.693 702.794 239.918V237.386C702.657 237.523 702.393 237.651 702.001 237.77C701.617 237.881 701.178 237.979 700.684 238.064C700.19 238.141 699.708 238.213 699.24 238.281C698.771 238.341 698.379 238.392 698.063 238.435C697.322 238.528 696.644 238.686 696.031 238.908C695.426 239.129 694.94 239.449 694.573 239.866C694.215 240.276 694.036 240.821 694.036 241.503C694.036 242.449 694.386 243.165 695.085 243.651C695.784 244.128 696.674 244.366 697.757 244.366ZM725.342 232.158L721.877 232.771C721.732 232.328 721.502 231.906 721.187 231.506C720.88 231.105 720.462 230.777 719.934 230.521C719.406 230.266 718.745 230.138 717.953 230.138C716.87 230.138 715.967 230.381 715.242 230.866C714.518 231.344 714.156 231.962 714.156 232.72C714.156 233.376 714.399 233.905 714.884 234.305C715.37 234.706 716.154 235.034 717.237 235.29L720.356 236.006C722.163 236.423 723.509 237.067 724.396 237.936C725.282 238.805 725.725 239.935 725.725 241.324C725.725 242.5 725.384 243.548 724.703 244.469C724.029 245.381 723.087 246.097 721.877 246.616C720.676 247.136 719.282 247.396 717.697 247.396C715.498 247.396 713.704 246.928 712.315 245.99C710.926 245.044 710.073 243.702 709.758 241.963L713.453 241.401C713.683 242.364 714.156 243.092 714.872 243.587C715.587 244.072 716.521 244.315 717.671 244.315C718.924 244.315 719.926 244.055 720.676 243.536C721.426 243.007 721.801 242.364 721.801 241.605C721.801 240.991 721.57 240.476 721.11 240.058C720.659 239.641 719.964 239.325 719.026 239.112L715.703 238.384C713.87 237.966 712.515 237.301 711.637 236.389C710.768 235.477 710.333 234.322 710.333 232.925C710.333 231.766 710.657 230.751 711.305 229.882C711.953 229.013 712.847 228.335 713.989 227.849C715.132 227.355 716.44 227.108 717.914 227.108C720.036 227.108 721.707 227.568 722.926 228.489C724.144 229.401 724.95 230.624 725.342 232.158ZM732.67 235.341V247H728.848V220.818H732.619V230.56H732.862C733.322 229.503 734.026 228.663 734.972 228.041C735.918 227.419 737.153 227.108 738.679 227.108C740.026 227.108 741.202 227.385 742.207 227.939C743.222 228.493 744.006 229.32 744.56 230.419C745.122 231.51 745.403 232.874 745.403 234.51V247H741.581V234.97C741.581 233.53 741.21 232.413 740.469 231.621C739.727 230.82 738.696 230.419 737.375 230.419C736.472 230.419 735.662 230.611 734.946 230.994C734.239 231.378 733.68 231.94 733.271 232.682C732.871 233.415 732.67 234.301 732.67 235.341Z" fill="black"/>
<path d="M552.573 352.818V379H548.75V352.818H552.573ZM565.098 379.396C563.163 379.396 561.497 378.983 560.099 378.156C558.71 377.321 557.636 376.149 556.878 374.641C556.128 373.124 555.753 371.347 555.753 369.31C555.753 367.298 556.128 365.526 556.878 363.991C557.636 362.457 558.693 361.26 560.048 360.399C561.412 359.538 563.006 359.108 564.83 359.108C565.938 359.108 567.011 359.291 568.051 359.658C569.091 360.024 570.024 360.599 570.851 361.384C571.678 362.168 572.33 363.186 572.807 364.439C573.284 365.683 573.523 367.196 573.523 368.977V370.332H557.913V367.469H569.777C569.777 366.463 569.572 365.572 569.163 364.797C568.754 364.013 568.179 363.395 567.438 362.943C566.705 362.491 565.844 362.266 564.855 362.266C563.781 362.266 562.844 362.53 562.043 363.058C561.25 363.578 560.636 364.26 560.202 365.104C559.776 365.939 559.563 366.847 559.563 367.827V370.064C559.563 371.376 559.793 372.493 560.253 373.413C560.722 374.334 561.374 375.037 562.209 375.523C563.044 376 564.02 376.239 565.136 376.239C565.861 376.239 566.521 376.136 567.118 375.932C567.715 375.719 568.23 375.403 568.665 374.986C569.099 374.568 569.432 374.053 569.662 373.439L573.28 374.091C572.99 375.156 572.47 376.089 571.72 376.891C570.979 377.683 570.046 378.301 568.921 378.744C567.804 379.179 566.53 379.396 565.098 379.396ZM582.398 379.435C581.154 379.435 580.029 379.205 579.023 378.744C578.018 378.276 577.221 377.598 576.633 376.712C576.053 375.825 575.763 374.739 575.763 373.452C575.763 372.344 575.977 371.432 576.403 370.716C576.829 370 577.404 369.433 578.129 369.016C578.853 368.598 579.663 368.283 580.557 368.07C581.452 367.857 582.364 367.695 583.293 367.584C584.469 367.447 585.424 367.337 586.157 367.251C586.89 367.158 587.423 367.009 587.755 366.804C588.087 366.599 588.254 366.267 588.254 365.807V365.717C588.254 364.601 587.938 363.736 587.307 363.122C586.685 362.509 585.756 362.202 584.521 362.202C583.234 362.202 582.219 362.487 581.478 363.058C580.745 363.621 580.238 364.247 579.957 364.938L576.364 364.119C576.79 362.926 577.413 361.963 578.231 361.23C579.057 360.489 580.008 359.952 581.082 359.619C582.155 359.278 583.285 359.108 584.469 359.108C585.254 359.108 586.084 359.202 586.962 359.389C587.849 359.568 588.675 359.901 589.442 360.386C590.218 360.872 590.853 361.567 591.347 362.47C591.842 363.365 592.089 364.528 592.089 365.96V379H588.356V376.315H588.202C587.955 376.81 587.584 377.295 587.09 377.773C586.596 378.25 585.961 378.646 585.185 378.962C584.41 379.277 583.481 379.435 582.398 379.435ZM583.229 376.366C584.286 376.366 585.19 376.158 585.94 375.74C586.698 375.322 587.273 374.777 587.665 374.104C588.066 373.422 588.266 372.693 588.266 371.918V369.386C588.13 369.523 587.866 369.651 587.474 369.77C587.09 369.881 586.651 369.979 586.157 370.064C585.663 370.141 585.181 370.213 584.712 370.281C584.244 370.341 583.852 370.392 583.536 370.435C582.795 370.528 582.117 370.686 581.504 370.908C580.898 371.129 580.413 371.449 580.046 371.866C579.688 372.276 579.509 372.821 579.509 373.503C579.509 374.449 579.859 375.165 580.557 375.651C581.256 376.128 582.147 376.366 583.229 376.366ZM605.445 359.364V362.432H594.349V359.364H605.445ZM597.391 379V357.088C597.391 355.861 597.66 354.842 598.197 354.033C598.734 353.214 599.445 352.605 600.332 352.205C601.218 351.795 602.181 351.591 603.221 351.591C603.988 351.591 604.644 351.655 605.189 351.783C605.735 351.902 606.14 352.013 606.404 352.115L605.509 355.209C605.33 355.158 605.1 355.098 604.819 355.03C604.537 354.953 604.197 354.915 603.796 354.915C602.867 354.915 602.202 355.145 601.802 355.605C601.41 356.065 601.214 356.73 601.214 357.599V379H597.391Z" fill="black"/>
</g>
<defs>
<clipPath id="clip0_46_26">
<rect width="964" height="525" fill="white"/>
</clipPath>
</defs>
</svg>
