<svg width="964" height="525" viewBox="0 0 964 525" fill="none" xmlns="http://www.w3.org/2000/svg">
<g clip-path="url(#clip0_46_107)">
<rect width="964" height="525" rx="45" fill="#FFF5D1"/>
<rect x="221" y="238" width="522" height="15" fill="#7A7A7A" fill-opacity="0.36"/>
<path d="M234.037 421L228.173 413.176H226.315V421H223.682V403.545H226.315V410.918H227.176L233.772 403.545H236.986L230.005 411.361L237.25 421H234.037ZM242.574 421.29C241.745 421.29 240.995 421.136 240.324 420.83C239.654 420.517 239.123 420.065 238.731 419.474C238.344 418.884 238.151 418.159 238.151 417.301C238.151 416.562 238.293 415.955 238.577 415.477C238.861 415 239.245 414.622 239.728 414.344C240.211 414.065 240.751 413.855 241.347 413.713C241.944 413.571 242.552 413.463 243.171 413.389C243.955 413.298 244.592 413.224 245.08 413.168C245.569 413.105 245.924 413.006 246.145 412.869C246.367 412.733 246.478 412.511 246.478 412.205V412.145C246.478 411.401 246.268 410.824 245.847 410.415C245.432 410.006 244.813 409.801 243.989 409.801C243.131 409.801 242.455 409.991 241.961 410.372C241.472 410.747 241.134 411.165 240.947 411.625L238.552 411.08C238.836 410.284 239.251 409.642 239.796 409.153C240.347 408.659 240.981 408.301 241.697 408.08C242.413 407.852 243.165 407.739 243.955 407.739C244.478 407.739 245.032 407.801 245.617 407.926C246.208 408.045 246.759 408.267 247.27 408.591C247.788 408.915 248.211 409.378 248.54 409.98C248.87 410.577 249.035 411.352 249.035 412.307V421H246.546V419.21H246.444C246.279 419.54 246.032 419.864 245.702 420.182C245.373 420.5 244.949 420.764 244.432 420.974C243.915 421.185 243.296 421.29 242.574 421.29ZM243.128 419.244C243.833 419.244 244.435 419.105 244.935 418.827C245.441 418.548 245.824 418.185 246.086 417.736C246.353 417.281 246.486 416.795 246.486 416.278V414.591C246.395 414.682 246.219 414.767 245.958 414.847C245.702 414.92 245.41 414.986 245.08 415.043C244.751 415.094 244.43 415.142 244.117 415.188C243.805 415.227 243.543 415.261 243.333 415.29C242.839 415.352 242.387 415.457 241.978 415.605C241.574 415.753 241.251 415.966 241.006 416.244C240.768 416.517 240.648 416.881 240.648 417.335C240.648 417.966 240.881 418.443 241.347 418.767C241.813 419.085 242.407 419.244 243.128 419.244ZM250.874 421L255.945 414.301L250.933 407.909H253.899L257.947 413.347H258.859V407.909H261.408V413.347H262.294L266.342 407.909H269.308L264.322 414.301L269.368 421H266.342L262.26 415.545H261.408V421H258.859V415.545H258.007L253.899 421H250.874ZM269.96 424.776V418.793H271.026C271.299 418.543 271.529 418.244 271.716 417.898C271.909 417.551 272.071 417.139 272.202 416.662C272.338 416.185 272.452 415.628 272.543 414.991C272.634 414.349 272.713 413.616 272.781 412.793L273.191 407.909H282.088V418.793H284.1V424.776H281.611V421H272.483V424.776H269.96ZM273.753 418.793H279.6V410.091H275.475L275.202 412.793C275.071 414.168 274.906 415.361 274.708 416.372C274.509 417.378 274.191 418.185 273.753 418.793ZM287.788 412.409H291.589C293.191 412.409 294.424 412.807 295.288 413.602C296.152 414.398 296.583 415.423 296.583 416.679C296.583 417.497 296.39 418.233 296.004 418.886C295.618 419.54 295.052 420.057 294.308 420.438C293.564 420.812 292.657 421 291.589 421H285.87V407.909H288.368V418.801H291.589C292.322 418.801 292.924 418.611 293.396 418.23C293.868 417.844 294.103 417.352 294.103 416.756C294.103 416.125 293.868 415.611 293.396 415.213C292.924 414.81 292.322 414.608 291.589 414.608H287.788V412.409ZM298.441 421V407.909H300.99V421H298.441ZM306.187 417.429L311.957 407.909H314.701V421H312.204V411.472L306.459 421H303.689V407.909H306.187V417.429ZM310.866 403.477H312.962C312.962 404.437 312.621 405.219 311.939 405.821C311.263 406.418 310.349 406.716 309.195 406.716C308.047 406.716 307.136 406.418 306.459 405.821C305.783 405.219 305.445 404.437 305.445 403.477H307.533C307.533 403.903 307.658 404.281 307.908 404.611C308.158 404.935 308.587 405.097 309.195 405.097C309.792 405.097 310.218 404.935 310.474 404.611C310.735 404.287 310.866 403.909 310.866 403.477ZM323.039 407.909H325.536V418.793H330.061V407.909H332.558V418.793H337.084V407.909H339.581V421H323.039V407.909ZM346.074 421.29C345.244 421.29 344.494 421.136 343.824 420.83C343.153 420.517 342.622 420.065 342.23 419.474C341.843 418.884 341.65 418.159 341.65 417.301C341.65 416.562 341.792 415.955 342.076 415.477C342.36 415 342.744 414.622 343.227 414.344C343.71 414.065 344.25 413.855 344.846 413.713C345.443 413.571 346.051 413.463 346.67 413.389C347.454 413.298 348.091 413.224 348.579 413.168C349.068 413.105 349.423 413.006 349.645 412.869C349.866 412.733 349.977 412.511 349.977 412.205V412.145C349.977 411.401 349.767 410.824 349.346 410.415C348.931 410.006 348.312 409.801 347.488 409.801C346.63 409.801 345.954 409.991 345.46 410.372C344.971 410.747 344.633 411.165 344.446 411.625L342.051 411.08C342.335 410.284 342.75 409.642 343.295 409.153C343.846 408.659 344.48 408.301 345.196 408.08C345.912 407.852 346.664 407.739 347.454 407.739C347.977 407.739 348.531 407.801 349.116 407.926C349.707 408.045 350.258 408.267 350.77 408.591C351.287 408.915 351.71 409.378 352.039 409.98C352.369 410.577 352.534 411.352 352.534 412.307V421H350.045V419.21H349.943C349.778 419.54 349.531 419.864 349.201 420.182C348.872 420.5 348.449 420.764 347.931 420.974C347.414 421.185 346.795 421.29 346.074 421.29ZM346.627 419.244C347.332 419.244 347.934 419.105 348.434 418.827C348.94 418.548 349.324 418.185 349.585 417.736C349.852 417.281 349.985 416.795 349.985 416.278V414.591C349.895 414.682 349.718 414.767 349.457 414.847C349.201 414.92 348.909 414.986 348.579 415.043C348.25 415.094 347.929 415.142 347.616 415.188C347.304 415.227 347.042 415.261 346.832 415.29C346.338 415.352 345.886 415.457 345.477 415.605C345.074 415.753 344.75 415.966 344.505 416.244C344.267 416.517 344.147 416.881 344.147 417.335C344.147 417.966 344.38 418.443 344.846 418.767C345.312 419.085 345.906 419.244 346.627 419.244ZM363.577 407.909V410.108H357.722V421H355.208V407.909H363.577ZM376.816 425.457V403.545H379.364V425.457H376.816ZM376.816 421.264C375.889 421.264 375.046 421.105 374.284 420.787C373.523 420.463 372.867 420.003 372.316 419.406C371.764 418.81 371.338 418.097 371.037 417.267C370.742 416.437 370.594 415.52 370.594 414.514C370.594 413.497 370.742 412.574 371.037 411.744C371.338 410.915 371.764 410.202 372.316 409.605C372.867 409.009 373.523 408.548 374.284 408.224C375.046 407.901 375.889 407.739 376.816 407.739H377.446V421.264H376.816ZM376.816 419.116H377.173V409.886H376.816C376.202 409.886 375.668 410.011 375.213 410.261C374.759 410.506 374.381 410.844 374.08 411.276C373.779 411.702 373.551 412.193 373.398 412.75C373.25 413.307 373.176 413.895 373.176 414.514C373.176 415.344 373.31 416.108 373.577 416.807C373.844 417.5 374.247 418.06 374.787 418.486C375.327 418.906 376.003 419.116 376.816 419.116ZM379.364 421.264H378.725V407.739H379.364C380.29 407.739 381.134 407.901 381.895 408.224C382.656 408.548 383.31 409.009 383.855 409.605C384.406 410.202 384.83 410.915 385.125 411.744C385.426 412.574 385.577 413.497 385.577 414.514C385.577 415.52 385.426 416.437 385.125 417.267C384.83 418.097 384.406 418.81 383.855 419.406C383.31 420.003 382.656 420.463 381.895 420.787C381.134 421.105 380.29 421.264 379.364 421.264ZM379.364 419.116C379.977 419.116 380.512 418.997 380.966 418.759C381.421 418.514 381.798 418.179 382.1 417.753C382.401 417.321 382.625 416.83 382.773 416.278C382.921 415.722 382.994 415.134 382.994 414.514C382.994 413.69 382.861 412.929 382.594 412.23C382.333 411.526 381.932 410.96 381.392 410.534C380.852 410.102 380.176 409.886 379.364 409.886H378.997V419.116H379.364ZM390.186 417.429L395.956 407.909H398.7V421H396.203V411.472L390.458 421H387.689V407.909H390.186V417.429ZM401.406 421V407.909H403.954V413.398H405.182L409.503 407.909H412.656L407.585 414.276L412.716 421H409.554L405.608 415.767H403.954V421H401.406ZM418.95 421.264C417.683 421.264 416.592 420.977 415.678 420.403C414.768 419.824 414.07 419.026 413.581 418.009C413.092 416.991 412.848 415.827 412.848 414.514C412.848 413.185 413.098 412.011 413.598 410.994C414.098 409.972 414.803 409.173 415.712 408.599C416.621 408.026 417.692 407.739 418.925 407.739C419.919 407.739 420.805 407.923 421.584 408.293C422.362 408.656 422.99 409.168 423.467 409.827C423.95 410.486 424.237 411.256 424.328 412.136H421.848C421.712 411.523 421.399 410.994 420.91 410.551C420.428 410.108 419.78 409.886 418.967 409.886C418.257 409.886 417.635 410.074 417.101 410.449C416.572 410.818 416.16 411.347 415.865 412.034C415.57 412.716 415.422 413.523 415.422 414.455C415.422 415.409 415.567 416.233 415.856 416.926C416.146 417.619 416.555 418.156 417.084 418.537C417.618 418.918 418.246 419.108 418.967 419.108C419.45 419.108 419.888 419.02 420.28 418.844C420.678 418.662 421.01 418.403 421.277 418.068C421.55 417.733 421.74 417.33 421.848 416.858H424.328C424.237 417.705 423.962 418.46 423.501 419.125C423.041 419.79 422.425 420.312 421.652 420.693C420.885 421.074 419.984 421.264 418.95 421.264ZM428.83 417.429L434.6 407.909H437.345V421H434.847V411.472L429.103 421H426.333V407.909H428.83V417.429ZM440.051 425.909V407.909H442.539V410.031H442.752C442.9 409.759 443.113 409.443 443.392 409.085C443.67 408.727 444.056 408.415 444.551 408.148C445.045 407.875 445.698 407.739 446.511 407.739C447.568 407.739 448.511 408.006 449.34 408.54C450.17 409.074 450.821 409.844 451.292 410.849C451.769 411.855 452.008 413.065 452.008 414.48C452.008 415.895 451.772 417.108 451.301 418.119C450.829 419.125 450.181 419.901 449.358 420.446C448.534 420.986 447.593 421.256 446.537 421.256C445.741 421.256 445.09 421.122 444.585 420.855C444.085 420.588 443.693 420.276 443.409 419.918C443.125 419.56 442.906 419.241 442.752 418.963H442.599V425.909H440.051ZM442.548 414.455C442.548 415.375 442.681 416.182 442.948 416.875C443.215 417.568 443.602 418.111 444.108 418.503C444.613 418.889 445.233 419.082 445.965 419.082C446.727 419.082 447.363 418.881 447.875 418.477C448.386 418.068 448.772 417.514 449.034 416.815C449.301 416.116 449.434 415.33 449.434 414.455C449.434 413.591 449.304 412.815 449.042 412.128C448.787 411.44 448.4 410.898 447.883 410.5C447.372 410.102 446.733 409.903 445.965 409.903C445.227 409.903 444.602 410.094 444.09 410.474C443.585 410.855 443.201 411.386 442.94 412.068C442.679 412.75 442.548 413.545 442.548 414.455ZM455.309 425.909C454.928 425.909 454.581 425.878 454.269 425.815C453.956 425.759 453.723 425.696 453.57 425.628L454.184 423.54C454.65 423.665 455.064 423.719 455.428 423.702C455.792 423.685 456.113 423.548 456.391 423.293C456.675 423.037 456.925 422.619 457.141 422.04L457.456 421.17L452.667 407.909H455.394L458.709 418.068H458.846L462.161 407.909H464.897L459.502 422.747C459.252 423.429 458.934 424.006 458.547 424.477C458.161 424.955 457.701 425.313 457.167 425.551C456.633 425.79 456.013 425.909 455.309 425.909ZM471.768 421.264C470.479 421.264 469.368 420.989 468.436 420.438C467.51 419.881 466.794 419.099 466.288 418.094C465.788 417.082 465.538 415.898 465.538 414.54C465.538 413.199 465.788 412.017 466.288 410.994C466.794 409.972 467.498 409.173 468.402 408.599C469.311 408.026 470.373 407.739 471.589 407.739C472.328 407.739 473.044 407.861 473.737 408.105C474.43 408.349 475.052 408.733 475.604 409.256C476.155 409.778 476.589 410.457 476.908 411.293C477.226 412.122 477.385 413.131 477.385 414.318V415.222H466.979V413.312H474.888C474.888 412.642 474.751 412.048 474.479 411.531C474.206 411.009 473.822 410.597 473.328 410.295C472.839 409.994 472.266 409.844 471.606 409.844C470.891 409.844 470.266 410.02 469.731 410.372C469.203 410.719 468.794 411.173 468.504 411.736C468.22 412.293 468.078 412.898 468.078 413.551V415.043C468.078 415.918 468.231 416.662 468.538 417.276C468.851 417.889 469.285 418.358 469.842 418.682C470.399 419 471.05 419.159 471.794 419.159C472.277 419.159 472.717 419.091 473.115 418.955C473.513 418.812 473.856 418.602 474.146 418.324C474.436 418.045 474.658 417.702 474.811 417.293L477.223 417.727C477.03 418.437 476.683 419.06 476.183 419.594C475.689 420.122 475.067 420.534 474.317 420.83C473.572 421.119 472.723 421.264 471.768 421.264ZM478.337 410.108V407.909H489.383V410.108H485.113V421H482.624V410.108H478.337ZM496.263 421.264C494.996 421.264 493.905 420.977 492.99 420.403C492.081 419.824 491.382 419.026 490.894 418.009C490.405 416.991 490.161 415.827 490.161 414.514C490.161 413.185 490.411 412.011 490.911 410.994C491.411 409.972 492.115 409.173 493.024 408.599C493.934 408.026 495.005 407.739 496.238 407.739C497.232 407.739 498.118 407.923 498.897 408.293C499.675 408.656 500.303 409.168 500.78 409.827C501.263 410.486 501.55 411.256 501.641 412.136H499.161C499.024 411.523 498.712 410.994 498.223 410.551C497.74 410.108 497.093 409.886 496.28 409.886C495.57 409.886 494.948 410.074 494.414 410.449C493.885 410.818 493.473 411.347 493.178 412.034C492.882 412.716 492.735 413.523 492.735 414.455C492.735 415.409 492.88 416.233 493.169 416.926C493.459 417.619 493.868 418.156 494.397 418.537C494.931 418.918 495.559 419.108 496.28 419.108C496.763 419.108 497.201 419.02 497.593 418.844C497.99 418.662 498.323 418.403 498.59 418.068C498.863 417.733 499.053 417.33 499.161 416.858H501.641C501.55 417.705 501.274 418.46 500.814 419.125C500.354 419.79 499.738 420.312 498.965 420.693C498.198 421.074 497.297 421.264 496.263 421.264ZM511.453 421V410.082H508.317C507.572 410.082 506.993 410.256 506.578 410.602C506.163 410.949 505.956 411.403 505.956 411.966C505.956 412.523 506.146 412.972 506.527 413.312C506.913 413.648 507.453 413.815 508.146 413.815H512.194V415.878H508.146C507.18 415.878 506.345 415.719 505.64 415.401C504.942 415.077 504.402 414.619 504.021 414.028C503.646 413.437 503.459 412.739 503.459 411.932C503.459 411.108 503.652 410.398 504.038 409.801C504.43 409.199 504.99 408.733 505.717 408.403C506.45 408.074 507.317 407.909 508.317 407.909H513.848V421H511.453ZM502.862 421L506.552 414.386H509.16L505.47 421H502.862ZM524.649 417.429L530.418 407.909H533.163V421H530.666V411.472L524.921 421H522.151V407.909H524.649V417.429ZM541.5 421V407.909H552.179V421H549.682V410.108H543.981V421H541.5ZM556.008 425.909C555.628 425.909 555.281 425.878 554.969 425.815C554.656 425.759 554.423 425.696 554.27 425.628L554.883 423.54C555.349 423.665 555.764 423.719 556.128 423.702C556.491 423.685 556.812 423.548 557.091 423.293C557.375 423.037 557.625 422.619 557.841 422.04L558.156 421.17L553.366 407.909H556.094L559.409 418.068H559.545L562.861 407.909H565.596L560.202 422.747C559.952 423.429 559.633 424.006 559.247 424.477C558.861 424.955 558.4 425.313 557.866 425.551C557.332 425.79 556.713 425.909 556.008 425.909ZM577.371 403.034L578.428 404.645C578.036 405.003 577.59 405.259 577.09 405.412C576.595 405.56 576.024 405.653 575.376 405.693C574.729 405.727 573.987 405.759 573.152 405.787C572.209 405.815 571.433 406.02 570.825 406.401C570.217 406.776 569.749 407.332 569.419 408.071C569.095 408.804 568.885 409.724 568.788 410.832H568.95C569.376 410.02 569.967 409.412 570.723 409.009C571.484 408.605 572.34 408.403 573.288 408.403C574.345 408.403 575.286 408.645 576.109 409.128C576.933 409.611 577.581 410.318 578.053 411.25C578.53 412.176 578.769 413.31 578.769 414.651C578.769 416.009 578.519 417.182 578.019 418.17C577.524 419.159 576.825 419.923 575.922 420.463C575.024 420.997 573.965 421.264 572.743 421.264C571.521 421.264 570.456 420.989 569.547 420.438C568.644 419.881 567.942 419.057 567.442 417.966C566.947 416.875 566.7 415.528 566.7 413.926V412.631C566.7 409.636 567.234 407.384 568.303 405.872C569.371 404.361 570.967 403.585 573.092 403.545C573.78 403.528 574.394 403.526 574.933 403.537C575.473 403.543 575.945 403.517 576.348 403.46C576.757 403.398 577.098 403.256 577.371 403.034ZM572.751 419.125C573.462 419.125 574.072 418.946 574.584 418.588C575.101 418.224 575.499 417.71 575.777 417.045C576.055 416.381 576.195 415.597 576.195 414.693C576.195 413.807 576.055 413.054 575.777 412.435C575.499 411.815 575.101 411.344 574.584 411.02C574.067 410.69 573.447 410.526 572.726 410.526C572.192 410.526 571.715 410.619 571.294 410.807C570.874 410.989 570.513 411.259 570.212 411.616C569.916 411.974 569.686 412.412 569.521 412.929C569.362 413.44 569.277 414.028 569.266 414.693C569.266 416.045 569.575 417.122 570.195 417.923C570.82 418.724 571.672 419.125 572.751 419.125ZM579.864 421L579.855 418.793H580.324C580.688 418.793 580.992 418.716 581.236 418.562C581.486 418.403 581.691 418.136 581.85 417.761C582.009 417.386 582.131 416.869 582.216 416.21C582.301 415.545 582.364 414.71 582.404 413.705L582.634 407.909H591.77V421H589.273V410.108H584.995L584.79 414.557C584.739 415.636 584.628 416.58 584.458 417.386C584.293 418.193 584.051 418.866 583.733 419.406C583.415 419.94 583.006 420.341 582.506 420.608C582.006 420.869 581.398 421 580.682 421H579.864ZM596.946 417.429L602.716 407.909H605.46V421H602.963V411.472L597.218 421H594.449V407.909H596.946V417.429ZM608.166 421V407.909H610.714V413.398H611.942L616.263 407.909H619.416L614.345 414.276L619.476 421H616.314L612.368 415.767H610.714V421H608.166ZM622.416 425.909C622.036 425.909 621.689 425.878 621.376 425.815C621.064 425.759 620.831 425.696 620.678 425.628L621.291 423.54C621.757 423.665 622.172 423.719 622.536 423.702C622.899 423.685 623.22 423.548 623.499 423.293C623.783 423.037 624.033 422.619 624.249 422.04L624.564 421.17L619.774 407.909H622.501L625.817 418.068H625.953L629.268 407.909H632.004L626.609 422.747C626.359 423.429 626.041 424.006 625.655 424.477C625.268 424.955 624.808 425.313 624.274 425.551C623.74 425.79 623.121 425.909 622.416 425.909ZM638.876 421.264C637.586 421.264 636.475 420.989 635.544 420.438C634.617 419.881 633.901 419.099 633.396 418.094C632.896 417.082 632.646 415.898 632.646 414.54C632.646 413.199 632.896 412.017 633.396 410.994C633.901 409.972 634.606 409.173 635.509 408.599C636.419 408.026 637.481 407.739 638.697 407.739C639.436 407.739 640.151 407.861 640.845 408.105C641.538 408.349 642.16 408.733 642.711 409.256C643.262 409.778 643.697 410.457 644.015 411.293C644.333 412.122 644.492 413.131 644.492 414.318V415.222H634.086V413.312H641.995C641.995 412.642 641.859 412.048 641.586 411.531C641.313 411.009 640.93 410.597 640.436 410.295C639.947 409.994 639.373 409.844 638.714 409.844C637.998 409.844 637.373 410.02 636.839 410.372C636.311 410.719 635.901 411.173 635.612 411.736C635.328 412.293 635.186 412.898 635.186 413.551V415.043C635.186 415.918 635.339 416.662 635.646 417.276C635.958 417.889 636.393 418.358 636.95 418.682C637.507 419 638.157 419.159 638.901 419.159C639.384 419.159 639.825 419.091 640.222 418.955C640.62 418.812 640.964 418.602 641.254 418.324C641.544 418.045 641.765 417.702 641.919 417.293L644.33 417.727C644.137 418.437 643.791 419.06 643.291 419.594C642.796 420.122 642.174 420.534 641.424 420.83C640.68 421.119 639.83 421.264 638.876 421.264ZM645.445 410.108V407.909H656.49V410.108H652.221V421H649.732V410.108H645.445ZM663.371 421.264C662.104 421.264 661.013 420.977 660.098 420.403C659.189 419.824 658.49 419.026 658.001 418.009C657.513 416.991 657.268 415.827 657.268 414.514C657.268 413.185 657.518 412.011 658.018 410.994C658.518 409.972 659.223 409.173 660.132 408.599C661.041 408.026 662.112 407.739 663.345 407.739C664.339 407.739 665.226 407.923 666.004 408.293C666.783 408.656 667.41 409.168 667.888 409.827C668.371 410.486 668.658 411.256 668.748 412.136H666.268C666.132 411.523 665.819 410.994 665.331 410.551C664.848 410.108 664.2 409.886 663.388 409.886C662.677 409.886 662.055 410.074 661.521 410.449C660.993 410.818 660.581 411.347 660.285 412.034C659.99 412.716 659.842 413.523 659.842 414.455C659.842 415.409 659.987 416.233 660.277 416.926C660.567 417.619 660.976 418.156 661.504 418.537C662.038 418.918 662.666 419.108 663.388 419.108C663.871 419.108 664.308 419.02 664.7 418.844C665.098 418.662 665.43 418.403 665.697 418.068C665.97 417.733 666.16 417.33 666.268 416.858H668.748C668.658 417.705 668.382 418.46 667.922 419.125C667.461 419.79 666.845 420.312 666.072 420.693C665.305 421.074 664.405 421.264 663.371 421.264ZM678.56 421V410.082H675.424C674.68 410.082 674.1 410.256 673.685 410.602C673.271 410.949 673.063 411.403 673.063 411.966C673.063 412.523 673.254 412.972 673.634 413.312C674.021 413.648 674.56 413.815 675.254 413.815H679.302V415.878H675.254C674.288 415.878 673.452 415.719 672.748 415.401C672.049 415.077 671.509 414.619 671.129 414.028C670.754 413.437 670.566 412.739 670.566 411.932C670.566 411.108 670.759 410.398 671.146 409.801C671.538 409.199 672.097 408.733 672.825 408.403C673.558 408.074 674.424 407.909 675.424 407.909H680.955V421H678.56ZM669.969 421L673.66 414.386H676.268L672.577 421H669.969ZM689.259 421V407.909H694.688C696.165 407.909 697.336 408.224 698.199 408.855C699.063 409.48 699.495 410.33 699.495 411.403C699.495 412.17 699.25 412.778 698.762 413.227C698.273 413.676 697.625 413.977 696.819 414.131C697.404 414.199 697.941 414.375 698.429 414.659C698.918 414.937 699.31 415.312 699.605 415.784C699.907 416.256 700.057 416.818 700.057 417.472C700.057 418.165 699.878 418.778 699.52 419.312C699.162 419.841 698.642 420.256 697.961 420.557C697.284 420.852 696.469 421 695.515 421H689.259ZM691.654 418.869H695.515C696.145 418.869 696.64 418.719 696.997 418.418C697.355 418.116 697.534 417.707 697.534 417.19C697.534 416.582 697.355 416.105 696.997 415.759C696.64 415.406 696.145 415.23 695.515 415.23H691.654V418.869ZM691.654 413.364H694.713C695.191 413.364 695.6 413.295 695.941 413.159C696.287 413.023 696.551 412.83 696.733 412.58C696.921 412.324 697.015 412.023 697.015 411.676C697.015 411.17 696.807 410.776 696.392 410.491C695.978 410.207 695.409 410.065 694.688 410.065H691.654V413.364ZM709.443 421H706.648L712.929 403.545H715.972L722.253 421H719.457L714.523 406.716H714.386L709.443 421ZM709.912 414.165H718.98V416.381H709.912V414.165ZM724.053 421V403.545H730.275C731.633 403.545 732.758 403.793 733.65 404.287C734.542 404.781 735.21 405.457 735.653 406.315C736.096 407.168 736.318 408.128 736.318 409.196C736.318 410.27 736.093 411.236 735.644 412.094C735.201 412.946 734.531 413.622 733.633 414.122C732.741 414.616 731.619 414.864 730.266 414.864H725.988V412.631H730.028C730.886 412.631 731.582 412.483 732.116 412.188C732.65 411.886 733.042 411.477 733.292 410.96C733.542 410.443 733.667 409.855 733.667 409.196C733.667 408.537 733.542 407.952 733.292 407.44C733.042 406.929 732.647 406.528 732.107 406.239C731.573 405.949 730.869 405.804 729.994 405.804H726.687V421H724.053ZM741.318 403.545V421H738.685V403.545H741.318ZM140.324 434.557H143.469C144.798 434.557 145.977 434.849 147.006 435.435C148.04 436.014 148.849 436.83 149.435 437.881C150.026 438.926 150.321 440.142 150.321 441.528C150.321 442.903 150.026 444.111 149.435 445.151C148.849 446.19 148.04 447.003 147.006 447.588C145.977 448.168 144.798 448.457 143.469 448.457H140.324C138.994 448.457 137.813 448.17 136.778 447.597C135.744 447.017 134.932 446.21 134.341 445.176C133.756 444.142 133.463 442.935 133.463 441.554C133.463 440.162 133.759 438.94 134.349 437.889C134.94 436.838 135.75 436.02 136.778 435.435C137.813 434.849 138.994 434.557 140.324 434.557ZM140.324 436.832C139.415 436.832 138.639 437.023 137.997 437.403C137.355 437.778 136.864 438.318 136.523 439.023C136.182 439.727 136.011 440.571 136.011 441.554C136.011 442.514 136.182 443.341 136.523 444.034C136.869 444.722 137.364 445.253 138.006 445.628C138.648 445.997 139.42 446.182 140.324 446.182H143.477C144.381 446.182 145.151 445.997 145.787 445.628C146.429 445.253 146.918 444.719 147.253 444.026C147.594 443.327 147.764 442.494 147.764 441.528C147.764 440.557 147.594 439.722 147.253 439.023C146.918 438.318 146.429 437.778 145.787 437.403C145.151 437.023 144.381 436.832 143.477 436.832H140.324ZM143.196 432.239V450.716H140.614V432.239H143.196ZM155.169 446.429L160.938 436.909H163.683V450H161.186V440.472L155.441 450H152.671V436.909H155.169V446.429ZM175.261 442.355V444.562H168.17V442.355H175.261ZM168.886 436.909V450H166.389V436.909H168.886ZM177.042 436.909V450H174.554V436.909H177.042ZM183.541 450.29C182.711 450.29 181.961 450.136 181.291 449.83C180.621 449.517 180.089 449.065 179.697 448.474C179.311 447.884 179.118 447.159 179.118 446.301C179.118 445.562 179.26 444.955 179.544 444.477C179.828 444 180.211 443.622 180.694 443.344C181.177 443.065 181.717 442.855 182.314 442.713C182.91 442.571 183.518 442.463 184.138 442.389C184.922 442.298 185.558 442.224 186.047 442.168C186.535 442.105 186.89 442.006 187.112 441.869C187.334 441.733 187.444 441.511 187.444 441.205V441.145C187.444 440.401 187.234 439.824 186.814 439.415C186.399 439.006 185.78 438.801 184.956 438.801C184.098 438.801 183.422 438.991 182.927 439.372C182.439 439.747 182.101 440.165 181.913 440.625L179.518 440.08C179.802 439.284 180.217 438.642 180.763 438.153C181.314 437.659 181.947 437.301 182.663 437.08C183.379 436.852 184.132 436.739 184.922 436.739C185.444 436.739 185.998 436.801 186.584 436.926C187.175 437.045 187.726 437.267 188.237 437.591C188.754 437.915 189.177 438.378 189.507 438.98C189.836 439.577 190.001 440.352 190.001 441.307V450H187.513V448.21H187.41C187.246 448.54 186.998 448.864 186.669 449.182C186.339 449.5 185.916 449.764 185.399 449.974C184.882 450.185 184.263 450.29 183.541 450.29ZM184.095 448.244C184.8 448.244 185.402 448.105 185.902 447.827C186.407 447.548 186.791 447.185 187.052 446.736C187.319 446.281 187.453 445.795 187.453 445.278V443.591C187.362 443.682 187.186 443.767 186.925 443.847C186.669 443.92 186.376 443.986 186.047 444.043C185.717 444.094 185.396 444.142 185.084 444.188C184.771 444.227 184.51 444.261 184.3 444.29C183.805 444.352 183.354 444.457 182.944 444.605C182.541 444.753 182.217 444.966 181.973 445.244C181.734 445.517 181.615 445.881 181.615 446.335C181.615 446.966 181.848 447.443 182.314 447.767C182.78 448.085 183.373 448.244 184.095 448.244ZM191.644 450L191.636 447.793H192.104C192.468 447.793 192.772 447.716 193.016 447.562C193.266 447.403 193.471 447.136 193.63 446.761C193.789 446.386 193.911 445.869 193.996 445.21C194.082 444.545 194.144 443.71 194.184 442.705L194.414 436.909H203.55V450H201.053V439.108H196.775L196.57 443.557C196.519 444.636 196.408 445.58 196.238 446.386C196.073 447.193 195.832 447.866 195.513 448.406C195.195 448.94 194.786 449.341 194.286 449.608C193.786 449.869 193.178 450 192.462 450H191.644ZM208.146 441.409H211.948C213.55 441.409 214.783 441.807 215.646 442.602C216.51 443.398 216.942 444.423 216.942 445.679C216.942 446.497 216.749 447.233 216.362 447.886C215.976 448.54 215.411 449.057 214.666 449.438C213.922 449.812 213.016 450 211.948 450H206.229V436.909H208.726V447.801H211.948C212.681 447.801 213.283 447.611 213.754 447.23C214.226 446.844 214.462 446.352 214.462 445.756C214.462 445.125 214.226 444.611 213.754 444.213C213.283 443.81 212.681 443.608 211.948 443.608H208.146V441.409ZM227.951 442.355V444.562H220.86V442.355H227.951ZM221.576 436.909V450H219.079V436.909H221.576ZM229.733 436.909V450H227.244V436.909H229.733ZM234.339 441.409H238.14C239.743 441.409 240.976 441.807 241.839 442.602C242.703 443.398 243.135 444.423 243.135 445.679C243.135 446.497 242.942 447.233 242.555 447.886C242.169 448.54 241.603 449.057 240.859 449.438C240.115 449.812 239.209 450 238.14 450H232.422V436.909H234.919V447.801H238.14C238.873 447.801 239.476 447.611 239.947 447.23C240.419 446.844 240.655 446.352 240.655 445.756C240.655 445.125 240.419 444.611 239.947 444.213C239.476 443.81 238.873 443.608 238.14 443.608H234.339V441.409ZM244.993 450V436.909H247.541V450H244.993ZM252.738 446.429L258.508 436.909H261.252V450H258.755V440.472L253.011 450H250.241V436.909H252.738V446.429ZM257.417 432.477H259.513C259.513 433.437 259.173 434.219 258.491 434.821C257.815 435.418 256.9 435.716 255.746 435.716C254.599 435.716 253.687 435.418 253.011 434.821C252.334 434.219 251.996 433.437 251.996 432.477H254.084C254.084 432.903 254.209 433.281 254.459 433.611C254.709 433.935 255.138 434.097 255.746 434.097C256.343 434.097 256.769 433.935 257.025 433.611C257.286 433.287 257.417 432.909 257.417 432.477ZM269.59 450V436.909H280.269V450H277.772V439.108H272.07V450H269.59ZM288.47 450.264C287.243 450.264 286.172 449.983 285.257 449.42C284.342 448.858 283.632 448.071 283.126 447.06C282.621 446.048 282.368 444.866 282.368 443.514C282.368 442.156 282.621 440.969 283.126 439.952C283.632 438.935 284.342 438.145 285.257 437.582C286.172 437.02 287.243 436.739 288.47 436.739C289.697 436.739 290.768 437.02 291.683 437.582C292.598 438.145 293.308 438.935 293.814 439.952C294.319 440.969 294.572 442.156 294.572 443.514C294.572 444.866 294.319 446.048 293.814 447.06C293.308 448.071 292.598 448.858 291.683 449.42C290.768 449.983 289.697 450.264 288.47 450.264ZM288.478 448.125C289.274 448.125 289.933 447.915 290.456 447.494C290.978 447.074 291.365 446.514 291.615 445.815C291.871 445.116 291.998 444.347 291.998 443.506C291.998 442.67 291.871 441.903 291.615 441.205C291.365 440.5 290.978 439.935 290.456 439.509C289.933 439.082 289.274 438.869 288.478 438.869C287.677 438.869 287.013 439.082 286.484 439.509C285.961 439.935 285.572 440.5 285.317 441.205C285.067 441.903 284.942 442.67 284.942 443.506C284.942 444.347 285.067 445.116 285.317 445.815C285.572 446.514 285.961 447.074 286.484 447.494C287.013 447.915 287.677 448.125 288.478 448.125ZM295.12 439.108V436.909H306.165V439.108H301.896V450H299.407V439.108H295.12ZM313.046 450.264C311.818 450.264 310.747 449.983 309.832 449.42C308.918 448.858 308.207 448.071 307.702 447.06C307.196 446.048 306.943 444.866 306.943 443.514C306.943 442.156 307.196 440.969 307.702 439.952C308.207 438.935 308.918 438.145 309.832 437.582C310.747 437.02 311.818 436.739 313.046 436.739C314.273 436.739 315.344 437.02 316.259 437.582C317.173 438.145 317.884 438.935 318.389 439.952C318.895 440.969 319.148 442.156 319.148 443.514C319.148 444.866 318.895 446.048 318.389 447.06C317.884 448.071 317.173 448.858 316.259 449.42C315.344 449.983 314.273 450.264 313.046 450.264ZM313.054 448.125C313.85 448.125 314.509 447.915 315.031 447.494C315.554 447.074 315.94 446.514 316.19 445.815C316.446 445.116 316.574 444.347 316.574 443.506C316.574 442.67 316.446 441.903 316.19 441.205C315.94 440.5 315.554 439.935 315.031 439.509C314.509 439.082 313.85 438.869 313.054 438.869C312.253 438.869 311.588 439.082 311.06 439.509C310.537 439.935 310.148 440.5 309.892 441.205C309.642 441.903 309.517 442.67 309.517 443.506C309.517 444.347 309.642 445.116 309.892 445.815C310.148 446.514 310.537 447.074 311.06 447.494C311.588 447.915 312.253 448.125 313.054 448.125ZM321.272 450V436.909H323.821V442.398H325.048L329.369 436.909H332.522L327.451 443.276L332.582 450H329.42L325.474 444.767H323.821V450H321.272ZM349.572 432.034L350.629 433.645C350.237 434.003 349.791 434.259 349.291 434.412C348.797 434.56 348.226 434.653 347.578 434.693C346.93 434.727 346.189 434.759 345.354 434.787C344.41 434.815 343.635 435.02 343.027 435.401C342.419 435.776 341.95 436.332 341.621 437.071C341.297 437.804 341.087 438.724 340.99 439.832H341.152C341.578 439.02 342.169 438.412 342.925 438.009C343.686 437.605 344.541 437.403 345.49 437.403C346.547 437.403 347.487 437.645 348.311 438.128C349.135 438.611 349.783 439.318 350.254 440.25C350.731 441.176 350.97 442.31 350.97 443.651C350.97 445.009 350.72 446.182 350.22 447.17C349.726 448.159 349.027 448.923 348.123 449.463C347.226 449.997 346.166 450.264 344.945 450.264C343.723 450.264 342.658 449.989 341.748 449.438C340.845 448.881 340.143 448.057 339.643 446.966C339.149 445.875 338.902 444.528 338.902 442.926V441.631C338.902 438.636 339.436 436.384 340.504 434.872C341.572 433.361 343.169 432.585 345.294 432.545C345.981 432.528 346.595 432.526 347.135 432.537C347.675 432.543 348.146 432.517 348.55 432.46C348.959 432.398 349.3 432.256 349.572 432.034ZM344.953 448.125C345.663 448.125 346.274 447.946 346.785 447.588C347.302 447.224 347.7 446.71 347.979 446.045C348.257 445.381 348.396 444.597 348.396 443.693C348.396 442.807 348.257 442.054 347.979 441.435C347.7 440.815 347.302 440.344 346.785 440.02C346.268 439.69 345.649 439.526 344.927 439.526C344.393 439.526 343.916 439.619 343.496 439.807C343.075 439.989 342.714 440.259 342.413 440.616C342.118 440.974 341.888 441.412 341.723 441.929C341.564 442.44 341.479 443.028 341.467 443.693C341.467 445.045 341.777 446.122 342.396 446.923C343.021 447.724 343.873 448.125 344.953 448.125ZM355.594 446.429L361.364 436.909H364.108V450H361.611V440.472L355.867 450H353.097V436.909H355.594V446.429ZM365.191 439.108V436.909H376.236V439.108H371.966V450H369.478V439.108H365.191ZM383.116 450.264C381.889 450.264 380.818 449.983 379.903 449.42C378.988 448.858 378.278 448.071 377.772 447.06C377.267 446.048 377.014 444.866 377.014 443.514C377.014 442.156 377.267 440.969 377.772 439.952C378.278 438.935 378.988 438.145 379.903 437.582C380.818 437.02 381.889 436.739 383.116 436.739C384.343 436.739 385.414 437.02 386.329 437.582C387.244 438.145 387.954 438.935 388.46 439.952C388.966 440.969 389.218 442.156 389.218 443.514C389.218 444.866 388.966 446.048 388.46 447.06C387.954 448.071 387.244 448.858 386.329 449.42C385.414 449.983 384.343 450.264 383.116 450.264ZM383.125 448.125C383.92 448.125 384.579 447.915 385.102 447.494C385.625 447.074 386.011 446.514 386.261 445.815C386.517 445.116 386.645 444.347 386.645 443.506C386.645 442.67 386.517 441.903 386.261 441.205C386.011 440.5 385.625 439.935 385.102 439.509C384.579 439.082 383.92 438.869 383.125 438.869C382.324 438.869 381.659 439.082 381.13 439.509C380.608 439.935 380.218 440.5 379.963 441.205C379.713 441.903 379.588 442.67 379.588 443.506C379.588 444.347 379.713 445.116 379.963 445.815C380.218 446.514 380.608 447.074 381.13 447.494C381.659 447.915 382.324 448.125 383.125 448.125ZM391.343 450V436.909H396.772C398.249 436.909 399.42 437.224 400.283 437.855C401.147 438.48 401.579 439.33 401.579 440.403C401.579 441.17 401.334 441.778 400.846 442.227C400.357 442.676 399.709 442.977 398.903 443.131C399.488 443.199 400.025 443.375 400.513 443.659C401.002 443.937 401.394 444.312 401.69 444.784C401.991 445.256 402.141 445.818 402.141 446.472C402.141 447.165 401.962 447.778 401.604 448.312C401.246 448.841 400.726 449.256 400.045 449.557C399.368 449.852 398.553 450 397.599 450H391.343ZM393.738 447.869H397.599C398.229 447.869 398.724 447.719 399.082 447.418C399.44 447.116 399.618 446.707 399.618 446.19C399.618 445.582 399.44 445.105 399.082 444.759C398.724 444.406 398.229 444.23 397.599 444.23H393.738V447.869ZM393.738 442.364H396.797C397.275 442.364 397.684 442.295 398.025 442.159C398.371 442.023 398.636 441.83 398.817 441.58C399.005 441.324 399.099 441.023 399.099 440.676C399.099 440.17 398.891 439.776 398.476 439.491C398.062 439.207 397.493 439.065 396.772 439.065H393.738V442.364ZM408.57 453.776V447.793H409.635C409.908 447.543 410.138 447.244 410.326 446.898C410.519 446.551 410.681 446.139 410.811 445.662C410.948 445.185 411.061 444.628 411.152 443.991C411.243 443.349 411.323 442.616 411.391 441.793L411.8 436.909H420.698V447.793H422.709V453.776H420.22V450H411.093V453.776H408.57ZM412.362 447.793H418.209V439.091H414.084L413.811 441.793C413.681 443.168 413.516 444.361 413.317 445.372C413.118 446.378 412.8 447.185 412.362 447.793ZM429.994 450.264C428.767 450.264 427.696 449.983 426.781 449.42C425.866 448.858 425.156 448.071 424.65 447.06C424.145 446.048 423.892 444.866 423.892 443.514C423.892 442.156 424.145 440.969 424.65 439.952C425.156 438.935 425.866 438.145 426.781 437.582C427.696 437.02 428.767 436.739 429.994 436.739C431.221 436.739 432.292 437.02 433.207 437.582C434.122 438.145 434.832 438.935 435.338 439.952C435.843 440.969 436.096 442.156 436.096 443.514C436.096 444.866 435.843 446.048 435.338 447.06C434.832 448.071 434.122 448.858 433.207 449.42C432.292 449.983 431.221 450.264 429.994 450.264ZM430.003 448.125C430.798 448.125 431.457 447.915 431.98 447.494C432.503 447.074 432.889 446.514 433.139 445.815C433.395 445.116 433.522 444.347 433.522 443.506C433.522 442.67 433.395 441.903 433.139 441.205C432.889 440.5 432.503 439.935 431.98 439.509C431.457 439.082 430.798 438.869 430.003 438.869C429.201 438.869 428.537 439.082 428.008 439.509C427.485 439.935 427.096 440.5 426.841 441.205C426.591 441.903 426.466 442.67 426.466 443.506C426.466 444.347 426.591 445.116 426.841 445.815C427.096 446.514 427.485 447.074 428.008 447.494C428.537 447.915 429.201 448.125 430.003 448.125ZM443.735 450.264C442.468 450.264 441.377 449.977 440.462 449.403C439.553 448.824 438.854 448.026 438.366 447.009C437.877 445.991 437.633 444.827 437.633 443.514C437.633 442.185 437.883 441.011 438.383 439.994C438.883 438.972 439.587 438.173 440.496 437.599C441.405 437.026 442.476 436.739 443.709 436.739C444.704 436.739 445.59 436.923 446.368 437.293C447.147 437.656 447.775 438.168 448.252 438.827C448.735 439.486 449.022 440.256 449.113 441.136H446.633C446.496 440.523 446.184 439.994 445.695 439.551C445.212 439.108 444.564 438.886 443.752 438.886C443.042 438.886 442.42 439.074 441.886 439.449C441.357 439.818 440.945 440.347 440.65 441.034C440.354 441.716 440.207 442.523 440.207 443.455C440.207 444.409 440.351 445.233 440.641 445.926C440.931 446.619 441.34 447.156 441.868 447.537C442.403 447.918 443.03 448.108 443.752 448.108C444.235 448.108 444.672 448.02 445.064 447.844C445.462 447.662 445.795 447.403 446.062 447.068C446.334 446.733 446.525 446.33 446.633 445.858H449.113C449.022 446.705 448.746 447.46 448.286 448.125C447.826 448.79 447.209 449.312 446.437 449.693C445.67 450.074 444.769 450.264 443.735 450.264ZM450.127 439.108V436.909H461.173V439.108H456.903V450H454.414V439.108H450.127ZM464.759 454.909C464.378 454.909 464.031 454.878 463.719 454.815C463.406 454.759 463.173 454.696 463.02 454.628L463.634 452.54C464.1 452.665 464.514 452.719 464.878 452.702C465.242 452.685 465.563 452.548 465.841 452.293C466.125 452.037 466.375 451.619 466.591 451.04L466.906 450.17L462.117 436.909H464.844L468.159 447.068H468.296L471.611 436.909H474.347L468.952 451.747C468.702 452.429 468.384 453.006 467.997 453.477C467.611 453.955 467.151 454.313 466.617 454.551C466.083 454.79 465.463 454.909 464.759 454.909ZM476.022 450V436.909H486.701V450H484.203V439.108H478.502V450H476.022ZM495.03 450.264C493.74 450.264 492.629 449.989 491.697 449.438C490.771 448.881 490.055 448.099 489.55 447.094C489.05 446.082 488.8 444.898 488.8 443.54C488.8 442.199 489.05 441.017 489.55 439.994C490.055 438.972 490.76 438.173 491.663 437.599C492.572 437.026 493.635 436.739 494.851 436.739C495.589 436.739 496.305 436.861 496.998 437.105C497.692 437.349 498.314 437.733 498.865 438.256C499.416 438.778 499.851 439.457 500.169 440.293C500.487 441.122 500.646 442.131 500.646 443.318V444.222H490.24V442.312H498.149C498.149 441.642 498.013 441.048 497.74 440.531C497.467 440.009 497.084 439.597 496.589 439.295C496.101 438.994 495.527 438.844 494.868 438.844C494.152 438.844 493.527 439.02 492.993 439.372C492.464 439.719 492.055 440.173 491.765 440.736C491.481 441.293 491.339 441.898 491.339 442.551V444.043C491.339 444.918 491.493 445.662 491.8 446.276C492.112 446.889 492.547 447.358 493.104 447.682C493.66 448 494.311 448.159 495.055 448.159C495.538 448.159 495.979 448.091 496.376 447.955C496.774 447.812 497.118 447.602 497.407 447.324C497.697 447.045 497.919 446.702 498.072 446.293L500.484 446.727C500.291 447.437 499.944 448.06 499.444 448.594C498.95 449.122 498.328 449.534 497.578 449.83C496.834 450.119 495.984 450.264 495.03 450.264ZM511.626 442.355V444.562H504.535V442.355H511.626ZM505.251 436.909V450H502.754V436.909H505.251ZM513.407 436.909V450H510.918V436.909H513.407ZM520.449 453.776V447.793H521.515C521.787 447.543 522.017 447.244 522.205 446.898C522.398 446.551 522.56 446.139 522.691 445.662C522.827 445.185 522.941 444.628 523.032 443.991C523.122 443.349 523.202 442.616 523.27 441.793L523.679 436.909H532.577V447.793H534.588V453.776H532.1V450H522.972V453.776H520.449ZM524.242 447.793H530.088V439.091H525.963L525.691 441.793C525.56 443.168 525.395 444.361 525.196 445.372C524.997 446.378 524.679 447.185 524.242 447.793ZM535.328 450L535.319 447.793H535.788C536.152 447.793 536.456 447.716 536.7 447.562C536.95 447.403 537.155 447.136 537.314 446.761C537.473 446.386 537.595 445.869 537.68 445.21C537.765 444.545 537.828 443.71 537.868 442.705L538.098 436.909H547.234V450H544.737V439.108H540.459L540.254 443.557C540.203 444.636 540.092 445.58 539.922 446.386C539.757 447.193 539.515 447.866 539.197 448.406C538.879 448.94 538.47 449.341 537.97 449.608C537.47 449.869 536.862 450 536.146 450H535.328ZM557.719 450V439.082H554.583C553.839 439.082 553.259 439.256 552.844 439.602C552.43 439.949 552.222 440.403 552.222 440.966C552.222 441.523 552.413 441.972 552.793 442.312C553.18 442.648 553.719 442.815 554.413 442.815H558.461V444.878H554.413C553.447 444.878 552.611 444.719 551.907 444.401C551.208 444.077 550.668 443.619 550.288 443.028C549.913 442.437 549.725 441.739 549.725 440.932C549.725 440.108 549.918 439.398 550.305 438.801C550.697 438.199 551.256 437.733 551.984 437.403C552.717 437.074 553.583 436.909 554.583 436.909H560.114V450H557.719ZM549.129 450L552.819 443.386H555.427L551.736 450H549.129ZM577.29 442.355V444.562H570.199V442.355H577.29ZM570.915 436.909V450H568.418V436.909H570.915ZM579.071 436.909V450H576.583V436.909H579.071ZM587.402 450.264C586.113 450.264 585.002 449.989 584.07 449.438C583.144 448.881 582.428 448.099 581.922 447.094C581.422 446.082 581.172 444.898 581.172 443.54C581.172 442.199 581.422 441.017 581.922 439.994C582.428 438.972 583.133 438.173 584.036 437.599C584.945 437.026 586.008 436.739 587.223 436.739C587.962 436.739 588.678 436.861 589.371 437.105C590.064 437.349 590.687 437.733 591.238 438.256C591.789 438.778 592.223 439.457 592.542 440.293C592.86 441.122 593.019 442.131 593.019 443.318V444.222H582.613V442.312H590.522C590.522 441.642 590.385 441.048 590.113 440.531C589.84 440.009 589.456 439.597 588.962 439.295C588.473 438.994 587.9 438.844 587.241 438.844C586.525 438.844 585.9 439.02 585.366 439.372C584.837 439.719 584.428 440.173 584.138 440.736C583.854 441.293 583.712 441.898 583.712 442.551V444.043C583.712 444.918 583.866 445.662 584.172 446.276C584.485 446.889 584.919 447.358 585.476 447.682C586.033 448 586.684 448.159 587.428 448.159C587.911 448.159 588.351 448.091 588.749 447.955C589.147 447.812 589.491 447.602 589.78 447.324C590.07 447.045 590.292 446.702 590.445 446.293L592.857 446.727C592.664 447.437 592.317 448.06 591.817 448.594C591.323 449.122 590.701 449.534 589.951 449.83C589.206 450.119 588.357 450.264 587.402 450.264ZM594.351 446.54H596.959C596.993 447.074 597.234 447.486 597.683 447.776C598.138 448.065 598.726 448.21 599.447 448.21C600.18 448.21 600.805 448.054 601.322 447.741C601.839 447.423 602.098 446.932 602.098 446.267C602.098 445.869 601.998 445.523 601.8 445.227C601.606 444.926 601.331 444.693 600.973 444.528C600.621 444.364 600.203 444.281 599.72 444.281H597.589V442.278H599.72C600.442 442.278 600.981 442.114 601.339 441.784C601.697 441.455 601.876 441.043 601.876 440.548C601.876 440.014 601.683 439.585 601.297 439.261C600.916 438.932 600.385 438.767 599.703 438.767C599.01 438.767 598.433 438.923 597.973 439.236C597.513 439.543 597.271 439.94 597.248 440.429H594.675C594.692 439.696 594.913 439.054 595.339 438.503C595.771 437.946 596.351 437.514 597.078 437.207C597.811 436.895 598.643 436.739 599.575 436.739C600.547 436.739 601.388 436.895 602.098 437.207C602.808 437.52 603.356 437.952 603.743 438.503C604.135 439.054 604.331 439.687 604.331 440.403C604.331 441.125 604.115 441.716 603.683 442.176C603.257 442.631 602.7 442.957 602.013 443.156V443.293C602.518 443.327 602.967 443.48 603.359 443.753C603.751 444.026 604.058 444.386 604.28 444.835C604.501 445.284 604.612 445.793 604.612 446.361C604.612 447.162 604.391 447.855 603.947 448.44C603.51 449.026 602.902 449.477 602.123 449.795C601.351 450.108 600.467 450.264 599.473 450.264C598.507 450.264 597.641 450.114 596.873 449.812C596.112 449.506 595.507 449.074 595.058 448.517C594.615 447.96 594.379 447.301 594.351 446.54ZM610.333 450.29C609.504 450.29 608.754 450.136 608.083 449.83C607.413 449.517 606.881 449.065 606.489 448.474C606.103 447.884 605.91 447.159 605.91 446.301C605.91 445.562 606.052 444.955 606.336 444.477C606.62 444 607.004 443.622 607.487 443.344C607.97 443.065 608.509 442.855 609.106 442.713C609.703 442.571 610.31 442.463 610.93 442.389C611.714 442.298 612.35 442.224 612.839 442.168C613.328 442.105 613.683 442.006 613.904 441.869C614.126 441.733 614.237 441.511 614.237 441.205V441.145C614.237 440.401 614.026 439.824 613.606 439.415C613.191 439.006 612.572 438.801 611.748 438.801C610.89 438.801 610.214 438.991 609.72 439.372C609.231 439.747 608.893 440.165 608.705 440.625L606.31 440.08C606.595 439.284 607.009 438.642 607.555 438.153C608.106 437.659 608.739 437.301 609.455 437.08C610.171 436.852 610.924 436.739 611.714 436.739C612.237 436.739 612.791 436.801 613.376 436.926C613.967 437.045 614.518 437.267 615.029 437.591C615.546 437.915 615.97 438.378 616.299 438.98C616.629 439.577 616.793 440.352 616.793 441.307V450H614.305V448.21H614.203C614.038 448.54 613.791 448.864 613.461 449.182C613.131 449.5 612.708 449.764 612.191 449.974C611.674 450.185 611.055 450.29 610.333 450.29ZM610.887 448.244C611.592 448.244 612.194 448.105 612.694 447.827C613.2 447.548 613.583 447.185 613.845 446.736C614.112 446.281 614.245 445.795 614.245 445.278V443.591C614.154 443.682 613.978 443.767 613.717 443.847C613.461 443.92 613.168 443.986 612.839 444.043C612.509 444.094 612.188 444.142 611.876 444.188C611.563 444.227 611.302 444.261 611.092 444.29C610.597 444.352 610.146 444.457 609.737 444.605C609.333 444.753 609.009 444.966 608.765 445.244C608.526 445.517 608.407 445.881 608.407 446.335C608.407 446.966 608.64 447.443 609.106 447.767C609.572 448.085 610.166 448.244 610.887 448.244ZM619.468 450V436.909H624.897C626.374 436.909 627.544 437.224 628.408 437.855C629.272 438.48 629.703 439.33 629.703 440.403C629.703 441.17 629.459 441.778 628.97 442.227C628.482 442.676 627.834 442.977 627.027 443.131C627.613 443.199 628.149 443.375 628.638 443.659C629.127 443.937 629.519 444.312 629.814 444.784C630.115 445.256 630.266 445.818 630.266 446.472C630.266 447.165 630.087 447.778 629.729 448.312C629.371 448.841 628.851 449.256 628.169 449.557C627.493 449.852 626.678 450 625.723 450H619.468ZM621.863 447.869H625.723C626.354 447.869 626.848 447.719 627.206 447.418C627.564 447.116 627.743 446.707 627.743 446.19C627.743 445.582 627.564 445.105 627.206 444.759C626.848 444.406 626.354 444.23 625.723 444.23H621.863V447.869ZM621.863 442.364H624.922C625.399 442.364 625.809 442.295 626.149 442.159C626.496 442.023 626.76 441.83 626.942 441.58C627.13 441.324 627.223 441.023 627.223 440.676C627.223 440.17 627.016 439.776 626.601 439.491C626.186 439.207 625.618 439.065 624.897 439.065H621.863V442.364ZM634.839 446.429L640.608 436.909H643.353V450H640.856V440.472L635.111 450H632.341V436.909H634.839V446.429ZM651.573 450.264C650.306 450.264 649.215 449.977 648.3 449.403C647.391 448.824 646.692 448.026 646.204 447.009C645.715 445.991 645.471 444.827 645.471 443.514C645.471 442.185 645.721 441.011 646.221 439.994C646.721 438.972 647.425 438.173 648.334 437.599C649.243 437.026 650.315 436.739 651.547 436.739C652.542 436.739 653.428 436.923 654.207 437.293C654.985 437.656 655.613 438.168 656.09 438.827C656.573 439.486 656.86 440.256 656.951 441.136H654.471C654.334 440.523 654.022 439.994 653.533 439.551C653.05 439.108 652.403 438.886 651.59 438.886C650.88 438.886 650.258 439.074 649.724 439.449C649.195 439.818 648.783 440.347 648.488 441.034C648.192 441.716 648.045 442.523 648.045 443.455C648.045 444.409 648.19 445.233 648.479 445.926C648.769 446.619 649.178 447.156 649.707 447.537C650.241 447.918 650.868 448.108 651.59 448.108C652.073 448.108 652.511 448.02 652.903 447.844C653.3 447.662 653.633 447.403 653.9 447.068C654.172 446.733 654.363 446.33 654.471 445.858H656.951C656.86 446.705 656.584 447.46 656.124 448.125C655.664 448.79 655.047 449.312 654.275 449.693C653.508 450.074 652.607 450.264 651.573 450.264ZM661.453 446.429L667.223 436.909H669.967V450H667.47V440.472L661.726 450H658.956V436.909H661.453V446.429ZM680.02 446.847L684.247 436.909H686.446L680.966 450H679.074L673.705 436.909H675.878L680.02 446.847ZM675.171 436.909V450H672.674V436.909H675.171ZM684.938 450V436.909H687.418V450H684.938ZM692.012 441.409H695.813C697.415 441.409 698.648 441.807 699.512 442.602C700.375 443.398 700.807 444.423 700.807 445.679C700.807 446.497 700.614 447.233 700.228 447.886C699.841 448.54 699.276 449.057 698.532 449.438C697.787 449.812 696.881 450 695.813 450H690.094V436.909H692.591V447.801H695.813C696.546 447.801 697.148 447.611 697.62 447.23C698.091 446.844 698.327 446.352 698.327 445.756C698.327 445.125 698.091 444.611 697.62 444.213C697.148 443.81 696.546 443.608 695.813 443.608H692.012V441.409ZM702.665 450V436.909H705.213V450H702.665ZM709.925 436.909L712.814 442.006L715.729 436.909H718.515L714.433 443.455L718.55 450H715.763L712.814 445.108L709.873 450H707.078L711.152 443.455L707.129 436.909H709.925ZM726.044 450V436.909H736.722V450H734.225V439.108H728.524V450H726.044ZM739.409 454.909V436.909H741.898V439.031H742.111C742.259 438.759 742.472 438.443 742.75 438.085C743.029 437.727 743.415 437.415 743.909 437.148C744.404 436.875 745.057 436.739 745.87 436.739C746.927 436.739 747.87 437.006 748.699 437.54C749.529 438.074 750.179 438.844 750.651 439.849C751.128 440.855 751.367 442.065 751.367 443.48C751.367 444.895 751.131 446.108 750.659 447.119C750.188 448.125 749.54 448.901 748.716 449.446C747.892 449.986 746.952 450.256 745.895 450.256C745.1 450.256 744.449 450.122 743.944 449.855C743.444 449.588 743.052 449.276 742.767 448.918C742.483 448.56 742.265 448.241 742.111 447.963H741.958V454.909H739.409ZM741.907 443.455C741.907 444.375 742.04 445.182 742.307 445.875C742.574 446.568 742.961 447.111 743.466 447.503C743.972 447.889 744.591 448.082 745.324 448.082C746.086 448.082 746.722 447.881 747.233 447.477C747.745 447.068 748.131 446.514 748.392 445.815C748.659 445.116 748.793 444.33 748.793 443.455C748.793 442.591 748.662 441.815 748.401 441.128C748.145 440.44 747.759 439.898 747.242 439.5C746.731 439.102 746.091 438.903 745.324 438.903C744.586 438.903 743.961 439.094 743.449 439.474C742.944 439.855 742.56 440.386 742.299 441.068C742.037 441.75 741.907 442.545 741.907 443.455ZM759.016 450.264C757.789 450.264 756.718 449.983 755.803 449.42C754.888 448.858 754.178 448.071 753.672 447.06C753.167 446.048 752.914 444.866 752.914 443.514C752.914 442.156 753.167 440.969 753.672 439.952C754.178 438.935 754.888 438.145 755.803 437.582C756.718 437.02 757.789 436.739 759.016 436.739C760.243 436.739 761.314 437.02 762.229 437.582C763.144 438.145 763.854 438.935 764.36 439.952C764.866 440.969 765.118 442.156 765.118 443.514C765.118 444.866 764.866 446.048 764.36 447.06C763.854 448.071 763.144 448.858 762.229 449.42C761.314 449.983 760.243 450.264 759.016 450.264ZM759.025 448.125C759.82 448.125 760.479 447.915 761.002 447.494C761.525 447.074 761.911 446.514 762.161 445.815C762.417 445.116 762.545 444.347 762.545 443.506C762.545 442.67 762.417 441.903 762.161 441.205C761.911 440.5 761.525 439.935 761.002 439.509C760.479 439.082 759.82 438.869 759.025 438.869C758.224 438.869 757.559 439.082 757.03 439.509C756.508 439.935 756.118 440.5 755.863 441.205C755.613 441.903 755.488 442.67 755.488 443.506C755.488 444.347 755.613 445.116 755.863 445.815C756.118 446.514 756.508 447.074 757.03 447.494C757.559 447.915 758.224 448.125 759.025 448.125ZM767.243 450V436.909H772.672C774.149 436.909 775.32 437.224 776.183 437.855C777.047 438.48 777.479 439.33 777.479 440.403C777.479 441.17 777.234 441.778 776.746 442.227C776.257 442.676 775.609 442.977 774.803 443.131C775.388 443.199 775.925 443.375 776.413 443.659C776.902 443.937 777.294 444.312 777.59 444.784C777.891 445.256 778.041 445.818 778.041 446.472C778.041 447.165 777.862 447.778 777.504 448.312C777.146 448.841 776.626 449.256 775.945 449.557C775.268 449.852 774.453 450 773.499 450H767.243ZM769.638 447.869H773.499C774.129 447.869 774.624 447.719 774.982 447.418C775.34 447.116 775.518 446.707 775.518 446.19C775.518 445.582 775.34 445.105 774.982 444.759C774.624 444.406 774.129 444.23 773.499 444.23H769.638V447.869ZM769.638 442.364H772.697C773.175 442.364 773.584 442.295 773.925 442.159C774.271 442.023 774.536 441.83 774.717 441.58C774.905 441.324 774.999 441.023 774.999 440.676C774.999 440.17 774.791 439.776 774.376 439.491C773.962 439.207 773.393 439.065 772.672 439.065H769.638V442.364ZM785.759 450.264C784.469 450.264 783.358 449.989 782.426 449.438C781.5 448.881 780.784 448.099 780.279 447.094C779.779 446.082 779.529 444.898 779.529 443.54C779.529 442.199 779.779 441.017 780.279 439.994C780.784 438.972 781.489 438.173 782.392 437.599C783.301 437.026 784.364 436.739 785.58 436.739C786.318 436.739 787.034 436.861 787.727 437.105C788.421 437.349 789.043 437.733 789.594 438.256C790.145 438.778 790.58 439.457 790.898 440.293C791.216 441.122 791.375 442.131 791.375 443.318V444.222H780.969V442.312H788.878C788.878 441.642 788.742 441.048 788.469 440.531C788.196 440.009 787.813 439.597 787.318 439.295C786.83 438.994 786.256 438.844 785.597 438.844C784.881 438.844 784.256 439.02 783.722 439.372C783.193 439.719 782.784 440.173 782.494 440.736C782.21 441.293 782.068 441.898 782.068 442.551V444.043C782.068 444.918 782.222 445.662 782.529 446.276C782.841 446.889 783.276 447.358 783.833 447.682C784.389 448 785.04 448.159 785.784 448.159C786.267 448.159 786.708 448.091 787.105 447.955C787.503 447.812 787.847 447.602 788.137 447.324C788.426 447.045 788.648 446.702 788.801 446.293L791.213 446.727C791.02 447.437 790.673 448.06 790.173 448.594C789.679 449.122 789.057 449.534 788.307 449.83C787.563 450.119 786.713 450.264 785.759 450.264ZM793.483 454.909V436.909H795.971V439.031H796.184C796.332 438.759 796.545 438.443 796.824 438.085C797.102 437.727 797.488 437.415 797.983 437.148C798.477 436.875 799.13 436.739 799.943 436.739C801 436.739 801.943 437.006 802.772 437.54C803.602 438.074 804.252 438.844 804.724 439.849C805.201 440.855 805.44 442.065 805.44 443.48C805.44 444.895 805.204 446.108 804.733 447.119C804.261 448.125 803.613 448.901 802.789 449.446C801.966 449.986 801.025 450.256 799.968 450.256C799.173 450.256 798.522 450.122 798.017 449.855C797.517 449.588 797.125 449.276 796.841 448.918C796.556 448.56 796.338 448.241 796.184 447.963H796.031V454.909H793.483ZM795.98 443.455C795.98 444.375 796.113 445.182 796.38 445.875C796.647 446.568 797.034 447.111 797.539 447.503C798.045 447.889 798.664 448.082 799.397 448.082C800.159 448.082 800.795 447.881 801.306 447.477C801.818 447.068 802.204 446.514 802.466 445.815C802.733 445.116 802.866 444.33 802.866 443.455C802.866 442.591 802.735 441.815 802.474 441.128C802.218 440.44 801.832 439.898 801.315 439.5C800.804 439.102 800.164 438.903 799.397 438.903C798.659 438.903 798.034 439.094 797.522 439.474C797.017 439.855 796.633 440.386 796.372 441.068C796.11 441.75 795.98 442.545 795.98 443.455ZM813.089 450.264C811.862 450.264 810.791 449.983 809.876 449.42C808.961 448.858 808.251 448.071 807.746 447.06C807.24 446.048 806.987 444.866 806.987 443.514C806.987 442.156 807.24 440.969 807.746 439.952C808.251 438.935 808.961 438.145 809.876 437.582C810.791 437.02 811.862 436.739 813.089 436.739C814.317 436.739 815.388 437.02 816.302 437.582C817.217 438.145 817.927 438.935 818.433 439.952C818.939 440.969 819.192 442.156 819.192 443.514C819.192 444.866 818.939 446.048 818.433 447.06C817.927 448.071 817.217 448.858 816.302 449.42C815.388 449.983 814.317 450.264 813.089 450.264ZM813.098 448.125C813.893 448.125 814.552 447.915 815.075 447.494C815.598 447.074 815.984 446.514 816.234 445.815C816.49 445.116 816.618 444.347 816.618 443.506C816.618 442.67 816.49 441.903 816.234 441.205C815.984 440.5 815.598 439.935 815.075 439.509C814.552 439.082 813.893 438.869 813.098 438.869C812.297 438.869 811.632 439.082 811.104 439.509C810.581 439.935 810.192 440.5 809.936 441.205C809.686 441.903 809.561 442.67 809.561 443.506C809.561 444.347 809.686 445.116 809.936 445.815C810.192 446.514 810.581 447.074 811.104 447.494C811.632 447.915 812.297 448.125 813.098 448.125ZM821.316 450V436.909H823.864V442.398H825.092L829.413 436.909H832.566L827.495 443.276L832.626 450H829.464L825.518 444.767H823.864V450H821.316Z" fill="black"/>
<rect x="265" y="177" width="195" height="136" rx="30" fill="#FFB917"/>
<rect x="504" y="177" width="195" height="136" rx="30" fill="#FF9717"/>
<rect x="743" y="177" width="195" height="136" rx="30" fill="#FFCD17"/>
<rect x="26" y="177" width="195" height="136" rx="30" fill="#FFCD17" fill-opacity="0.65"/>
<path d="M59.7324 258V231.818H77.3744V236.382H65.2679V242.621H76.4667V247.185H65.2679V253.436H77.4255V258H59.7324ZM86.0391 246.648V258H80.5931V238.364H85.7834V241.828H86.0135C86.4482 240.686 87.1769 239.783 88.1996 239.118C89.2223 238.445 90.4624 238.108 91.9198 238.108C93.2834 238.108 94.4723 238.406 95.4865 239.003C96.5007 239.599 97.2891 240.452 97.8516 241.56C98.4141 242.659 98.6953 243.972 98.6953 245.497V258H93.2493V246.469C93.2578 245.267 92.951 244.33 92.3289 243.656C91.7067 242.974 90.8502 242.634 89.7593 242.634C89.0263 242.634 88.3786 242.791 87.8161 243.107C87.2621 243.422 86.8274 243.882 86.5121 244.487C86.2053 245.084 86.0476 245.804 86.0391 246.648ZM112.352 238.364V242.455H100.527V238.364H112.352ZM103.212 233.659H108.658V251.966C108.658 252.469 108.734 252.861 108.888 253.142C109.041 253.415 109.254 253.607 109.527 253.717C109.808 253.828 110.132 253.884 110.498 253.884C110.754 253.884 111.01 253.862 111.266 253.82C111.521 253.768 111.717 253.73 111.854 253.705L112.71 257.757C112.437 257.842 112.054 257.94 111.56 258.051C111.065 258.17 110.464 258.243 109.757 258.268C108.445 258.32 107.294 258.145 106.305 257.744C105.325 257.344 104.562 256.722 104.017 255.878C103.472 255.034 103.203 253.969 103.212 252.682V233.659ZM114.82 258V238.364H120.1V241.79H120.304C120.662 240.571 121.263 239.651 122.107 239.028C122.95 238.398 123.922 238.082 125.021 238.082C125.294 238.082 125.588 238.099 125.904 238.134C126.219 238.168 126.496 238.214 126.735 238.274V243.107C126.479 243.03 126.125 242.962 125.673 242.902C125.222 242.842 124.808 242.812 124.433 242.812C123.632 242.812 122.916 242.987 122.286 243.337C121.664 243.678 121.169 244.155 120.803 244.768C120.445 245.382 120.266 246.089 120.266 246.891V258H114.82ZM136.428 258.384C134.443 258.384 132.725 257.962 131.276 257.118C129.836 256.266 128.724 255.081 127.94 253.564C127.156 252.038 126.764 250.27 126.764 248.259C126.764 246.23 127.156 244.457 127.94 242.94C128.724 241.415 129.836 240.23 131.276 239.386C132.725 238.534 134.443 238.108 136.428 238.108C138.414 238.108 140.127 238.534 141.568 239.386C143.016 240.23 144.133 241.415 144.917 242.94C145.701 244.457 146.093 246.23 146.093 248.259C146.093 250.27 145.701 252.038 144.917 253.564C144.133 255.081 143.016 256.266 141.568 257.118C140.127 257.962 138.414 258.384 136.428 258.384ZM136.454 254.165C137.357 254.165 138.112 253.909 138.717 253.398C139.322 252.878 139.778 252.17 140.085 251.276C140.4 250.381 140.558 249.362 140.558 248.22C140.558 247.078 140.4 246.06 140.085 245.165C139.778 244.27 139.322 243.562 138.717 243.043C138.112 242.523 137.357 242.263 136.454 242.263C135.542 242.263 134.775 242.523 134.153 243.043C133.539 243.562 133.075 244.27 132.759 245.165C132.452 246.06 132.299 247.078 132.299 248.22C132.299 249.362 132.452 250.381 132.759 251.276C133.075 252.17 133.539 252.878 134.153 253.398C134.775 253.909 135.542 254.165 136.454 254.165ZM148.554 265.364V238.364H153.924V241.662H154.167C154.405 241.134 154.75 240.597 155.202 240.051C155.662 239.497 156.259 239.037 156.992 238.67C157.733 238.295 158.654 238.108 159.753 238.108C161.185 238.108 162.506 238.483 163.716 239.233C164.926 239.974 165.894 241.095 166.618 242.595C167.343 244.087 167.705 245.957 167.705 248.207C167.705 250.398 167.351 252.247 166.644 253.756C165.945 255.256 164.99 256.393 163.78 257.169C162.578 257.936 161.232 258.32 159.74 258.32C158.684 258.32 157.784 258.145 157.043 257.795C156.31 257.446 155.709 257.007 155.24 256.479C154.772 255.942 154.414 255.401 154.167 254.855H154V265.364H148.554ZM153.885 248.182C153.885 249.349 154.047 250.368 154.371 251.237C154.695 252.107 155.164 252.784 155.777 253.27C156.391 253.747 157.137 253.986 158.015 253.986C158.901 253.986 159.651 253.743 160.265 253.257C160.878 252.763 161.343 252.081 161.658 251.212C161.982 250.334 162.144 249.324 162.144 248.182C162.144 247.048 161.986 246.051 161.671 245.19C161.355 244.33 160.891 243.656 160.277 243.17C159.664 242.685 158.909 242.442 158.015 242.442C157.128 242.442 156.378 242.676 155.765 243.145C155.159 243.614 154.695 244.278 154.371 245.139C154.047 246 153.885 247.014 153.885 248.182ZM172.985 265.364C172.295 265.364 171.647 265.308 171.042 265.197C170.445 265.095 169.951 264.963 169.559 264.801L170.786 260.736C171.425 260.932 172.001 261.038 172.512 261.055C173.032 261.072 173.479 260.953 173.854 260.697C174.238 260.442 174.549 260.007 174.788 259.393L175.107 258.562L168.063 238.364H173.79L177.856 252.784H178.06L182.164 238.364H187.93L180.297 260.122C179.931 261.179 179.432 262.099 178.802 262.884C178.18 263.676 177.391 264.286 176.437 264.712C175.482 265.146 174.332 265.364 172.985 265.364Z" fill="black"/>
<path d="M320.766 240.984H315.166C315.064 240.26 314.855 239.616 314.54 239.054C314.225 238.483 313.82 237.997 313.326 237.597C312.831 237.196 312.26 236.889 311.612 236.676C310.973 236.463 310.279 236.357 309.529 236.357C308.174 236.357 306.993 236.693 305.987 237.366C304.982 238.031 304.202 239.003 303.648 240.281C303.094 241.551 302.817 243.094 302.817 244.909C302.817 246.776 303.094 248.344 303.648 249.614C304.21 250.884 304.995 251.842 306 252.49C307.006 253.138 308.169 253.462 309.49 253.462C310.232 253.462 310.918 253.364 311.549 253.168C312.188 252.972 312.755 252.686 313.249 252.311C313.743 251.928 314.152 251.463 314.476 250.918C314.808 250.372 315.039 249.75 315.166 249.051L320.766 249.077C320.621 250.278 320.259 251.438 319.679 252.554C319.108 253.662 318.337 254.655 317.365 255.533C316.402 256.402 315.252 257.092 313.914 257.604C312.584 258.107 311.08 258.358 309.401 258.358C307.066 258.358 304.978 257.83 303.137 256.773C301.304 255.716 299.855 254.186 298.79 252.183C297.733 250.18 297.205 247.756 297.205 244.909C297.205 242.054 297.742 239.625 298.816 237.622C299.889 235.619 301.347 234.094 303.188 233.045C305.029 231.989 307.1 231.46 309.401 231.46C310.918 231.46 312.324 231.673 313.62 232.099C314.924 232.526 316.078 233.148 317.084 233.966C318.09 234.776 318.908 235.768 319.539 236.945C320.178 238.121 320.587 239.467 320.766 240.984ZM332.425 258.384C330.439 258.384 328.722 257.962 327.273 257.118C325.833 256.266 324.721 255.081 323.937 253.564C323.152 252.038 322.76 250.27 322.76 248.259C322.76 246.23 323.152 244.457 323.937 242.94C324.721 241.415 325.833 240.23 327.273 239.386C328.722 238.534 330.439 238.108 332.425 238.108C334.411 238.108 336.124 238.534 337.564 239.386C339.013 240.23 340.13 241.415 340.914 242.94C341.698 244.457 342.09 246.23 342.09 248.259C342.09 250.27 341.698 252.038 340.914 253.564C340.13 255.081 339.013 256.266 337.564 257.118C336.124 257.962 334.411 258.384 332.425 258.384ZM332.451 254.165C333.354 254.165 334.108 253.909 334.714 253.398C335.319 252.878 335.775 252.17 336.081 251.276C336.397 250.381 336.554 249.362 336.554 248.22C336.554 247.078 336.397 246.06 336.081 245.165C335.775 244.27 335.319 243.562 334.714 243.043C334.108 242.523 333.354 242.263 332.451 242.263C331.539 242.263 330.772 242.523 330.15 243.043C329.536 243.562 329.072 244.27 328.756 245.165C328.449 246.06 328.296 247.078 328.296 248.22C328.296 249.362 328.449 250.381 328.756 251.276C329.072 252.17 329.536 252.878 330.15 253.398C330.772 253.909 331.539 254.165 332.451 254.165ZM344.551 258V238.364H349.742V241.828H349.972C350.381 240.678 351.063 239.77 352.017 239.105C352.972 238.44 354.114 238.108 355.443 238.108C356.79 238.108 357.936 238.445 358.882 239.118C359.828 239.783 360.459 240.686 360.774 241.828H360.979C361.379 240.703 362.104 239.804 363.152 239.131C364.209 238.449 365.457 238.108 366.898 238.108C368.73 238.108 370.217 238.692 371.359 239.859C372.51 241.018 373.085 242.663 373.085 244.794V258H367.652V245.868C367.652 244.777 367.362 243.959 366.783 243.413C366.203 242.868 365.479 242.595 364.609 242.595C363.621 242.595 362.849 242.911 362.296 243.541C361.742 244.163 361.465 244.986 361.465 246.009V258H356.185V245.753C356.185 244.79 355.908 244.023 355.354 243.452C354.808 242.881 354.088 242.595 353.193 242.595C352.588 242.595 352.043 242.749 351.557 243.055C351.08 243.354 350.7 243.776 350.419 244.321C350.138 244.858 349.997 245.489 349.997 246.213V258H344.551ZM376.307 258V238.364H381.497V241.828H381.728C382.137 240.678 382.818 239.77 383.773 239.105C384.728 238.44 385.87 238.108 387.199 238.108C388.546 238.108 389.692 238.445 390.638 239.118C391.584 239.783 392.215 240.686 392.53 241.828H392.735C393.135 240.703 393.86 239.804 394.908 239.131C395.965 238.449 397.213 238.108 398.654 238.108C400.486 238.108 401.973 238.692 403.115 239.859C404.266 241.018 404.841 242.663 404.841 244.794V258H399.408V245.868C399.408 244.777 399.118 243.959 398.539 243.413C397.959 242.868 397.235 242.595 396.365 242.595C395.377 242.595 394.605 242.911 394.051 243.541C393.497 244.163 393.22 244.986 393.22 246.009V258H387.941V245.753C387.941 244.79 387.664 244.023 387.11 243.452C386.564 242.881 385.844 242.595 384.949 242.595C384.344 242.595 383.799 242.749 383.313 243.055C382.836 243.354 382.456 243.776 382.175 244.321C381.894 244.858 381.753 245.489 381.753 246.213V258H376.307ZM408.063 258V238.364H413.509V258H408.063ZM410.799 235.832C409.989 235.832 409.295 235.564 408.715 235.027C408.144 234.482 407.859 233.83 407.859 233.071C407.859 232.321 408.144 231.678 408.715 231.141C409.295 230.595 409.989 230.322 410.799 230.322C411.609 230.322 412.299 230.595 412.87 231.141C413.449 231.678 413.739 232.321 413.739 233.071C413.739 233.83 413.449 234.482 412.87 235.027C412.299 235.564 411.609 235.832 410.799 235.832ZM427.236 238.364V242.455H415.411V238.364H427.236ZM418.096 233.659H423.542V251.966C423.542 252.469 423.618 252.861 423.772 253.142C423.925 253.415 424.138 253.607 424.411 253.717C424.692 253.828 425.016 253.884 425.383 253.884C425.638 253.884 425.894 253.862 426.15 253.82C426.405 253.768 426.601 253.73 426.738 253.705L427.594 257.757C427.321 257.842 426.938 257.94 426.444 258.051C425.949 258.17 425.348 258.243 424.641 258.268C423.329 258.32 422.178 258.145 421.189 257.744C420.209 257.344 419.446 256.722 418.901 255.878C418.356 255.034 418.087 253.969 418.096 252.682V233.659Z" fill="black"/>
<path d="M540.575 258V231.818H551.058C552.984 231.818 554.591 232.104 555.878 232.675C557.165 233.246 558.132 234.038 558.78 235.053C559.427 236.058 559.751 237.217 559.751 238.53C559.751 239.553 559.547 240.452 559.138 241.227C558.729 241.994 558.166 242.625 557.45 243.119C556.743 243.605 555.933 243.95 555.021 244.155V244.411C556.018 244.453 556.952 244.734 557.821 245.254C558.699 245.774 559.41 246.503 559.956 247.44C560.501 248.369 560.774 249.477 560.774 250.764C560.774 252.153 560.429 253.393 559.739 254.484C559.057 255.567 558.047 256.423 556.709 257.054C555.371 257.685 553.721 258 551.761 258H540.575ZM546.111 253.474H550.623C552.166 253.474 553.291 253.18 553.998 252.592C554.706 251.996 555.06 251.203 555.06 250.214C555.06 249.49 554.885 248.851 554.535 248.297C554.186 247.743 553.687 247.308 553.04 246.993C552.4 246.678 551.638 246.52 550.751 246.52H546.111V253.474ZM546.111 242.774H550.214C550.973 242.774 551.646 242.642 552.234 242.378C552.831 242.105 553.3 241.722 553.641 241.227C553.99 240.733 554.165 240.141 554.165 239.45C554.165 238.504 553.828 237.741 553.155 237.162C552.49 236.582 551.544 236.293 550.317 236.293H546.111V242.774ZM572.143 258.384C570.123 258.384 568.384 257.974 566.927 257.156C565.478 256.33 564.361 255.162 563.577 253.653C562.793 252.136 562.401 250.342 562.401 248.271C562.401 246.251 562.793 244.479 563.577 242.953C564.361 241.428 565.465 240.239 566.888 239.386C568.32 238.534 569.999 238.108 571.925 238.108C573.221 238.108 574.427 238.317 575.543 238.734C576.668 239.143 577.648 239.761 578.483 240.588C579.327 241.415 579.983 242.455 580.452 243.707C580.921 244.952 581.155 246.409 581.155 248.08V249.575H564.574V246.2H576.029C576.029 245.416 575.858 244.722 575.518 244.116C575.177 243.511 574.704 243.038 574.099 242.697C573.502 242.348 572.807 242.173 572.015 242.173C571.188 242.173 570.455 242.365 569.816 242.749C569.185 243.124 568.691 243.631 568.333 244.27C567.975 244.901 567.792 245.604 567.783 246.379V249.588C567.783 250.56 567.962 251.399 568.32 252.107C568.687 252.814 569.202 253.359 569.867 253.743C570.532 254.126 571.32 254.318 572.232 254.318C572.837 254.318 573.391 254.233 573.894 254.062C574.397 253.892 574.827 253.636 575.185 253.295C575.543 252.955 575.816 252.537 576.003 252.043L581.04 252.375C580.785 253.585 580.26 254.642 579.468 255.545C578.684 256.44 577.67 257.139 576.425 257.642C575.189 258.136 573.762 258.384 572.143 258.384ZM589.229 258.371C587.976 258.371 586.859 258.153 585.879 257.719C584.899 257.276 584.124 256.624 583.553 255.763C582.99 254.893 582.709 253.811 582.709 252.516C582.709 251.425 582.909 250.509 583.31 249.767C583.71 249.026 584.256 248.429 584.946 247.977C585.636 247.526 586.421 247.185 587.298 246.955C588.185 246.724 589.114 246.562 590.085 246.469C591.227 246.349 592.148 246.239 592.847 246.136C593.546 246.026 594.053 245.864 594.368 245.651C594.683 245.437 594.841 245.122 594.841 244.705V244.628C594.841 243.818 594.585 243.192 594.074 242.749C593.571 242.305 592.855 242.084 591.926 242.084C590.946 242.084 590.166 242.301 589.587 242.736C589.007 243.162 588.624 243.699 588.436 244.347L583.399 243.938C583.655 242.744 584.158 241.713 584.908 240.844C585.658 239.966 586.625 239.293 587.81 238.824C589.003 238.347 590.384 238.108 591.952 238.108C593.043 238.108 594.087 238.236 595.084 238.491C596.09 238.747 596.98 239.143 597.756 239.68C598.54 240.217 599.158 240.908 599.609 241.751C600.061 242.587 600.287 243.588 600.287 244.756V258H595.122V255.277H594.969C594.653 255.891 594.232 256.432 593.703 256.901C593.175 257.361 592.54 257.723 591.798 257.987C591.057 258.243 590.2 258.371 589.229 258.371ZM590.788 254.612C591.59 254.612 592.297 254.455 592.911 254.139C593.524 253.815 594.006 253.381 594.355 252.835C594.705 252.29 594.879 251.672 594.879 250.982V248.898C594.709 249.009 594.474 249.111 594.176 249.205C593.886 249.29 593.558 249.371 593.192 249.447C592.825 249.516 592.459 249.58 592.092 249.639C591.726 249.69 591.394 249.737 591.095 249.78C590.456 249.874 589.898 250.023 589.421 250.227C588.943 250.432 588.572 250.709 588.308 251.058C588.044 251.399 587.912 251.825 587.912 252.337C587.912 253.078 588.18 253.645 588.717 254.037C589.263 254.42 589.953 254.612 590.788 254.612ZM612.304 258.384C610.293 258.384 608.563 257.957 607.114 257.105C605.674 256.244 604.566 255.051 603.79 253.526C603.023 252 602.64 250.244 602.64 248.259C602.64 246.247 603.027 244.483 603.803 242.966C604.587 241.44 605.699 240.251 607.14 239.399C608.58 238.538 610.293 238.108 612.279 238.108C613.992 238.108 615.492 238.419 616.779 239.041C618.066 239.663 619.084 240.537 619.834 241.662C620.584 242.787 620.997 244.108 621.074 245.625H615.935C615.79 244.645 615.407 243.857 614.784 243.26C614.171 242.655 613.365 242.352 612.368 242.352C611.524 242.352 610.787 242.582 610.157 243.043C609.534 243.494 609.049 244.155 608.699 245.024C608.35 245.893 608.175 246.946 608.175 248.182C608.175 249.435 608.345 250.5 608.686 251.378C609.036 252.256 609.526 252.925 610.157 253.385C610.787 253.845 611.524 254.075 612.368 254.075C612.99 254.075 613.549 253.947 614.043 253.692C614.546 253.436 614.959 253.065 615.283 252.58C615.615 252.085 615.833 251.493 615.935 250.803H621.074C620.989 252.303 620.58 253.624 619.847 254.766C619.122 255.899 618.121 256.786 616.843 257.425C615.564 258.064 614.051 258.384 612.304 258.384ZM632.353 258.384C630.367 258.384 628.65 257.962 627.201 257.118C625.761 256.266 624.649 255.081 623.865 253.564C623.08 252.038 622.688 250.27 622.688 248.259C622.688 246.23 623.08 244.457 623.865 242.94C624.649 241.415 625.761 240.23 627.201 239.386C628.65 238.534 630.367 238.108 632.353 238.108C634.339 238.108 636.052 238.534 637.492 239.386C638.941 240.23 640.058 241.415 640.842 242.94C641.626 244.457 642.018 246.23 642.018 248.259C642.018 250.27 641.626 252.038 640.842 253.564C640.058 255.081 638.941 256.266 637.492 257.118C636.052 257.962 634.339 258.384 632.353 258.384ZM632.379 254.165C633.282 254.165 634.036 253.909 634.642 253.398C635.247 252.878 635.703 252.17 636.009 251.276C636.325 250.381 636.482 249.362 636.482 248.22C636.482 247.078 636.325 246.06 636.009 245.165C635.703 244.27 635.247 243.562 634.642 243.043C634.036 242.523 633.282 242.263 632.379 242.263C631.467 242.263 630.7 242.523 630.078 243.043C629.464 243.562 629 244.27 628.684 245.165C628.377 246.06 628.224 247.078 628.224 248.22C628.224 249.362 628.377 250.381 628.684 251.276C629 252.17 629.464 252.878 630.078 253.398C630.7 253.909 631.467 254.165 632.379 254.165ZM649.925 246.648V258H644.479V238.364H649.669V241.828H649.9C650.334 240.686 651.063 239.783 652.086 239.118C653.108 238.445 654.348 238.108 655.806 238.108C657.169 238.108 658.358 238.406 659.373 239.003C660.387 239.599 661.175 240.452 661.738 241.56C662.3 242.659 662.581 243.972 662.581 245.497V258H657.135V246.469C657.144 245.267 656.837 244.33 656.215 243.656C655.593 242.974 654.736 242.634 653.645 242.634C652.912 242.634 652.265 242.791 651.702 243.107C651.148 243.422 650.714 243.882 650.398 244.487C650.091 245.084 649.934 245.804 649.925 246.648Z" fill="black"/>
<path d="M807.678 244.909C807.678 247.764 807.137 250.193 806.054 252.196C804.98 254.199 803.514 255.729 801.656 256.786C799.807 257.834 797.728 258.358 795.418 258.358C793.091 258.358 791.003 257.83 789.154 256.773C787.304 255.716 785.843 254.186 784.769 252.183C783.695 250.18 783.158 247.756 783.158 244.909C783.158 242.054 783.695 239.625 784.769 237.622C785.843 235.619 787.304 234.094 789.154 233.045C791.003 231.989 793.091 231.46 795.418 231.46C797.728 231.46 799.807 231.989 801.656 233.045C803.514 234.094 804.98 235.619 806.054 237.622C807.137 239.625 807.678 242.054 807.678 244.909ZM802.066 244.909C802.066 243.06 801.789 241.5 801.235 240.23C800.689 238.96 799.918 237.997 798.921 237.341C797.924 236.685 796.756 236.357 795.418 236.357C794.08 236.357 792.912 236.685 791.915 237.341C790.918 237.997 790.142 238.96 789.588 240.23C789.043 241.5 788.77 243.06 788.77 244.909C788.77 246.759 789.043 248.318 789.588 249.588C790.142 250.858 790.918 251.821 791.915 252.477C792.912 253.134 794.08 253.462 795.418 253.462C796.756 253.462 797.924 253.134 798.921 252.477C799.918 251.821 800.689 250.858 801.235 249.588C801.789 248.318 802.066 246.759 802.066 244.909ZM823.188 249.639V238.364H828.634V258H823.406V254.433H823.201C822.758 255.584 822.021 256.509 820.989 257.207C819.967 257.906 818.718 258.256 817.244 258.256C815.931 258.256 814.776 257.957 813.779 257.361C812.782 256.764 812.002 255.916 811.44 254.817C810.886 253.717 810.605 252.401 810.596 250.866V238.364H816.042V249.895C816.051 251.054 816.362 251.97 816.975 252.643C817.589 253.317 818.411 253.653 819.443 253.653C820.099 253.653 820.713 253.504 821.284 253.206C821.855 252.899 822.315 252.447 822.664 251.851C823.022 251.254 823.197 250.517 823.188 249.639ZM842.355 238.364V242.455H830.53V238.364H842.355ZM833.215 233.659H838.661V251.966C838.661 252.469 838.737 252.861 838.891 253.142C839.044 253.415 839.257 253.607 839.53 253.717C839.811 253.828 840.135 253.884 840.501 253.884C840.757 253.884 841.013 253.862 841.269 253.82C841.524 253.768 841.72 253.73 841.857 253.705L842.713 257.757C842.44 257.842 842.057 257.94 841.563 258.051C841.068 258.17 840.467 258.243 839.76 258.268C838.447 258.32 837.297 258.145 836.308 257.744C835.328 257.344 834.565 256.722 834.02 255.878C833.474 255.034 833.206 253.969 833.215 252.682V233.659ZM844.823 265.364V238.364H850.192V241.662H850.435C850.674 241.134 851.019 240.597 851.47 240.051C851.931 239.497 852.527 239.037 853.26 238.67C854.002 238.295 854.922 238.108 856.022 238.108C857.453 238.108 858.774 238.483 859.985 239.233C861.195 239.974 862.162 241.095 862.887 242.595C863.611 244.087 863.973 245.957 863.973 248.207C863.973 250.398 863.62 252.247 862.912 253.756C862.213 255.256 861.259 256.393 860.049 257.169C858.847 257.936 857.5 258.32 856.009 258.32C854.952 258.32 854.053 258.145 853.311 257.795C852.578 257.446 851.978 257.007 851.509 256.479C851.04 255.942 850.682 255.401 850.435 254.855H850.269V265.364H844.823ZM850.154 248.182C850.154 249.349 850.316 250.368 850.64 251.237C850.963 252.107 851.432 252.784 852.046 253.27C852.659 253.747 853.405 253.986 854.283 253.986C855.169 253.986 855.919 253.743 856.533 253.257C857.147 252.763 857.611 252.081 857.926 251.212C858.25 250.334 858.412 249.324 858.412 248.182C858.412 247.048 858.255 246.051 857.939 245.19C857.624 244.33 857.159 243.656 856.546 243.17C855.932 242.685 855.178 242.442 854.283 242.442C853.397 242.442 852.647 242.676 852.033 243.145C851.428 243.614 850.963 244.278 850.64 245.139C850.316 246 850.154 247.014 850.154 248.182ZM879.116 249.639V238.364H884.562V258H879.334V254.433H879.129C878.686 255.584 877.949 256.509 876.917 257.207C875.895 257.906 874.646 258.256 873.172 258.256C871.859 258.256 870.704 257.957 869.707 257.361C868.71 256.764 867.93 255.916 867.368 254.817C866.814 253.717 866.533 252.401 866.524 250.866V238.364H871.97V249.895C871.979 251.054 872.29 251.97 872.903 252.643C873.517 253.317 874.339 253.653 875.371 253.653C876.027 253.653 876.64 253.504 877.212 253.206C877.783 252.899 878.243 252.447 878.592 251.851C878.95 251.254 879.125 250.517 879.116 249.639ZM898.283 238.364V242.455H886.458V238.364H898.283ZM889.143 233.659H894.589V251.966C894.589 252.469 894.665 252.861 894.819 253.142C894.972 253.415 895.185 253.607 895.458 253.717C895.739 253.828 896.063 253.884 896.429 253.884C896.685 253.884 896.941 253.862 897.196 253.82C897.452 253.768 897.648 253.73 897.785 253.705L898.641 257.757C898.368 257.842 897.985 257.94 897.491 258.051C896.996 258.17 896.395 258.243 895.688 258.268C894.375 258.32 893.225 258.145 892.236 257.744C891.256 257.344 890.493 256.722 889.948 255.878C889.402 255.034 889.134 253.969 889.143 252.682V233.659Z" fill="black"/>
<path d="M127.183 133.727V157H122.263V138.398H122.126L116.797 141.739V137.375L122.558 133.727H127.183Z" fill="black"/>
<path d="M354.308 157V153.455L362.592 145.784C363.297 145.102 363.888 144.489 364.365 143.943C364.85 143.398 365.217 142.864 365.467 142.341C365.717 141.811 365.842 141.239 365.842 140.625C365.842 139.943 365.687 139.356 365.376 138.864C365.066 138.364 364.642 137.981 364.104 137.716C363.566 137.443 362.956 137.307 362.274 137.307C361.562 137.307 360.941 137.451 360.411 137.739C359.88 138.027 359.471 138.439 359.183 138.977C358.895 139.515 358.751 140.155 358.751 140.898H354.081C354.081 139.375 354.426 138.053 355.115 136.932C355.804 135.811 356.77 134.943 358.013 134.33C359.255 133.716 360.687 133.409 362.308 133.409C363.975 133.409 365.426 133.705 366.661 134.295C367.903 134.879 368.869 135.689 369.558 136.727C370.248 137.765 370.592 138.955 370.592 140.295C370.592 141.174 370.418 142.042 370.07 142.898C369.729 143.754 369.119 144.705 368.24 145.75C367.361 146.788 366.123 148.034 364.524 149.489L361.126 152.818V152.977H370.899V157H354.308Z" fill="black"/>
<path d="M600.942 157.318C599.245 157.318 597.733 157.027 596.408 156.443C595.089 155.852 594.048 155.042 593.283 154.011C592.525 152.973 592.135 151.777 592.112 150.42H597.067C597.097 150.989 597.283 151.489 597.624 151.92C597.972 152.345 598.434 152.674 599.01 152.909C599.586 153.144 600.233 153.261 600.953 153.261C601.703 153.261 602.366 153.129 602.942 152.864C603.518 152.598 603.968 152.231 604.294 151.761C604.62 151.292 604.783 150.75 604.783 150.136C604.783 149.515 604.608 148.966 604.26 148.489C603.919 148.004 603.427 147.625 602.783 147.352C602.146 147.08 601.389 146.943 600.51 146.943H598.339V143.33H600.51C601.252 143.33 601.908 143.201 602.476 142.943C603.052 142.686 603.499 142.33 603.817 141.875C604.135 141.413 604.294 140.875 604.294 140.261C604.294 139.678 604.154 139.167 603.874 138.727C603.601 138.28 603.214 137.932 602.714 137.682C602.222 137.432 601.646 137.307 600.987 137.307C600.321 137.307 599.711 137.428 599.158 137.67C598.605 137.905 598.161 138.242 597.828 138.682C597.495 139.121 597.317 139.636 597.294 140.227H592.578C592.601 138.886 592.983 137.705 593.726 136.682C594.468 135.659 595.468 134.86 596.726 134.284C597.991 133.701 599.419 133.409 601.01 133.409C602.616 133.409 604.021 133.701 605.226 134.284C606.43 134.867 607.366 135.655 608.033 136.648C608.707 137.633 609.04 138.739 609.033 139.966C609.04 141.269 608.635 142.356 607.817 143.227C607.006 144.098 605.949 144.652 604.646 144.886V145.068C606.358 145.288 607.661 145.883 608.555 146.852C609.457 147.814 609.904 149.019 609.896 150.466C609.904 151.792 609.521 152.97 608.749 154C607.983 155.03 606.927 155.841 605.578 156.432C604.23 157.023 602.684 157.318 600.942 157.318Z" fill="black"/>
<path d="M830.69 152.909V149.034L840.406 133.727H843.747V139.091H841.77L835.645 148.784V148.966H849.452V152.909H830.69ZM841.861 157V151.727L841.952 150.011V133.727H846.565V157H841.861Z" fill="black"/>
</g>
<defs>
<clipPath id="clip0_46_107">
<rect width="964" height="525" fill="white"/>
</clipPath>
</defs>
</svg>
