<svg width="964" height="525" viewBox="0 0 964 525" fill="none" xmlns="http://www.w3.org/2000/svg">
<g clip-path="url(#clip0_53_8)">
<rect width="964" height="525" rx="45" fill="#E0F7FF"/>
<path d="M131.789 433.545V451H129.164V435.795H120.948V451H118.323V433.545H131.789ZM142.698 451V440.082H139.562C138.817 440.082 138.238 440.256 137.823 440.602C137.408 440.949 137.201 441.403 137.201 441.966C137.201 442.523 137.391 442.972 137.772 443.312C138.158 443.648 138.698 443.815 139.391 443.815H143.44V445.878H139.391C138.425 445.878 137.59 445.719 136.886 445.401C136.187 445.077 135.647 444.619 135.266 444.028C134.891 443.437 134.704 442.739 134.704 441.932C134.704 441.108 134.897 440.398 135.283 439.801C135.675 439.199 136.235 438.733 136.962 438.403C137.695 438.074 138.562 437.909 139.562 437.909H145.093V451H142.698ZM134.107 451L137.798 444.386H140.406L136.715 451H134.107ZM146.142 440.108V437.909H157.187V440.108H152.917V451H150.428V440.108H146.142ZM161.08 442.409H164.881C166.483 442.409 167.716 442.807 168.58 443.602C169.444 444.398 169.875 445.423 169.875 446.679C169.875 447.497 169.682 448.233 169.296 448.886C168.909 449.54 168.344 450.057 167.6 450.438C166.855 450.812 165.949 451 164.881 451H159.162V437.909H161.659V448.801H164.881C165.614 448.801 166.216 448.611 166.688 448.23C167.159 447.844 167.395 447.352 167.395 446.756C167.395 446.125 167.159 445.611 166.688 445.213C166.216 444.81 165.614 444.608 164.881 444.608H161.08V442.409ZM186.491 443.006V445.861H179.656V443.006H186.491ZM180.849 437.909V451H177.38V437.909H180.849ZM188.766 437.909V451H185.323V437.909H188.766ZM196.829 451.256C195.482 451.256 194.323 450.983 193.352 450.438C192.386 449.886 191.641 449.108 191.119 448.102C190.596 447.091 190.335 445.895 190.335 444.514C190.335 443.168 190.596 441.986 191.119 440.969C191.641 439.952 192.377 439.159 193.326 438.591C194.281 438.023 195.4 437.739 196.684 437.739C197.548 437.739 198.352 437.878 199.096 438.156C199.846 438.429 200.499 438.841 201.056 439.392C201.619 439.943 202.056 440.636 202.369 441.472C202.681 442.301 202.838 443.273 202.838 444.386V445.384H191.784V443.134H199.42C199.42 442.611 199.306 442.148 199.079 441.744C198.852 441.341 198.536 441.026 198.133 440.798C197.735 440.565 197.272 440.449 196.744 440.449C196.193 440.449 195.704 440.577 195.278 440.832C194.857 441.082 194.528 441.42 194.289 441.847C194.051 442.267 193.928 442.736 193.923 443.253V445.392C193.923 446.04 194.042 446.599 194.281 447.071C194.525 447.543 194.869 447.906 195.312 448.162C195.755 448.418 196.281 448.545 196.889 448.545C197.292 448.545 197.661 448.489 197.997 448.375C198.332 448.261 198.619 448.091 198.857 447.864C199.096 447.636 199.278 447.358 199.403 447.028L202.761 447.25C202.59 448.057 202.241 448.761 201.713 449.364C201.19 449.96 200.514 450.426 199.684 450.761C198.86 451.091 197.909 451.256 196.829 451.256ZM203.814 447.293H207.333C207.35 447.724 207.544 448.065 207.913 448.315C208.282 448.565 208.76 448.69 209.345 448.69C209.936 448.69 210.433 448.554 210.836 448.281C211.24 448.003 211.441 447.605 211.441 447.088C211.441 446.77 211.362 446.494 211.203 446.261C211.044 446.023 210.822 445.835 210.538 445.699C210.254 445.562 209.924 445.494 209.549 445.494H207.666V443.116H209.549C210.112 443.116 210.544 442.986 210.845 442.724C211.152 442.463 211.305 442.136 211.305 441.744C211.305 441.301 211.146 440.946 210.828 440.679C210.515 440.406 210.092 440.27 209.558 440.27C209.018 440.27 208.569 440.392 208.211 440.636C207.859 440.875 207.677 441.187 207.666 441.574H204.163C204.174 440.79 204.41 440.111 204.87 439.537C205.336 438.963 205.961 438.52 206.745 438.207C207.535 437.895 208.419 437.739 209.396 437.739C210.464 437.739 211.385 437.889 212.157 438.19C212.936 438.486 213.532 438.909 213.947 439.46C214.368 440.011 214.578 440.668 214.578 441.429C214.578 442.122 214.35 442.702 213.896 443.168C213.441 443.634 212.805 443.966 211.987 444.165V444.301C212.527 444.335 213.015 444.48 213.453 444.736C213.89 444.991 214.24 445.344 214.501 445.793C214.762 446.236 214.893 446.761 214.893 447.369C214.893 448.182 214.654 448.878 214.177 449.457C213.706 450.037 213.052 450.483 212.217 450.795C211.387 451.102 210.436 451.256 209.362 451.256C208.316 451.256 207.379 451.105 206.549 450.804C205.725 450.497 205.069 450.048 204.581 449.457C204.098 448.866 203.842 448.145 203.814 447.293ZM220.133 451.247C219.297 451.247 218.553 451.102 217.9 450.812C217.246 450.517 216.729 450.082 216.349 449.509C215.974 448.929 215.786 448.207 215.786 447.344C215.786 446.616 215.92 446.006 216.187 445.511C216.454 445.017 216.817 444.619 217.277 444.318C217.738 444.017 218.26 443.79 218.846 443.636C219.437 443.483 220.056 443.375 220.704 443.312C221.465 443.233 222.079 443.159 222.545 443.091C223.01 443.017 223.349 442.909 223.559 442.767C223.769 442.625 223.874 442.415 223.874 442.136V442.085C223.874 441.545 223.704 441.128 223.363 440.832C223.027 440.537 222.55 440.389 221.931 440.389C221.277 440.389 220.758 440.534 220.371 440.824C219.985 441.108 219.729 441.466 219.604 441.898L216.246 441.625C216.417 440.83 216.752 440.142 217.252 439.562C217.752 438.977 218.397 438.528 219.187 438.216C219.982 437.898 220.902 437.739 221.948 437.739C222.675 437.739 223.371 437.824 224.036 437.994C224.706 438.165 225.3 438.429 225.817 438.787C226.34 439.145 226.752 439.605 227.053 440.168C227.354 440.724 227.505 441.392 227.505 442.17V451H224.062V449.185H223.959C223.749 449.594 223.468 449.955 223.116 450.267C222.763 450.574 222.34 450.815 221.846 450.991C221.351 451.162 220.78 451.247 220.133 451.247ZM221.172 448.741C221.706 448.741 222.178 448.636 222.587 448.426C222.996 448.21 223.317 447.92 223.55 447.557C223.783 447.193 223.9 446.781 223.9 446.321V444.932C223.786 445.006 223.63 445.074 223.431 445.136C223.238 445.193 223.019 445.247 222.775 445.298C222.53 445.344 222.286 445.386 222.042 445.426C221.797 445.46 221.576 445.491 221.377 445.52C220.951 445.582 220.579 445.682 220.26 445.818C219.942 445.955 219.695 446.139 219.519 446.372C219.343 446.599 219.255 446.884 219.255 447.224C219.255 447.719 219.434 448.097 219.792 448.358C220.155 448.614 220.616 448.741 221.172 448.741ZM229.602 451V437.909H235.184C236.798 437.909 238.073 438.216 239.011 438.83C239.948 439.443 240.417 440.315 240.417 441.446C240.417 442.156 240.153 442.747 239.624 443.219C239.096 443.69 238.363 444.009 237.425 444.173C238.209 444.23 238.877 444.409 239.428 444.71C239.985 445.006 240.408 445.389 240.698 445.861C240.994 446.332 241.141 446.855 241.141 447.429C241.141 448.173 240.942 448.812 240.545 449.347C240.153 449.881 239.576 450.29 238.815 450.574C238.059 450.858 237.136 451 236.045 451H229.602ZM232.985 448.281H236.045C236.55 448.281 236.945 448.162 237.229 447.923C237.519 447.679 237.664 447.347 237.664 446.926C237.664 446.46 237.519 446.094 237.229 445.827C236.945 445.56 236.55 445.426 236.045 445.426H232.985V448.281ZM232.985 443.295H235.261C235.624 443.295 235.934 443.244 236.19 443.142C236.451 443.034 236.65 442.881 236.786 442.682C236.928 442.483 236.999 442.247 236.999 441.974C236.999 441.571 236.837 441.256 236.513 441.028C236.19 440.801 235.746 440.688 235.184 440.688H232.985V443.295ZM246.178 446.21L250.891 437.909H254.471V451H251.011V442.673L246.315 451H242.71V437.909H246.178V446.21ZM262.576 451.256C261.235 451.256 260.082 450.972 259.116 450.403C258.156 449.83 257.417 449.034 256.9 448.017C256.389 447 256.133 445.83 256.133 444.506C256.133 443.165 256.392 441.989 256.909 440.977C257.431 439.96 258.173 439.168 259.133 438.599C260.093 438.026 261.235 437.739 262.559 437.739C263.701 437.739 264.701 437.946 265.559 438.361C266.417 438.776 267.096 439.358 267.596 440.108C268.096 440.858 268.372 441.739 268.423 442.75H264.997C264.9 442.097 264.644 441.571 264.23 441.173C263.821 440.77 263.284 440.568 262.619 440.568C262.056 440.568 261.565 440.722 261.144 441.028C260.73 441.33 260.406 441.77 260.173 442.349C259.94 442.929 259.823 443.631 259.823 444.455C259.823 445.29 259.937 446 260.164 446.585C260.397 447.17 260.724 447.616 261.144 447.923C261.565 448.23 262.056 448.384 262.619 448.384C263.034 448.384 263.406 448.298 263.735 448.128C264.071 447.957 264.346 447.71 264.562 447.386C264.784 447.057 264.929 446.662 264.997 446.202H268.423C268.366 447.202 268.093 448.082 267.605 448.844C267.122 449.599 266.454 450.19 265.602 450.616C264.75 451.043 263.741 451.256 262.576 451.256ZM273.496 446.21L278.209 437.909H281.789V451H278.329V442.673L273.633 451H270.027V437.909H273.496V446.21ZM291.718 446.986L295.263 437.909H298.025L292.92 451H290.508L285.522 437.909H288.275L291.718 446.986ZM287.448 437.909V451H283.979V437.909H287.448ZM296.167 451V437.909H299.593V451H296.167ZM303.957 441.932H307.869C309.602 441.932 310.954 442.347 311.926 443.176C312.897 444 313.383 445.102 313.383 446.483C313.383 447.381 313.164 448.17 312.727 448.852C312.289 449.528 311.658 450.057 310.835 450.438C310.011 450.812 309.022 451 307.869 451H301.681V437.909H305.15V448.145H307.869C308.477 448.145 308.977 447.991 309.369 447.685C309.761 447.378 309.96 446.986 309.965 446.509C309.96 446.003 309.761 445.591 309.369 445.273C308.977 444.949 308.477 444.787 307.869 444.787H303.957V441.932ZM314.789 451V437.909H318.42V451H314.789ZM323.636 437.909L326.039 442.486L328.502 437.909H332.227L328.434 444.455L332.329 451H328.622L326.039 446.474L323.5 451H319.75L323.636 444.455L319.886 437.909H323.636ZM339.559 451V437.909H342.107V443.398H343.334L347.655 437.909H350.809L345.738 444.276L350.869 451H347.707L343.761 445.767H342.107V451H339.559ZM355.938 451.29C355.108 451.29 354.358 451.136 353.688 450.83C353.017 450.517 352.486 450.065 352.094 449.474C351.707 448.884 351.514 448.159 351.514 447.301C351.514 446.562 351.656 445.955 351.94 445.477C352.224 445 352.608 444.622 353.091 444.344C353.574 444.065 354.114 443.855 354.71 443.713C355.307 443.571 355.915 443.463 356.534 443.389C357.318 443.298 357.955 443.224 358.443 443.168C358.932 443.105 359.287 443.006 359.509 442.869C359.73 442.733 359.841 442.511 359.841 442.205V442.145C359.841 441.401 359.631 440.824 359.21 440.415C358.796 440.006 358.176 439.801 357.352 439.801C356.494 439.801 355.818 439.991 355.324 440.372C354.835 440.747 354.497 441.165 354.31 441.625L351.915 441.08C352.199 440.284 352.614 439.642 353.159 439.153C353.71 438.659 354.344 438.301 355.06 438.08C355.776 437.852 356.528 437.739 357.318 437.739C357.841 437.739 358.395 437.801 358.98 437.926C359.571 438.045 360.122 438.267 360.634 438.591C361.151 438.915 361.574 439.378 361.903 439.98C362.233 440.577 362.398 441.352 362.398 442.307V451H359.909V449.21H359.807C359.642 449.54 359.395 449.864 359.065 450.182C358.736 450.5 358.313 450.764 357.796 450.974C357.278 451.185 356.659 451.29 355.938 451.29ZM356.492 449.244C357.196 449.244 357.798 449.105 358.298 448.827C358.804 448.548 359.188 448.185 359.449 447.736C359.716 447.281 359.85 446.795 359.85 446.278V444.591C359.759 444.682 359.582 444.767 359.321 444.847C359.065 444.92 358.773 444.986 358.443 445.043C358.114 445.094 357.793 445.142 357.48 445.188C357.168 445.227 356.906 445.261 356.696 445.29C356.202 445.352 355.75 445.457 355.341 445.605C354.938 445.753 354.614 445.966 354.369 446.244C354.131 446.517 354.011 446.881 354.011 447.335C354.011 447.966 354.244 448.443 354.71 448.767C355.176 449.085 355.77 449.244 356.492 449.244ZM373.944 443.355V445.562H366.853V443.355H373.944ZM367.569 437.909V451H365.072V437.909H367.569ZM375.725 437.909V451H373.237V437.909H375.725ZM382.224 451.29C381.395 451.29 380.645 451.136 379.974 450.83C379.304 450.517 378.772 450.065 378.38 449.474C377.994 448.884 377.801 448.159 377.801 447.301C377.801 446.562 377.943 445.955 378.227 445.477C378.511 445 378.895 444.622 379.378 444.344C379.861 444.065 380.4 443.855 380.997 443.713C381.593 443.571 382.201 443.463 382.821 443.389C383.605 443.298 384.241 443.224 384.73 443.168C385.218 443.105 385.574 443.006 385.795 442.869C386.017 442.733 386.128 442.511 386.128 442.205V442.145C386.128 441.401 385.917 440.824 385.497 440.415C385.082 440.006 384.463 439.801 383.639 439.801C382.781 439.801 382.105 439.991 381.611 440.372C381.122 440.747 380.784 441.165 380.596 441.625L378.201 441.08C378.486 440.284 378.9 439.642 379.446 439.153C379.997 438.659 380.63 438.301 381.346 438.08C382.062 437.852 382.815 437.739 383.605 437.739C384.128 437.739 384.682 437.801 385.267 437.926C385.858 438.045 386.409 438.267 386.92 438.591C387.437 438.915 387.861 439.378 388.19 439.98C388.52 440.577 388.684 441.352 388.684 442.307V451H386.196V449.21H386.093C385.929 449.54 385.682 449.864 385.352 450.182C385.022 450.5 384.599 450.764 384.082 450.974C383.565 451.185 382.946 451.29 382.224 451.29ZM382.778 449.244C383.483 449.244 384.085 449.105 384.585 448.827C385.091 448.548 385.474 448.185 385.736 447.736C386.003 447.281 386.136 446.795 386.136 446.278V444.591C386.045 444.682 385.869 444.767 385.608 444.847C385.352 444.92 385.059 444.986 384.73 445.043C384.4 445.094 384.079 445.142 383.767 445.188C383.454 445.227 383.193 445.261 382.983 445.29C382.488 445.352 382.037 445.457 381.628 445.605C381.224 445.753 380.9 445.966 380.656 446.244C380.417 446.517 380.298 446.881 380.298 447.335C380.298 447.966 380.531 448.443 380.997 448.767C381.463 449.085 382.057 449.244 382.778 449.244ZM390.327 451L390.319 448.793H390.788C391.151 448.793 391.455 448.716 391.699 448.562C391.949 448.403 392.154 448.136 392.313 447.761C392.472 447.386 392.594 446.869 392.68 446.21C392.765 445.545 392.827 444.71 392.867 443.705L393.097 437.909H402.234V451H399.736V440.108H395.458L395.253 444.557C395.202 445.636 395.092 446.58 394.921 447.386C394.756 448.193 394.515 448.866 394.197 449.406C393.878 449.94 393.469 450.341 392.969 450.608C392.469 450.869 391.861 451 391.145 451H390.327ZM410.426 451.264C409.199 451.264 408.128 450.983 407.213 450.42C406.298 449.858 405.588 449.071 405.082 448.06C404.577 447.048 404.324 445.866 404.324 444.514C404.324 443.156 404.577 441.969 405.082 440.952C405.588 439.935 406.298 439.145 407.213 438.582C408.128 438.02 409.199 437.739 410.426 437.739C411.653 437.739 412.724 438.02 413.639 438.582C414.554 439.145 415.264 439.935 415.77 440.952C416.276 441.969 416.528 443.156 416.528 444.514C416.528 445.866 416.276 447.048 415.77 448.06C415.264 449.071 414.554 449.858 413.639 450.42C412.724 450.983 411.653 451.264 410.426 451.264ZM410.435 449.125C411.23 449.125 411.889 448.915 412.412 448.494C412.935 448.074 413.321 447.514 413.571 446.815C413.827 446.116 413.955 445.347 413.955 444.506C413.955 443.67 413.827 442.903 413.571 442.205C413.321 441.5 412.935 440.935 412.412 440.509C411.889 440.082 411.23 439.869 410.435 439.869C409.634 439.869 408.969 440.082 408.44 440.509C407.918 440.935 407.528 441.5 407.273 442.205C407.023 442.903 406.898 443.67 406.898 444.506C406.898 445.347 407.023 446.116 407.273 446.815C407.528 447.514 407.918 448.074 408.44 448.494C408.969 448.915 409.634 449.125 410.435 449.125ZM418.653 451V437.909H424.082C425.559 437.909 426.73 438.224 427.593 438.855C428.457 439.48 428.889 440.33 428.889 441.403C428.889 442.17 428.644 442.778 428.156 443.227C427.667 443.676 427.019 443.977 426.213 444.131C426.798 444.199 427.335 444.375 427.823 444.659C428.312 444.937 428.704 445.312 429 445.784C429.301 446.256 429.451 446.818 429.451 447.472C429.451 448.165 429.272 448.778 428.914 449.312C428.556 449.841 428.036 450.256 427.355 450.557C426.678 450.852 425.863 451 424.909 451H418.653ZM421.048 448.869H424.909C425.539 448.869 426.034 448.719 426.392 448.418C426.75 448.116 426.928 447.707 426.928 447.19C426.928 446.582 426.75 446.105 426.392 445.759C426.034 445.406 425.539 445.23 424.909 445.23H421.048V448.869ZM421.048 443.364H424.107C424.585 443.364 424.994 443.295 425.335 443.159C425.681 443.023 425.946 442.83 426.127 442.58C426.315 442.324 426.409 442.023 426.409 441.676C426.409 441.17 426.201 440.776 425.786 440.491C425.372 440.207 424.803 440.065 424.082 440.065H421.048V443.364ZM441.658 439.946C441.215 439.952 440.789 440.057 440.38 440.261C439.971 440.466 439.633 440.739 439.366 441.08C439.104 441.42 438.974 441.807 438.974 442.239H436.57C436.57 441.625 436.707 441.045 436.979 440.5C437.252 439.955 437.624 439.474 438.096 439.06C438.567 438.645 439.11 438.318 439.724 438.08C440.337 437.841 440.982 437.722 441.658 437.722C442.891 437.722 443.934 438.023 444.786 438.625C445.644 439.222 446.295 440.017 446.738 441.011C447.181 442 447.403 443.085 447.403 444.267V444.693C447.403 445.875 447.181 446.963 446.738 447.957C446.295 448.952 445.644 449.747 444.786 450.344C443.934 450.94 442.891 451.239 441.658 451.239C440.67 451.239 439.792 451.028 439.025 450.608C438.258 450.187 437.655 449.614 437.218 448.886C436.786 448.153 436.57 447.318 436.57 446.381H438.974C438.974 446.847 439.096 447.278 439.34 447.676C439.584 448.074 439.908 448.395 440.312 448.639C440.721 448.878 441.17 449 441.658 449.006C442.391 449 442.996 448.778 443.474 448.341C443.957 447.903 444.314 447.355 444.547 446.696C444.786 446.031 444.905 445.364 444.905 444.693V444.267C444.905 443.568 444.786 442.889 444.547 442.23C444.314 441.571 443.957 441.028 443.474 440.602C442.996 440.17 442.391 439.952 441.658 439.946ZM445.8 443.44V445.401H440.439V443.44H445.8ZM458.389 443.355V445.562H451.298V443.355H458.389ZM452.014 437.909V451H449.516V437.909H452.014ZM460.17 437.909V451H457.681V437.909H460.17ZM461.235 440.108V437.909H472.281V440.108H468.011V451H465.522V440.108H461.235ZM474.256 455.909V437.909H476.745V440.031H476.958C477.105 439.759 477.319 439.443 477.597 439.085C477.875 438.727 478.262 438.415 478.756 438.148C479.25 437.875 479.904 437.739 480.716 437.739C481.773 437.739 482.716 438.006 483.546 438.54C484.375 439.074 485.026 439.844 485.498 440.849C485.975 441.855 486.213 443.065 486.213 444.48C486.213 445.895 485.978 447.108 485.506 448.119C485.034 449.125 484.387 449.901 483.563 450.446C482.739 450.986 481.799 451.256 480.742 451.256C479.946 451.256 479.296 451.122 478.79 450.855C478.29 450.588 477.898 450.276 477.614 449.918C477.33 449.56 477.111 449.241 476.958 448.963H476.804V455.909H474.256ZM476.753 444.455C476.753 445.375 476.887 446.182 477.154 446.875C477.421 447.568 477.807 448.111 478.313 448.503C478.819 448.889 479.438 449.082 480.171 449.082C480.932 449.082 481.569 448.881 482.08 448.477C482.591 448.068 482.978 447.514 483.239 446.815C483.506 446.116 483.64 445.33 483.64 444.455C483.64 443.591 483.509 442.815 483.248 442.128C482.992 441.44 482.605 440.898 482.088 440.5C481.577 440.102 480.938 439.903 480.171 439.903C479.432 439.903 478.807 440.094 478.296 440.474C477.79 440.855 477.407 441.386 477.145 442.068C476.884 442.75 476.753 443.545 476.753 444.455ZM493.863 451.264C492.635 451.264 491.564 450.983 490.65 450.42C489.735 449.858 489.025 449.071 488.519 448.06C488.013 447.048 487.76 445.866 487.76 444.514C487.76 443.156 488.013 441.969 488.519 440.952C489.025 439.935 489.735 439.145 490.65 438.582C491.564 438.02 492.635 437.739 493.863 437.739C495.09 437.739 496.161 438.02 497.076 438.582C497.991 439.145 498.701 439.935 499.206 440.952C499.712 441.969 499.965 443.156 499.965 444.514C499.965 445.866 499.712 447.048 499.206 448.06C498.701 449.071 497.991 449.858 497.076 450.42C496.161 450.983 495.09 451.264 493.863 451.264ZM493.871 449.125C494.667 449.125 495.326 448.915 495.849 448.494C496.371 448.074 496.758 447.514 497.008 446.815C497.263 446.116 497.391 445.347 497.391 444.506C497.391 443.67 497.263 442.903 497.008 442.205C496.758 441.5 496.371 440.935 495.849 440.509C495.326 440.082 494.667 439.869 493.871 439.869C493.07 439.869 492.405 440.082 491.877 440.509C491.354 440.935 490.965 441.5 490.709 442.205C490.459 442.903 490.334 443.67 490.334 444.506C490.334 445.347 490.459 446.116 490.709 446.815C490.965 447.514 491.354 448.074 491.877 448.494C492.405 448.915 493.07 449.125 493.871 449.125ZM502.089 451V437.909H512.768V451H510.271V440.108H504.57V451H502.089ZM517.953 447.429L523.722 437.909H526.467V451H523.97V441.472L518.225 451H515.455V437.909H517.953V447.429ZM531.67 447.429L537.44 437.909H540.184V451H537.687V441.472L531.943 451H529.173V437.909H531.67V447.429ZM559.397 451.315L557.863 449.798L563.19 444.472H549.809V442.256H563.19L557.863 436.938L559.397 435.412L567.349 443.364L559.397 451.315ZM581.846 451.264C580.619 451.264 579.548 450.983 578.633 450.42C577.718 449.858 577.008 449.071 576.502 448.06C575.997 447.048 575.744 445.866 575.744 444.514C575.744 443.156 575.997 441.969 576.502 440.952C577.008 439.935 577.718 439.145 578.633 438.582C579.548 438.02 580.619 437.739 581.846 437.739C583.073 437.739 584.144 438.02 585.059 438.582C585.974 439.145 586.684 439.935 587.19 440.952C587.696 441.969 587.948 443.156 587.948 444.514C587.948 445.866 587.696 447.048 587.19 448.06C586.684 449.071 585.974 449.858 585.059 450.42C584.144 450.983 583.073 451.264 581.846 451.264ZM581.855 449.125C582.65 449.125 583.309 448.915 583.832 448.494C584.355 448.074 584.741 447.514 584.991 446.815C585.247 446.116 585.375 445.347 585.375 444.506C585.375 443.67 585.247 442.903 584.991 442.205C584.741 441.5 584.355 440.935 583.832 440.509C583.309 440.082 582.65 439.869 581.855 439.869C581.054 439.869 580.389 440.082 579.86 440.509C579.338 440.935 578.948 441.5 578.693 442.205C578.443 442.903 578.318 443.67 578.318 444.506C578.318 445.347 578.443 446.116 578.693 446.815C578.948 447.514 579.338 448.074 579.86 448.494C580.389 448.915 581.054 449.125 581.855 449.125ZM588.794 454.776V448.793H589.86C590.133 448.543 590.363 448.244 590.55 447.898C590.743 447.551 590.905 447.139 591.036 446.662C591.172 446.185 591.286 445.628 591.377 444.991C591.468 444.349 591.547 443.616 591.616 442.793L592.025 437.909H600.922V448.793H602.934V454.776H600.445V451H591.317V454.776H588.794ZM592.587 448.793H598.434V440.091H594.309L594.036 442.793C593.905 444.168 593.741 445.361 593.542 446.372C593.343 447.378 593.025 448.185 592.587 448.793ZM607.202 447.429L612.972 437.909H615.716V451H613.219V441.472L607.474 451H604.704V437.909H607.202V447.429ZM627.294 443.355V445.562H620.203V443.355H627.294ZM620.919 437.909V451H618.422V437.909H620.919ZM629.075 437.909V451H626.587V437.909H629.075ZM637.132 451V437.909H648.578V451H645.109V440.764H640.558V451H637.132ZM650.756 455.909V437.909H654.335V440.108H654.497C654.656 439.756 654.886 439.398 655.187 439.034C655.494 438.665 655.892 438.358 656.381 438.114C656.875 437.864 657.489 437.739 658.222 437.739C659.176 437.739 660.057 437.989 660.864 438.489C661.67 438.983 662.315 439.73 662.798 440.73C663.281 441.724 663.523 442.972 663.523 444.472C663.523 445.932 663.287 447.165 662.815 448.17C662.349 449.17 661.713 449.929 660.906 450.446C660.105 450.957 659.207 451.213 658.213 451.213C657.508 451.213 656.909 451.097 656.415 450.864C655.926 450.631 655.526 450.338 655.213 449.986C654.901 449.628 654.662 449.267 654.497 448.903H654.386V455.909H650.756ZM654.31 444.455C654.31 445.233 654.418 445.912 654.633 446.491C654.849 447.071 655.162 447.523 655.571 447.847C655.98 448.165 656.477 448.324 657.062 448.324C657.653 448.324 658.153 448.162 658.562 447.838C658.972 447.509 659.281 447.054 659.491 446.474C659.707 445.889 659.815 445.216 659.815 444.455C659.815 443.699 659.71 443.034 659.5 442.46C659.29 441.886 658.98 441.437 658.571 441.114C658.162 440.79 657.659 440.628 657.062 440.628C656.472 440.628 655.972 440.784 655.562 441.097C655.159 441.409 654.849 441.852 654.633 442.426C654.418 443 654.31 443.676 654.31 444.455ZM671.138 451.256C669.814 451.256 668.669 450.974 667.703 450.412C666.743 449.844 666.001 449.054 665.479 448.043C664.956 447.026 664.695 445.847 664.695 444.506C664.695 443.153 664.956 441.972 665.479 440.96C666.001 439.943 666.743 439.153 667.703 438.591C668.669 438.023 669.814 437.739 671.138 437.739C672.462 437.739 673.604 438.023 674.564 438.591C675.53 439.153 676.274 439.943 676.797 440.96C677.32 441.972 677.581 443.153 677.581 444.506C677.581 445.847 677.32 447.026 676.797 448.043C676.274 449.054 675.53 449.844 674.564 450.412C673.604 450.974 672.462 451.256 671.138 451.256ZM671.155 448.443C671.757 448.443 672.26 448.273 672.663 447.932C673.067 447.585 673.371 447.114 673.575 446.517C673.786 445.92 673.891 445.241 673.891 444.48C673.891 443.719 673.786 443.04 673.575 442.443C673.371 441.847 673.067 441.375 672.663 441.028C672.26 440.682 671.757 440.509 671.155 440.509C670.547 440.509 670.036 440.682 669.621 441.028C669.212 441.375 668.902 441.847 668.692 442.443C668.487 443.04 668.385 443.719 668.385 444.48C668.385 445.241 668.487 445.92 668.692 446.517C668.902 447.114 669.212 447.585 669.621 447.932C670.036 448.273 670.547 448.443 671.155 448.443ZM678.549 447.293H682.068C682.085 447.724 682.279 448.065 682.648 448.315C683.017 448.565 683.495 448.69 684.08 448.69C684.671 448.69 685.168 448.554 685.571 448.281C685.975 448.003 686.176 447.605 686.176 447.088C686.176 446.77 686.097 446.494 685.938 446.261C685.779 446.023 685.557 445.835 685.273 445.699C684.989 445.562 684.659 445.494 684.284 445.494H682.401V443.116H684.284C684.847 443.116 685.279 442.986 685.58 442.724C685.887 442.463 686.04 442.136 686.04 441.744C686.04 441.301 685.881 440.946 685.563 440.679C685.25 440.406 684.827 440.27 684.293 440.27C683.753 440.27 683.304 440.392 682.946 440.636C682.594 440.875 682.412 441.187 682.401 441.574H678.898C678.909 440.79 679.145 440.111 679.605 439.537C680.071 438.963 680.696 438.52 681.48 438.207C682.27 437.895 683.154 437.739 684.131 437.739C685.199 437.739 686.12 437.889 686.892 438.19C687.671 438.486 688.267 438.909 688.682 439.46C689.102 440.011 689.313 440.668 689.313 441.429C689.313 442.122 689.085 442.702 688.631 443.168C688.176 443.634 687.54 443.966 686.722 444.165V444.301C687.262 444.335 687.75 444.48 688.188 444.736C688.625 444.991 688.975 445.344 689.236 445.793C689.497 446.236 689.628 446.761 689.628 447.369C689.628 448.182 689.389 448.878 688.912 449.457C688.441 450.037 687.787 450.483 686.952 450.795C686.122 451.102 685.171 451.256 684.097 451.256C683.051 451.256 682.114 451.105 681.284 450.804C680.46 450.497 679.804 450.048 679.316 449.457C678.833 448.866 678.577 448.145 678.549 447.293ZM691.135 455.909V437.909H694.714V440.108H694.876C695.035 439.756 695.265 439.398 695.566 439.034C695.873 438.665 696.271 438.358 696.76 438.114C697.254 437.864 697.868 437.739 698.601 437.739C699.555 437.739 700.436 437.989 701.243 438.489C702.049 438.983 702.694 439.73 703.177 440.73C703.66 441.724 703.902 442.972 703.902 444.472C703.902 445.932 703.666 447.165 703.194 448.17C702.728 449.17 702.092 449.929 701.285 450.446C700.484 450.957 699.586 451.213 698.592 451.213C697.887 451.213 697.288 451.097 696.794 450.864C696.305 450.631 695.905 450.338 695.592 449.986C695.28 449.628 695.041 449.267 694.876 448.903H694.765V455.909H691.135ZM694.689 444.455C694.689 445.233 694.797 445.912 695.012 446.491C695.228 447.071 695.541 447.523 695.95 447.847C696.359 448.165 696.856 448.324 697.441 448.324C698.032 448.324 698.532 448.162 698.941 447.838C699.351 447.509 699.66 447.054 699.87 446.474C700.086 445.889 700.194 445.216 700.194 444.455C700.194 443.699 700.089 443.034 699.879 442.46C699.669 441.886 699.359 441.437 698.95 441.114C698.541 440.79 698.038 440.628 697.441 440.628C696.851 440.628 696.351 440.784 695.941 441.097C695.538 441.409 695.228 441.852 695.012 442.426C694.797 443 694.689 443.676 694.689 444.455ZM709.335 451.247C708.5 451.247 707.756 451.102 707.102 450.812C706.449 450.517 705.932 450.082 705.551 449.509C705.176 448.929 704.989 448.207 704.989 447.344C704.989 446.616 705.122 446.006 705.389 445.511C705.656 445.017 706.02 444.619 706.48 444.318C706.94 444.017 707.463 443.79 708.048 443.636C708.639 443.483 709.258 443.375 709.906 443.312C710.668 443.233 711.281 443.159 711.747 443.091C712.213 443.017 712.551 442.909 712.761 442.767C712.972 442.625 713.077 442.415 713.077 442.136V442.085C713.077 441.545 712.906 441.128 712.565 440.832C712.23 440.537 711.753 440.389 711.133 440.389C710.48 440.389 709.96 440.534 709.574 440.824C709.187 441.108 708.932 441.466 708.807 441.898L705.449 441.625C705.619 440.83 705.954 440.142 706.454 439.562C706.954 438.977 707.599 438.528 708.389 438.216C709.185 437.898 710.105 437.739 711.15 437.739C711.878 437.739 712.574 437.824 713.239 437.994C713.909 438.165 714.503 438.429 715.02 438.787C715.543 439.145 715.954 439.605 716.256 440.168C716.557 440.724 716.707 441.392 716.707 442.17V451H713.264V449.185H713.162C712.952 449.594 712.67 449.955 712.318 450.267C711.966 450.574 711.543 450.815 711.048 450.991C710.554 451.162 709.983 451.247 709.335 451.247ZM710.375 448.741C710.909 448.741 711.381 448.636 711.79 448.426C712.199 448.21 712.52 447.92 712.753 447.557C712.986 447.193 713.102 446.781 713.102 446.321V444.932C712.989 445.006 712.832 445.074 712.633 445.136C712.44 445.193 712.222 445.247 711.977 445.298C711.733 445.344 711.489 445.386 711.244 445.426C711 445.46 710.778 445.491 710.579 445.52C710.153 445.582 709.781 445.682 709.463 445.818C709.145 445.955 708.898 446.139 708.722 446.372C708.545 446.599 708.457 446.884 708.457 447.224C708.457 447.719 708.636 448.097 708.994 448.358C709.358 448.614 709.818 448.741 710.375 448.741ZM730.165 437.909V451H726.722V437.909H730.165ZM728.486 443.653V446.517C728.207 446.642 727.861 446.761 727.446 446.875C727.031 446.983 726.597 447.071 726.142 447.139C725.687 447.207 725.261 447.241 724.864 447.241C722.983 447.241 721.503 446.855 720.423 446.082C719.344 445.304 718.804 444.062 718.804 442.358V437.892H722.23V442.358C722.23 442.864 722.315 443.264 722.486 443.56C722.662 443.855 722.94 444.068 723.321 444.199C723.707 444.324 724.222 444.386 724.864 444.386C725.46 444.386 726.045 444.324 726.619 444.199C727.193 444.074 727.815 443.892 728.486 443.653ZM741.374 443.006V445.861H734.539V443.006H741.374ZM735.732 437.909V451H732.264V437.909H735.732ZM743.65 437.909V451H740.207V437.909H743.65ZM748.022 441.932H751.934C753.667 441.932 755.02 442.347 755.991 443.176C756.963 444 757.449 445.102 757.449 446.483C757.449 447.381 757.23 448.17 756.792 448.852C756.355 449.528 755.724 450.057 754.9 450.438C754.076 450.812 753.088 451 751.934 451H745.747V437.909H749.216V448.145H751.934C752.542 448.145 753.042 447.991 753.434 447.685C753.826 447.378 754.025 446.986 754.031 446.509C754.025 446.003 753.826 445.591 753.434 445.273C753.042 444.949 752.542 444.787 751.934 444.787H748.022V441.932ZM758.855 451V437.909H762.485V451H758.855ZM768.136 446.21L772.849 437.909H776.429V451H772.969V442.673L768.273 451H764.667V437.909H768.136V446.21ZM772.227 433.341H774.758C774.753 434.375 774.369 435.207 773.608 435.838C772.852 436.469 771.829 436.784 770.54 436.784C769.244 436.784 768.219 436.469 767.463 435.838C766.707 435.207 766.329 434.375 766.329 433.341H768.844C768.838 433.733 768.963 434.085 769.219 434.398C769.48 434.71 769.92 434.866 770.54 434.866C771.142 434.866 771.574 434.713 771.835 434.406C772.096 434.099 772.227 433.744 772.227 433.341ZM784.515 451V437.909H795.194V451H792.697V440.108H786.995V451H784.515ZM803.395 451.264C802.168 451.264 801.097 450.983 800.182 450.42C799.267 449.858 798.557 449.071 798.051 448.06C797.546 447.048 797.293 445.866 797.293 444.514C797.293 443.156 797.546 441.969 798.051 440.952C798.557 439.935 799.267 439.145 800.182 438.582C801.097 438.02 802.168 437.739 803.395 437.739C804.623 437.739 805.694 438.02 806.608 438.582C807.523 439.145 808.233 439.935 808.739 440.952C809.245 441.969 809.498 443.156 809.498 444.514C809.498 445.866 809.245 447.048 808.739 448.06C808.233 449.071 807.523 449.858 806.608 450.42C805.694 450.983 804.623 451.264 803.395 451.264ZM803.404 449.125C804.199 449.125 804.858 448.915 805.381 448.494C805.904 448.074 806.29 447.514 806.54 446.815C806.796 446.116 806.924 445.347 806.924 444.506C806.924 443.67 806.796 442.903 806.54 442.205C806.29 441.5 805.904 440.935 805.381 440.509C804.858 440.082 804.199 439.869 803.404 439.869C802.603 439.869 801.938 440.082 801.409 440.509C800.887 440.935 800.498 441.5 800.242 442.205C799.992 442.903 799.867 443.67 799.867 444.506C799.867 445.347 799.992 446.116 800.242 446.815C800.498 447.514 800.887 448.074 801.409 448.494C801.938 448.915 802.603 449.125 803.404 449.125ZM810.045 440.108V437.909H821.091V440.108H816.821V451H814.332V440.108H810.045ZM827.971 451.264C826.744 451.264 825.673 450.983 824.758 450.42C823.843 449.858 823.133 449.071 822.627 448.06C822.121 447.048 821.869 445.866 821.869 444.514C821.869 443.156 822.121 441.969 822.627 440.952C823.133 439.935 823.843 439.145 824.758 438.582C825.673 438.02 826.744 437.739 827.971 437.739C829.198 437.739 830.269 438.02 831.184 438.582C832.099 439.145 832.809 439.935 833.315 440.952C833.82 441.969 834.073 443.156 834.073 444.514C834.073 445.866 833.82 447.048 833.315 448.06C832.809 449.071 832.099 449.858 831.184 450.42C830.269 450.983 829.198 451.264 827.971 451.264ZM827.979 449.125C828.775 449.125 829.434 448.915 829.957 448.494C830.479 448.074 830.866 447.514 831.116 446.815C831.371 446.116 831.499 445.347 831.499 444.506C831.499 443.67 831.371 442.903 831.116 442.205C830.866 441.5 830.479 440.935 829.957 440.509C829.434 440.082 828.775 439.869 827.979 439.869C827.178 439.869 826.514 440.082 825.985 440.509C825.462 440.935 825.073 441.5 824.818 442.205C824.568 442.903 824.443 443.67 824.443 444.506C824.443 445.347 824.568 446.116 824.818 446.815C825.073 447.514 825.462 448.074 825.985 448.494C826.514 448.915 827.178 449.125 827.979 449.125ZM836.198 451V437.909H838.746V443.398H839.973L844.294 437.909H847.448L842.377 444.276L847.507 451H844.345L840.399 445.767H838.746V451H836.198Z" fill="black"/>
<rect x="385" y="69" width="195" height="136" rx="30" fill="#FFBD17"/>
<rect x="624" y="69" width="195" height="136" rx="30" fill="#FF9717"/>
<rect x="265" y="242" width="195" height="136" rx="30" fill="#FFD436"/>
<rect x="146" y="69" width="195" height="136" rx="30" fill="#FFDF8F"/>
<path d="M172.508 150V123.818H182.991C184.917 123.818 186.523 124.104 187.81 124.675C189.097 125.246 190.065 126.038 190.712 127.053C191.36 128.058 191.684 129.217 191.684 130.53C191.684 131.553 191.479 132.452 191.07 133.227C190.661 133.994 190.099 134.625 189.383 135.119C188.675 135.605 187.866 135.95 186.954 136.155V136.411C187.951 136.453 188.884 136.734 189.753 137.254C190.631 137.774 191.343 138.503 191.888 139.44C192.434 140.369 192.707 141.477 192.707 142.764C192.707 144.153 192.361 145.393 191.671 146.484C190.989 147.567 189.979 148.423 188.641 149.054C187.303 149.685 185.654 150 183.694 150H172.508ZM178.043 145.474H182.556C184.099 145.474 185.224 145.18 185.931 144.592C186.638 143.996 186.992 143.203 186.992 142.214C186.992 141.49 186.817 140.851 186.468 140.297C186.119 139.743 185.62 139.308 184.972 138.993C184.333 138.678 183.57 138.52 182.684 138.52H178.043V145.474ZM178.043 134.774H182.147C182.905 134.774 183.579 134.642 184.167 134.378C184.763 134.105 185.232 133.722 185.573 133.227C185.923 132.733 186.097 132.141 186.097 131.45C186.097 130.504 185.761 129.741 185.087 129.162C184.423 128.582 183.477 128.293 182.249 128.293H178.043V134.774ZM204.075 150.384C202.055 150.384 200.317 149.974 198.859 149.156C197.41 148.33 196.294 147.162 195.51 145.653C194.726 144.136 194.334 142.342 194.334 140.271C194.334 138.251 194.726 136.479 195.51 134.953C196.294 133.428 197.398 132.239 198.821 131.386C200.253 130.534 201.932 130.108 203.858 130.108C205.153 130.108 206.359 130.317 207.476 130.734C208.601 131.143 209.581 131.761 210.416 132.588C211.26 133.415 211.916 134.455 212.385 135.707C212.854 136.952 213.088 138.409 213.088 140.08V141.575H196.507V138.2H207.961C207.961 137.416 207.791 136.722 207.45 136.116C207.109 135.511 206.636 135.038 206.031 134.697C205.435 134.348 204.74 134.173 203.947 134.173C203.121 134.173 202.388 134.365 201.748 134.749C201.118 135.124 200.623 135.631 200.265 136.27C199.908 136.901 199.724 137.604 199.716 138.379V141.588C199.716 142.56 199.895 143.399 200.253 144.107C200.619 144.814 201.135 145.359 201.8 145.743C202.464 146.126 203.253 146.318 204.165 146.318C204.77 146.318 205.324 146.233 205.827 146.062C206.329 145.892 206.76 145.636 207.118 145.295C207.476 144.955 207.748 144.537 207.936 144.043L212.973 144.375C212.717 145.585 212.193 146.642 211.4 147.545C210.616 148.44 209.602 149.139 208.358 149.642C207.122 150.136 205.694 150.384 204.075 150.384ZM221.161 150.371C219.908 150.371 218.792 150.153 217.812 149.719C216.832 149.276 216.056 148.624 215.485 147.763C214.923 146.893 214.641 145.811 214.641 144.516C214.641 143.425 214.842 142.509 215.242 141.767C215.643 141.026 216.188 140.429 216.879 139.977C217.569 139.526 218.353 139.185 219.231 138.955C220.117 138.724 221.046 138.562 222.018 138.469C223.16 138.349 224.08 138.239 224.779 138.136C225.478 138.026 225.985 137.864 226.301 137.651C226.616 137.437 226.774 137.122 226.774 136.705V136.628C226.774 135.818 226.518 135.192 226.006 134.749C225.504 134.305 224.788 134.084 223.859 134.084C222.879 134.084 222.099 134.301 221.519 134.736C220.94 135.162 220.556 135.699 220.369 136.347L215.332 135.938C215.587 134.744 216.09 133.713 216.84 132.844C217.59 131.966 218.558 131.293 219.742 130.824C220.935 130.347 222.316 130.108 223.884 130.108C224.975 130.108 226.019 130.236 227.016 130.491C228.022 130.747 228.913 131.143 229.688 131.68C230.472 132.217 231.09 132.908 231.542 133.751C231.994 134.587 232.22 135.588 232.22 136.756V150H227.055V147.277H226.901C226.586 147.891 226.164 148.432 225.636 148.901C225.107 149.361 224.472 149.723 223.731 149.987C222.989 150.243 222.133 150.371 221.161 150.371ZM222.721 146.612C223.522 146.612 224.23 146.455 224.843 146.139C225.457 145.815 225.938 145.381 226.288 144.835C226.637 144.29 226.812 143.672 226.812 142.982V140.898C226.641 141.009 226.407 141.111 226.109 141.205C225.819 141.29 225.491 141.371 225.124 141.447C224.758 141.516 224.391 141.58 224.025 141.639C223.658 141.69 223.326 141.737 223.028 141.78C222.389 141.874 221.83 142.023 221.353 142.227C220.876 142.432 220.505 142.709 220.241 143.058C219.977 143.399 219.845 143.825 219.845 144.337C219.845 145.078 220.113 145.645 220.65 146.037C221.195 146.42 221.886 146.612 222.721 146.612ZM244.237 150.384C242.225 150.384 240.495 149.957 239.047 149.105C237.606 148.244 236.498 147.051 235.723 145.526C234.956 144 234.572 142.244 234.572 140.259C234.572 138.247 234.96 136.483 235.735 134.966C236.52 133.44 237.632 132.251 239.072 131.399C240.512 130.538 242.225 130.108 244.211 130.108C245.924 130.108 247.424 130.419 248.711 131.041C249.998 131.663 251.017 132.537 251.767 133.662C252.517 134.787 252.93 136.108 253.007 137.625H247.868C247.723 136.645 247.339 135.857 246.717 135.26C246.103 134.655 245.298 134.352 244.301 134.352C243.457 134.352 242.72 134.582 242.089 135.043C241.467 135.494 240.981 136.155 240.632 137.024C240.282 137.893 240.108 138.946 240.108 140.182C240.108 141.435 240.278 142.5 240.619 143.378C240.968 144.256 241.458 144.925 242.089 145.385C242.72 145.845 243.457 146.075 244.301 146.075C244.923 146.075 245.481 145.947 245.975 145.692C246.478 145.436 246.892 145.065 247.216 144.58C247.548 144.085 247.765 143.493 247.868 142.803H253.007C252.922 144.303 252.512 145.624 251.779 146.766C251.055 147.899 250.054 148.786 248.775 149.425C247.497 150.064 245.984 150.384 244.237 150.384ZM264.286 150.384C262.3 150.384 260.583 149.962 259.134 149.118C257.693 148.266 256.581 147.081 255.797 145.564C255.013 144.038 254.621 142.27 254.621 140.259C254.621 138.23 255.013 136.457 255.797 134.94C256.581 133.415 257.693 132.23 259.134 131.386C260.583 130.534 262.3 130.108 264.286 130.108C266.272 130.108 267.985 130.534 269.425 131.386C270.874 132.23 271.99 133.415 272.774 134.94C273.558 136.457 273.951 138.23 273.951 140.259C273.951 142.27 273.558 144.038 272.774 145.564C271.99 147.081 270.874 148.266 269.425 149.118C267.985 149.962 266.272 150.384 264.286 150.384ZM264.311 146.165C265.215 146.165 265.969 145.909 266.574 145.398C267.179 144.878 267.635 144.17 267.942 143.276C268.257 142.381 268.415 141.362 268.415 140.22C268.415 139.078 268.257 138.06 267.942 137.165C267.635 136.27 267.179 135.562 266.574 135.043C265.969 134.523 265.215 134.263 264.311 134.263C263.399 134.263 262.632 134.523 262.01 135.043C261.397 135.562 260.932 136.27 260.617 137.165C260.31 138.06 260.157 139.078 260.157 140.22C260.157 141.362 260.31 142.381 260.617 143.276C260.932 144.17 261.397 144.878 262.01 145.398C262.632 145.909 263.399 146.165 264.311 146.165ZM281.858 138.648V150H276.412V130.364H281.602V133.828H281.832C282.267 132.686 282.996 131.783 284.018 131.118C285.041 130.445 286.281 130.108 287.738 130.108C289.102 130.108 290.291 130.406 291.305 131.003C292.319 131.599 293.108 132.452 293.67 133.56C294.233 134.659 294.514 135.972 294.514 137.497V150H289.068V138.469C289.077 137.267 288.77 136.33 288.148 135.656C287.525 134.974 286.669 134.634 285.578 134.634C284.845 134.634 284.197 134.791 283.635 135.107C283.081 135.422 282.646 135.882 282.331 136.487C282.024 137.084 281.866 137.804 281.858 138.648ZM314.064 135.963L309.079 136.27C308.993 135.844 308.81 135.46 308.529 135.119C308.248 134.77 307.877 134.493 307.417 134.288C306.965 134.075 306.424 133.969 305.793 133.969C304.949 133.969 304.238 134.148 303.658 134.506C303.079 134.855 302.789 135.324 302.789 135.912C302.789 136.381 302.976 136.777 303.351 137.101C303.726 137.425 304.37 137.685 305.282 137.881L308.836 138.597C310.745 138.989 312.168 139.619 313.106 140.489C314.043 141.358 314.512 142.5 314.512 143.915C314.512 145.202 314.133 146.331 313.374 147.303C312.624 148.274 311.593 149.033 310.28 149.578C308.976 150.115 307.472 150.384 305.767 150.384C303.168 150.384 301.097 149.842 299.554 148.76C298.02 147.669 297.121 146.186 296.857 144.311L302.213 144.03C302.375 144.822 302.767 145.428 303.39 145.845C304.012 146.254 304.809 146.459 305.78 146.459C306.735 146.459 307.502 146.276 308.081 145.909C308.669 145.534 308.968 145.053 308.976 144.464C308.968 143.97 308.759 143.565 308.35 143.25C307.941 142.926 307.31 142.679 306.458 142.509L303.057 141.831C301.14 141.447 299.712 140.783 298.775 139.837C297.846 138.891 297.381 137.685 297.381 136.219C297.381 134.957 297.722 133.871 298.404 132.959C299.094 132.047 300.061 131.344 301.306 130.849C302.559 130.355 304.025 130.108 305.704 130.108C308.184 130.108 310.135 130.632 311.559 131.68C312.99 132.729 313.826 134.156 314.064 135.963Z" fill="black"/>
<path d="M433.285 140.898H437.99L440.355 143.94L442.682 146.651L447.067 152.148H441.902L438.885 148.44L437.338 146.241L433.285 140.898ZM447.463 136.909C447.463 139.764 446.922 142.193 445.839 144.196C444.766 146.199 443.3 147.729 441.442 148.786C439.592 149.834 437.513 150.358 435.203 150.358C432.876 150.358 430.788 149.83 428.939 148.773C427.089 147.716 425.628 146.186 424.554 144.183C423.48 142.18 422.943 139.756 422.943 136.909C422.943 134.054 423.48 131.625 424.554 129.622C425.628 127.619 427.089 126.094 428.939 125.045C430.788 123.989 432.876 123.46 435.203 123.46C437.513 123.46 439.592 123.989 441.442 125.045C443.3 126.094 444.766 127.619 445.839 129.622C446.922 131.625 447.463 134.054 447.463 136.909ZM441.851 136.909C441.851 135.06 441.574 133.5 441.02 132.23C440.474 130.96 439.703 129.997 438.706 129.341C437.709 128.685 436.541 128.357 435.203 128.357C433.865 128.357 432.697 128.685 431.7 129.341C430.703 129.997 429.927 130.96 429.373 132.23C428.828 133.5 428.555 135.06 428.555 136.909C428.555 138.759 428.828 140.318 429.373 141.588C429.927 142.858 430.703 143.821 431.7 144.477C432.697 145.134 433.865 145.462 435.203 145.462C436.541 145.462 437.709 145.134 438.706 144.477C439.703 143.821 440.474 142.858 441.02 141.588C441.574 140.318 441.851 138.759 441.851 136.909ZM462.974 141.639V130.364H468.42V150H463.191V146.433H462.986C462.543 147.584 461.806 148.509 460.775 149.207C459.752 149.906 458.503 150.256 457.029 150.256C455.716 150.256 454.562 149.957 453.564 149.361C452.567 148.764 451.787 147.916 451.225 146.817C450.671 145.717 450.39 144.401 450.381 142.866V130.364H455.827V141.895C455.836 143.054 456.147 143.97 456.76 144.643C457.374 145.317 458.197 145.653 459.228 145.653C459.884 145.653 460.498 145.504 461.069 145.206C461.64 144.899 462.1 144.447 462.449 143.851C462.807 143.254 462.982 142.517 462.974 141.639ZM480.568 150.384C478.582 150.384 476.865 149.962 475.416 149.118C473.976 148.266 472.863 147.081 472.079 145.564C471.295 144.038 470.903 142.27 470.903 140.259C470.903 138.23 471.295 136.457 472.079 134.94C472.863 133.415 473.976 132.23 475.416 131.386C476.865 130.534 478.582 130.108 480.568 130.108C482.554 130.108 484.267 130.534 485.707 131.386C487.156 132.23 488.272 133.415 489.057 134.94C489.841 136.457 490.233 138.23 490.233 140.259C490.233 142.27 489.841 144.038 489.057 145.564C488.272 147.081 487.156 148.266 485.707 149.118C484.267 149.962 482.554 150.384 480.568 150.384ZM480.593 146.165C481.497 146.165 482.251 145.909 482.856 145.398C483.461 144.878 483.917 144.17 484.224 143.276C484.539 142.381 484.697 141.362 484.697 140.22C484.697 139.078 484.539 138.06 484.224 137.165C483.917 136.27 483.461 135.562 482.856 135.043C482.251 134.523 481.497 134.263 480.593 134.263C479.682 134.263 478.914 134.523 478.292 135.043C477.679 135.562 477.214 136.27 476.899 137.165C476.592 138.06 476.439 139.078 476.439 140.22C476.439 141.362 476.592 142.381 476.899 143.276C477.214 144.17 477.679 144.878 478.292 145.398C478.914 145.909 479.682 146.165 480.593 146.165ZM503.138 130.364V134.455H491.313V130.364H503.138ZM493.998 125.659H499.444V143.966C499.444 144.469 499.521 144.861 499.674 145.142C499.827 145.415 500.04 145.607 500.313 145.717C500.594 145.828 500.918 145.884 501.285 145.884C501.54 145.884 501.796 145.862 502.052 145.82C502.307 145.768 502.504 145.73 502.64 145.705L503.496 149.757C503.224 149.842 502.84 149.94 502.346 150.051C501.852 150.17 501.251 150.243 500.543 150.268C499.231 150.32 498.08 150.145 497.092 149.744C496.111 149.344 495.349 148.722 494.803 147.878C494.258 147.034 493.989 145.969 493.998 144.682V125.659ZM514.344 150.384C512.324 150.384 510.585 149.974 509.128 149.156C507.679 148.33 506.563 147.162 505.779 145.653C504.995 144.136 504.602 142.342 504.602 140.271C504.602 138.251 504.995 136.479 505.779 134.953C506.563 133.428 507.666 132.239 509.09 131.386C510.522 130.534 512.2 130.108 514.127 130.108C515.422 130.108 516.628 130.317 517.745 130.734C518.87 131.143 519.85 131.761 520.685 132.588C521.529 133.415 522.185 134.455 522.654 135.707C523.122 136.952 523.357 138.409 523.357 140.08V141.575H506.776V138.2H518.23C518.23 137.416 518.06 136.722 517.719 136.116C517.378 135.511 516.905 135.038 516.3 134.697C515.703 134.348 515.009 134.173 514.216 134.173C513.389 134.173 512.656 134.365 512.017 134.749C511.387 135.124 510.892 135.631 510.534 136.27C510.176 136.901 509.993 137.604 509.985 138.379V141.588C509.985 142.56 510.164 143.399 510.522 144.107C510.888 144.814 511.404 145.359 512.068 145.743C512.733 146.126 513.522 146.318 514.433 146.318C515.039 146.318 515.593 146.233 516.095 146.062C516.598 145.892 517.029 145.636 517.387 145.295C517.745 144.955 518.017 144.537 518.205 144.043L523.242 144.375C522.986 145.585 522.462 146.642 521.669 147.545C520.885 148.44 519.871 149.139 518.627 149.642C517.391 150.136 515.963 150.384 514.344 150.384ZM542.169 135.963L537.183 136.27C537.098 135.844 536.915 135.46 536.633 135.119C536.352 134.77 535.981 134.493 535.521 134.288C535.069 134.075 534.528 133.969 533.897 133.969C533.054 133.969 532.342 134.148 531.763 134.506C531.183 134.855 530.893 135.324 530.893 135.912C530.893 136.381 531.081 136.777 531.456 137.101C531.831 137.425 532.474 137.685 533.386 137.881L536.94 138.597C538.849 138.989 540.272 139.619 541.21 140.489C542.147 141.358 542.616 142.5 542.616 143.915C542.616 145.202 542.237 146.331 541.478 147.303C540.728 148.274 539.697 149.033 538.385 149.578C537.081 150.115 535.576 150.384 533.872 150.384C531.272 150.384 529.201 149.842 527.659 148.76C526.125 147.669 525.226 146.186 524.961 144.311L530.318 144.03C530.48 144.822 530.872 145.428 531.494 145.845C532.116 146.254 532.913 146.459 533.885 146.459C534.839 146.459 535.606 146.276 536.186 145.909C536.774 145.534 537.072 145.053 537.081 144.464C537.072 143.97 536.863 143.565 536.454 143.25C536.045 142.926 535.415 142.679 534.562 142.509L531.162 141.831C529.244 141.447 527.817 140.783 526.879 139.837C525.95 138.891 525.486 137.685 525.486 136.219C525.486 134.957 525.826 133.871 526.508 132.959C527.199 132.047 528.166 131.344 529.41 130.849C530.663 130.355 532.129 130.108 533.808 130.108C536.288 130.108 538.24 130.632 539.663 131.68C541.095 132.729 541.93 134.156 542.169 135.963Z" fill="black"/>
<path d="M657.552 150L650.06 123.818H656.107L660.441 142.01H660.658L665.439 123.818H670.617L675.385 142.048H675.616L679.949 123.818H685.996L678.505 150H673.11L668.124 132.882H667.92L662.946 150H657.552ZM694.616 150.384C692.596 150.384 690.858 149.974 689.4 149.156C687.951 148.33 686.835 147.162 686.051 145.653C685.267 144.136 684.875 142.342 684.875 140.271C684.875 138.251 685.267 136.479 686.051 134.953C686.835 133.428 687.939 132.239 689.362 131.386C690.794 130.534 692.473 130.108 694.399 130.108C695.694 130.108 696.9 130.317 698.017 130.734C699.142 131.143 700.122 131.761 700.957 132.588C701.801 133.415 702.457 134.455 702.926 135.707C703.395 136.952 703.629 138.409 703.629 140.08V141.575H687.048V138.2H698.503C698.503 137.416 698.332 136.722 697.991 136.116C697.65 135.511 697.177 135.038 696.572 134.697C695.976 134.348 695.281 134.173 694.488 134.173C693.662 134.173 692.929 134.365 692.289 134.749C691.659 135.124 691.164 135.631 690.806 136.27C690.449 136.901 690.265 137.604 690.257 138.379V141.588C690.257 142.56 690.436 143.399 690.794 144.107C691.16 144.814 691.676 145.359 692.341 145.743C693.005 146.126 693.794 146.318 694.706 146.318C695.311 146.318 695.865 146.233 696.368 146.062C696.87 145.892 697.301 145.636 697.659 145.295C698.017 144.955 698.289 144.537 698.477 144.043L703.514 144.375C703.258 145.585 702.734 146.642 701.941 147.545C701.157 148.44 700.143 149.139 698.899 149.642C697.663 150.136 696.235 150.384 694.616 150.384ZM711.702 150.371C710.449 150.371 709.333 150.153 708.353 149.719C707.373 149.276 706.597 148.624 706.026 147.763C705.464 146.893 705.182 145.811 705.182 144.516C705.182 143.425 705.383 142.509 705.783 141.767C706.184 141.026 706.729 140.429 707.42 139.977C708.11 139.526 708.894 139.185 709.772 138.955C710.658 138.724 711.587 138.562 712.559 138.469C713.701 138.349 714.621 138.239 715.32 138.136C716.019 138.026 716.526 137.864 716.842 137.651C717.157 137.437 717.315 137.122 717.315 136.705V136.628C717.315 135.818 717.059 135.192 716.548 134.749C716.045 134.305 715.329 134.084 714.4 134.084C713.42 134.084 712.64 134.301 712.06 134.736C711.481 135.162 711.097 135.699 710.91 136.347L705.873 135.938C706.128 134.744 706.631 133.713 707.381 132.844C708.131 131.966 709.099 131.293 710.283 130.824C711.476 130.347 712.857 130.108 714.425 130.108C715.516 130.108 716.56 130.236 717.557 130.491C718.563 130.747 719.454 131.143 720.229 131.68C721.013 132.217 721.631 132.908 722.083 133.751C722.535 134.587 722.761 135.588 722.761 136.756V150H717.596V147.277H717.442C717.127 147.891 716.705 148.432 716.177 148.901C715.648 149.361 715.013 149.723 714.272 149.987C713.53 150.243 712.674 150.371 711.702 150.371ZM713.262 146.612C714.063 146.612 714.771 146.455 715.384 146.139C715.998 145.815 716.479 145.381 716.829 144.835C717.178 144.29 717.353 143.672 717.353 142.982V140.898C717.182 141.009 716.948 141.111 716.65 141.205C716.36 141.29 716.032 141.371 715.665 141.447C715.299 141.516 714.932 141.58 714.566 141.639C714.199 141.69 713.867 141.737 713.569 141.78C712.93 141.874 712.371 142.023 711.894 142.227C711.417 142.432 711.046 142.709 710.782 143.058C710.518 143.399 710.386 143.825 710.386 144.337C710.386 145.078 710.654 145.645 711.191 146.037C711.736 146.42 712.427 146.612 713.262 146.612ZM736.35 130.364V134.455H724.525V130.364H736.35ZM727.21 125.659H732.656V143.966C732.656 144.469 732.732 144.861 732.886 145.142C733.039 145.415 733.252 145.607 733.525 145.717C733.806 145.828 734.13 145.884 734.497 145.884C734.752 145.884 735.008 145.862 735.264 145.82C735.519 145.768 735.715 145.73 735.852 145.705L736.708 149.757C736.436 149.842 736.052 149.94 735.558 150.051C735.063 150.17 734.463 150.243 733.755 150.268C732.443 150.32 731.292 150.145 730.303 149.744C729.323 149.344 728.561 148.722 728.015 147.878C727.47 147.034 727.201 145.969 727.21 144.682V125.659ZM744.686 138.648V150H739.24V123.818H744.532V133.828H744.763C745.206 132.669 745.922 131.761 746.91 131.105C747.899 130.44 749.139 130.108 750.63 130.108C751.994 130.108 753.183 130.406 754.197 131.003C755.22 131.591 756.013 132.439 756.575 133.547C757.146 134.646 757.427 135.963 757.419 137.497V150H751.973V138.469C751.981 137.259 751.674 136.317 751.052 135.643C750.439 134.97 749.578 134.634 748.47 134.634C747.728 134.634 747.072 134.791 746.501 135.107C745.939 135.422 745.495 135.882 745.172 136.487C744.856 137.084 744.694 137.804 744.686 138.648ZM769.573 150.384C767.554 150.384 765.815 149.974 764.358 149.156C762.909 148.33 761.792 147.162 761.008 145.653C760.224 144.136 759.832 142.342 759.832 140.271C759.832 138.251 760.224 136.479 761.008 134.953C761.792 133.428 762.896 132.239 764.319 131.386C765.751 130.534 767.43 130.108 769.356 130.108C770.652 130.108 771.858 130.317 772.974 130.734C774.099 131.143 775.079 131.761 775.914 132.588C776.758 133.415 777.414 134.455 777.883 135.707C778.352 136.952 778.586 138.409 778.586 140.08V141.575H762.005V138.2H773.46C773.46 137.416 773.289 136.722 772.948 136.116C772.608 135.511 772.135 135.038 771.529 134.697C770.933 134.348 770.238 134.173 769.446 134.173C768.619 134.173 767.886 134.365 767.247 134.749C766.616 135.124 766.122 135.631 765.764 136.27C765.406 136.901 765.223 137.604 765.214 138.379V141.588C765.214 142.56 765.393 143.399 765.751 144.107C766.118 144.814 766.633 145.359 767.298 145.743C767.963 146.126 768.751 146.318 769.663 146.318C770.268 146.318 770.822 146.233 771.325 146.062C771.828 145.892 772.258 145.636 772.616 145.295C772.974 144.955 773.247 144.537 773.434 144.043L778.471 144.375C778.216 145.585 777.691 146.642 776.899 147.545C776.115 148.44 775.1 149.139 773.856 149.642C772.62 150.136 771.193 150.384 769.573 150.384ZM781.06 150V130.364H786.34V133.79H786.545C786.903 132.571 787.503 131.651 788.347 131.028C789.191 130.398 790.163 130.082 791.262 130.082C791.535 130.082 791.829 130.099 792.144 130.134C792.459 130.168 792.736 130.214 792.975 130.274V135.107C792.719 135.03 792.366 134.962 791.914 134.902C791.462 134.842 791.049 134.812 790.674 134.812C789.873 134.812 789.157 134.987 788.526 135.337C787.904 135.678 787.41 136.155 787.043 136.768C786.685 137.382 786.506 138.089 786.506 138.891V150H781.06Z" fill="black"/>
<path d="M326.385 301.382V296.818H347.888V301.382H339.872V323H334.4V301.382H326.385ZM356.348 323.384C354.328 323.384 352.589 322.974 351.132 322.156C349.683 321.33 348.566 320.162 347.782 318.653C346.998 317.136 346.606 315.342 346.606 313.271C346.606 311.251 346.998 309.479 347.782 307.953C348.566 306.428 349.67 305.239 351.093 304.386C352.525 303.534 354.204 303.108 356.13 303.108C357.426 303.108 358.632 303.317 359.748 303.734C360.873 304.143 361.853 304.761 362.689 305.588C363.532 306.415 364.189 307.455 364.657 308.707C365.126 309.952 365.36 311.409 365.36 313.08V314.575H348.78V311.2H360.234C360.234 310.416 360.064 309.722 359.723 309.116C359.382 308.511 358.909 308.038 358.304 307.697C357.707 307.348 357.012 307.173 356.22 307.173C355.393 307.173 354.66 307.365 354.021 307.749C353.39 308.124 352.896 308.631 352.538 309.27C352.18 309.901 351.997 310.604 351.988 311.379V314.588C351.988 315.56 352.167 316.399 352.525 317.107C352.892 317.814 353.407 318.359 354.072 318.743C354.737 319.126 355.525 319.318 356.437 319.318C357.042 319.318 357.596 319.233 358.099 319.062C358.602 318.892 359.032 318.636 359.39 318.295C359.748 317.955 360.021 317.537 360.209 317.043L365.245 317.375C364.99 318.585 364.466 319.642 363.673 320.545C362.889 321.44 361.875 322.139 360.63 322.642C359.395 323.136 357.967 323.384 356.348 323.384ZM372.034 303.364L375.639 310.229L379.334 303.364H384.92L379.231 313.182L385.074 323H379.513L375.639 316.212L371.829 323H366.204L372.034 313.182L366.409 303.364H372.034ZM397.519 303.364V307.455H385.694V303.364H397.519ZM388.379 298.659H393.825V316.966C393.825 317.469 393.901 317.861 394.055 318.142C394.208 318.415 394.421 318.607 394.694 318.717C394.975 318.828 395.299 318.884 395.666 318.884C395.921 318.884 396.177 318.862 396.433 318.82C396.688 318.768 396.884 318.73 397.021 318.705L397.877 322.757C397.605 322.842 397.221 322.94 396.727 323.051C396.232 323.17 395.632 323.243 394.924 323.268C393.612 323.32 392.461 323.145 391.473 322.744C390.492 322.344 389.73 321.722 389.184 320.878C388.639 320.034 388.37 318.969 388.379 317.682V298.659Z" fill="black"/>
<rect x="505" y="242" width="195" height="136" rx="30" fill="#FFB472"/>
<path d="M548.851 296.818V323H543.315V296.818H548.851ZM552.223 323V303.364H557.413V306.828H557.643C558.053 305.678 558.734 304.77 559.689 304.105C560.643 303.44 561.785 303.108 563.115 303.108C564.462 303.108 565.608 303.445 566.554 304.118C567.5 304.783 568.131 305.686 568.446 306.828H568.651C569.051 305.703 569.776 304.804 570.824 304.131C571.881 303.449 573.129 303.108 574.57 303.108C576.402 303.108 577.889 303.692 579.031 304.859C580.182 306.018 580.757 307.663 580.757 309.794V323H575.324V310.868C575.324 309.777 575.034 308.959 574.455 308.413C573.875 307.868 573.151 307.595 572.281 307.595C571.293 307.595 570.521 307.911 569.967 308.541C569.413 309.163 569.136 309.986 569.136 311.009V323H563.857V310.753C563.857 309.79 563.58 309.023 563.026 308.452C562.48 307.881 561.76 307.595 560.865 307.595C560.26 307.595 559.714 307.749 559.229 308.055C558.751 308.354 558.372 308.776 558.091 309.321C557.81 309.858 557.669 310.489 557.669 311.213V323H552.223ZM589.578 323.371C588.326 323.371 587.209 323.153 586.229 322.719C585.249 322.276 584.473 321.624 583.902 320.763C583.34 319.893 583.058 318.811 583.058 317.516C583.058 316.425 583.259 315.509 583.659 314.767C584.06 314.026 584.605 313.429 585.296 312.977C585.986 312.526 586.77 312.185 587.648 311.955C588.534 311.724 589.463 311.562 590.435 311.469C591.577 311.349 592.497 311.239 593.196 311.136C593.895 311.026 594.402 310.864 594.718 310.651C595.033 310.437 595.191 310.122 595.191 309.705V309.628C595.191 308.818 594.935 308.192 594.424 307.749C593.921 307.305 593.205 307.084 592.276 307.084C591.296 307.084 590.516 307.301 589.936 307.736C589.357 308.162 588.973 308.699 588.786 309.347L583.749 308.938C584.004 307.744 584.507 306.713 585.257 305.844C586.007 304.966 586.975 304.293 588.159 303.824C589.353 303.347 590.733 303.108 592.301 303.108C593.392 303.108 594.436 303.236 595.433 303.491C596.439 303.747 597.33 304.143 598.105 304.68C598.889 305.217 599.507 305.908 599.959 306.751C600.411 307.587 600.637 308.588 600.637 309.756V323H595.472V320.277H595.318C595.003 320.891 594.581 321.432 594.053 321.901C593.524 322.361 592.889 322.723 592.148 322.987C591.406 323.243 590.55 323.371 589.578 323.371ZM591.138 319.612C591.939 319.612 592.647 319.455 593.26 319.139C593.874 318.815 594.355 318.381 594.705 317.835C595.054 317.29 595.229 316.672 595.229 315.982V313.898C595.058 314.009 594.824 314.111 594.526 314.205C594.236 314.29 593.908 314.371 593.541 314.447C593.175 314.516 592.808 314.58 592.442 314.639C592.076 314.69 591.743 314.737 591.445 314.78C590.806 314.874 590.247 315.023 589.77 315.227C589.293 315.432 588.922 315.709 588.658 316.058C588.394 316.399 588.262 316.825 588.262 317.337C588.262 318.078 588.53 318.645 589.067 319.037C589.612 319.42 590.303 319.612 591.138 319.612ZM612.628 330.773C610.864 330.773 609.351 330.53 608.09 330.044C606.837 329.567 605.84 328.915 605.098 328.088C604.357 327.261 603.875 326.332 603.654 325.301L608.691 324.624C608.844 325.016 609.087 325.382 609.42 325.723C609.752 326.064 610.191 326.337 610.736 326.541C611.29 326.754 611.964 326.861 612.756 326.861C613.941 326.861 614.917 326.571 615.684 325.991C616.459 325.42 616.847 324.462 616.847 323.115V319.523H616.617C616.378 320.068 616.02 320.584 615.543 321.07C615.066 321.555 614.452 321.952 613.702 322.259C612.952 322.565 612.057 322.719 611.018 322.719C609.543 322.719 608.201 322.378 606.991 321.696C605.789 321.006 604.83 319.953 604.114 318.538C603.407 317.115 603.053 315.317 603.053 313.143C603.053 310.919 603.415 309.061 604.14 307.57C604.864 306.078 605.827 304.962 607.029 304.22C608.239 303.479 609.564 303.108 611.005 303.108C612.104 303.108 613.025 303.295 613.766 303.67C614.508 304.037 615.104 304.497 615.556 305.051C616.016 305.597 616.37 306.134 616.617 306.662H616.822V303.364H622.229V323.192C622.229 324.862 621.82 326.26 621.002 327.385C620.184 328.51 619.05 329.354 617.601 329.916C616.161 330.487 614.503 330.773 612.628 330.773ZM612.743 318.628C613.621 318.628 614.363 318.411 614.968 317.976C615.581 317.533 616.05 316.902 616.374 316.084C616.706 315.257 616.873 314.268 616.873 313.118C616.873 311.967 616.711 310.97 616.387 310.126C616.063 309.274 615.594 308.614 614.981 308.145C614.367 307.676 613.621 307.442 612.743 307.442C611.848 307.442 611.094 307.685 610.481 308.17C609.867 308.648 609.402 309.312 609.087 310.165C608.772 311.017 608.614 312.001 608.614 313.118C608.614 314.251 608.772 315.232 609.087 316.058C609.411 316.876 609.875 317.511 610.481 317.963C611.094 318.406 611.848 318.628 612.743 318.628ZM634.432 323.384C632.412 323.384 630.673 322.974 629.216 322.156C627.767 321.33 626.651 320.162 625.867 318.653C625.082 317.136 624.69 315.342 624.69 313.271C624.69 311.251 625.082 309.479 625.867 307.953C626.651 306.428 627.754 305.239 629.178 304.386C630.609 303.534 632.288 303.108 634.215 303.108C635.51 303.108 636.716 303.317 637.832 303.734C638.957 304.143 639.938 304.761 640.773 305.588C641.617 306.415 642.273 307.455 642.742 308.707C643.21 309.952 643.445 311.409 643.445 313.08V314.575H626.864V311.2H638.318C638.318 310.416 638.148 309.722 637.807 309.116C637.466 308.511 636.993 308.038 636.388 307.697C635.791 307.348 635.097 307.173 634.304 307.173C633.477 307.173 632.744 307.365 632.105 307.749C631.474 308.124 630.98 308.631 630.622 309.27C630.264 309.901 630.081 310.604 630.072 311.379V314.588C630.072 315.56 630.251 316.399 630.609 317.107C630.976 317.814 631.492 318.359 632.156 318.743C632.821 319.126 633.609 319.318 634.521 319.318C635.126 319.318 635.68 319.233 636.183 319.062C636.686 318.892 637.117 318.636 637.474 318.295C637.832 317.955 638.105 317.537 638.293 317.043L643.33 317.375C643.074 318.585 642.55 319.642 641.757 320.545C640.973 321.44 639.959 322.139 638.715 322.642C637.479 323.136 636.051 323.384 634.432 323.384ZM662.257 308.963L657.271 309.27C657.186 308.844 657.002 308.46 656.721 308.119C656.44 307.77 656.069 307.493 655.609 307.288C655.157 307.075 654.616 306.969 653.985 306.969C653.142 306.969 652.43 307.148 651.85 307.506C651.271 307.855 650.981 308.324 650.981 308.912C650.981 309.381 651.169 309.777 651.544 310.101C651.919 310.425 652.562 310.685 653.474 310.881L657.028 311.597C658.937 311.989 660.36 312.619 661.298 313.489C662.235 314.358 662.704 315.5 662.704 316.915C662.704 318.202 662.325 319.331 661.566 320.303C660.816 321.274 659.785 322.033 658.473 322.578C657.169 323.115 655.664 323.384 653.96 323.384C651.36 323.384 649.289 322.842 647.747 321.76C646.213 320.669 645.313 319.186 645.049 317.311L650.406 317.03C650.568 317.822 650.96 318.428 651.582 318.845C652.204 319.254 653.001 319.459 653.973 319.459C654.927 319.459 655.694 319.276 656.274 318.909C656.862 318.534 657.16 318.053 657.169 317.464C657.16 316.97 656.951 316.565 656.542 316.25C656.133 315.926 655.502 315.679 654.65 315.509L651.25 314.831C649.332 314.447 647.904 313.783 646.967 312.837C646.038 311.891 645.573 310.685 645.573 309.219C645.573 307.957 645.914 306.871 646.596 305.959C647.287 305.047 648.254 304.344 649.498 303.849C650.751 303.355 652.217 303.108 653.896 303.108C656.376 303.108 658.328 303.632 659.751 304.68C661.183 305.729 662.018 307.156 662.257 308.963Z" fill="black"/>
</g>
<defs>
<clipPath id="clip0_53_8">
<rect width="964" height="525" fill="white"/>
</clipPath>
</defs>
</svg>
